# Blender 4.5.10 LTS
# www.blender.org
o link0_11
v 0.004431 0.073146 0.081533
v 0.004527 0.072665 0.082511
v 0.003935 0.072909 0.081323
v 0.003635 0.072187 0.081997
v 0.005401 0.072448 0.082981
v 0.005711 0.073157 0.082229
v 0.006985 0.069521 0.084673
v 0.004718 0.069164 0.084623
v 0.010945 0.070163 0.081424
v 0.008985 0.069846 0.083524
v 0.017664 0.071251 0.040439
v 0.009620 0.069984 0.013220
v 0.012905 0.070480 0.076095
v 0.001971 0.068709 0.081340
v 0.002657 0.068821 0.083055
v 0.003604 0.068982 0.084033
v 0.012107 0.070351 0.079100
v 0.010199 0.070988 0.011396
v 0.011116 0.073111 0.010156
v 0.006166 0.072596 0.082825
v 0.014146 0.073857 0.049934
v 0.012911 0.073778 0.058610
v 0.010242 0.073544 0.076454
v 0.011042 0.073190 0.073624
v 0.020778 0.071827 0.013176
v 0.020019 0.073104 0.010882
v 0.011902 0.073705 0.065557
v 0.007577 0.073148 0.081591
v 0.008430 0.073010 0.080981
v 0.018701 0.074840 0.010147
v 0.012206 0.074395 0.010044
v 0.017628 0.075258 0.010097
v 0.003311 0.072208 0.081087
v 0.008912 0.073707 0.078688
v 0.009800 0.073233 0.078732
v 0.009884 0.073997 0.071533
v 0.010671 0.073726 0.072179
v 0.009405 0.073931 0.074698
v 0.012957 0.074460 0.049815
v 0.011938 0.074315 0.057203
v 0.011210 0.073941 0.067024
v 0.011025 0.074153 0.064684
v 0.007303 0.073611 0.080359
v 0.013655 0.074283 0.049410
v 0.015694 0.074969 0.024869
v 0.014898 0.074811 0.032990
v 0.013936 0.074651 0.041035
v 0.012303 0.074112 0.058998
vn -0.4176 0.6602 0.6244
vn -0.0296 0.8886 0.4577
vn -0.3435 0.9122 0.2233
vn -0.1252 0.6010 0.7894
vn 0.1865 0.6555 0.7318
vn -0.8593 0.5031 0.0921
vn -0.7357 0.4939 0.4634
vn -0.6202 0.7682 0.1586
vn 0.1591 -0.9873 0.0011
vn 0.1562 -0.9877 0.0065
vn 0.1599 -0.9871 0.0005
vn 0.1600 -0.9871 0.0001
vn 0.1588 -0.9873 -0.0009
vn 0.1585 -0.9687 -0.1912
vn 0.1637 -0.9523 -0.2576
vn 0.1599 -0.9871 -0.0000
vn 0.1599 -0.9871 0.0002
vn 0.1545 -0.9879 0.0130
vn 0.1649 -0.9863 -0.0010
vn 0.1599 -0.9871 0.0001
vn -0.9320 0.3486 -0.0993
vn -0.8379 0.5390 -0.0859
vn -0.9342 0.3394 -0.1097
vn -0.9246 0.3625 0.1167
vn 0.1375 0.5220 0.8418
vn 0.4494 0.5734 0.6850
vn -0.3030 0.4581 0.8357
vn -0.5871 0.4192 0.6925
vn -0.7942 0.3804 0.4738
vn 0.5433 0.8265 0.1472
vn 0.5941 0.7429 0.3084
vn 0.7564 0.6315 0.1704
vn 0.7585 0.6433 0.1040
vn 0.5683 0.8189 0.0804
vn 0.6899 0.7165 0.1034
vn 0.7693 0.6310 0.1001
vn 0.7197 0.6849 0.1140
vn 0.7737 0.6267 0.0929
vn 0.3341 0.7911 0.5124
vn 0.6089 0.7876 0.0945
vn 0.4964 0.7394 0.4548
vn 0.6224 0.6033 0.4986
vn 0.6596 0.7444 0.1039
vn 0.7236 0.6184 0.3066
vn 0.0638 -0.2802 -0.9578
vn 0.0598 -0.4189 -0.9061
vn 0.0229 -0.1048 -0.9942
vn 0.0204 -0.0669 -0.9975
vn 0.1240 -0.7866 -0.6049
vn 0.1277 -0.6847 -0.7176
vn -0.4647 0.8847 -0.0372
vn 0.0355 0.9855 0.1659
vn 0.2454 0.9501 0.1925
vn 0.0682 0.9970 0.0370
vn 0.3981 0.9135 0.0845
vn 0.1240 0.9916 0.0380
vn 0.4872 0.8691 0.0850
vn 0.0570 0.9979 0.0316
vn 0.4427 0.8938 0.0724
vn 0.1199 0.9923 0.0319
vn 0.0614 0.9977 0.0271
vn -0.0879 0.9961 0.0105
vn 0.0474 0.9985 0.0271
vn 0.0729 0.9969 0.0290
vn 0.0498 0.9984 0.0282
vn 0.3989 0.9143 0.0708
vt 0.380920 0.791122
vt 0.381833 0.791491
vt 0.380728 0.791933
vt 0.381684 0.790813
vt 0.382285 0.791021
vt 0.225439 0.461051
vt 0.225600 0.460301
vt 0.226199 0.460898
vt 0.226320 0.459899
vt 0.226575 0.460734
vt 0.912573 0.609887
vt 0.914446 0.609711
vt 0.917024 0.612110
vt 0.911032 0.611011
vt 0.907947 0.646810
vt 0.917150 0.668130
vt 0.907947 0.669240
vt 0.908501 0.617416
vt 0.909614 0.612904
vt 0.915421 0.610082
vt 0.916296 0.610784
vt 0.908875 0.614901
vt 0.222570 0.516171
vt 0.225233 0.518870
vt 0.223417 0.517721
vt 0.222415 0.460616
vt 0.383266 0.789435
vt 0.384769 0.790578
vt 0.223993 0.457918
vt 0.226530 0.459484
vt 0.381434 0.789238
vt 0.223396 0.458408
vt 0.222857 0.459212
vt 0.384960 0.796639
vt 0.384828 0.794729
vt 0.387233 0.797024
vt 0.387737 0.826485
vt 0.385586 0.851381
vt 0.385643 0.818573
vt 0.387697 0.848960
vt 0.385363 0.798996
vt 0.386806 0.850818
vt 0.383291 0.792189
vt 0.385285 0.805658
vt 0.383934 0.792759
vt 0.386152 0.792490
vt 0.385453 0.811402
vt 0.386871 0.794499
vt 0.938140 0.430042
vt 0.938152 0.423665
vt 0.938972 0.424771
vt 0.938663 0.429260
vt 0.916732 0.669739
vt 0.908616 0.671140
vt 0.936409 0.430773
vt 0.936409 0.422535
vt 0.380316 0.792043
vt 0.380316 0.850815
vt 0.226575 0.519035
vt 0.382932 0.793187
vt 0.384080 0.794705
vt 0.384098 0.798005
vt 0.384848 0.804413
vt 0.384469 0.806307
vt 0.384901 0.800162
vt 0.384189 0.800626
vt 0.385175 0.818974
vt 0.384690 0.851340
vt 0.384628 0.832459
vt 0.384510 0.839140
vt 0.384605 0.825823
vt 0.384638 0.818587
vt 0.384506 0.812480
vt 0.384979 0.811046
s 1
f 2/1/1 6/2/2 1/3/3
f 5/4/4 20/5/5 6/2/2
f 33/6/6 4/7/7 3/8/8
f 5/4/4 6/2/2 2/1/1
f 4/7/7 2/9/1 3/8/8
f 2/9/1 1/10/3 3/8/8
f 7/11/9 8/12/10 14/13/11
f 10/14/12 7/11/9 14/13/11
f 11/15/13 12/16/14 25/17/15
f 14/13/11 11/15/13 13/18/16
f 10/14/12 14/13/11 9/19/17
f 14/13/11 12/16/14 11/15/13
f 8/12/10 16/20/18 15/21/19
f 8/12/10 15/21/19 14/13/11
f 17/22/20 14/13/11 13/18/16
f 9/19/17 14/13/11 17/22/20
f 12/23/21 19/24/22 18/25/23
f 33/6/6 19/24/22 12/23/21
f 14/26/24 33/6/6 12/23/21
f 20/5/5 7/27/25 10/28/26
f 8/29/27 5/30/4 2/9/1
f 5/4/4 7/27/25 20/5/5
f 8/31/27 7/27/25 5/4/4
f 16/32/28 2/9/1 4/7/7
f 16/32/28 8/29/27 2/9/1
f 4/7/7 15/33/29 16/32/28
f 33/6/6 15/33/29 4/7/7
f 33/6/6 14/26/24 15/33/29
f 23/34/30 35/35/31 13/36/32
f 11/37/33 30/38/34 21/39/35
f 30/38/34 11/37/33 25/40/36
f 24/41/37 23/34/30 13/36/32
f 26/42/38 30/38/34 25/40/36
f 28/43/39 20/5/5 10/28/26
f 27/44/40 24/41/37 13/36/32
f 29/45/41 28/43/39 10/28/26
f 29/45/41 10/28/26 9/46/42
f 22/47/43 27/44/40 13/36/32
f 22/47/43 13/36/32 11/37/33
f 35/35/31 29/45/41 9/46/42
f 35/35/31 9/46/42 17/48/44
f 21/39/35 22/47/43 11/37/33
f 35/35/31 17/48/44 13/36/32
f 30/49/45 19/50/46 31/51/47
f 32/52/48 30/49/45 31/51/47
f 25/17/15 12/16/14 18/53/49
f 26/54/50 25/17/15 18/53/49
f 26/55/50 18/56/49 19/50/46
f 30/49/45 26/55/50 19/50/46
f 3/57/8 1/3/3 31/58/51
f 3/8/8 31/59/51 19/24/22
f 33/6/6 3/8/8 19/24/22
f 43/60/52 34/61/53 38/62/54
f 28/43/39 35/35/31 34/61/53
f 28/43/39 29/45/41 35/35/31
f 41/63/55 27/44/40 42/64/56
f 43/60/52 28/43/39 34/61/53
f 37/65/57 36/66/58 38/62/54
f 28/43/39 6/2/2 20/5/5
f 44/67/59 30/38/34 32/68/60
f 43/60/52 6/2/2 28/43/39
f 43/60/52 1/3/3 6/2/2
f 46/69/61 44/67/59 32/68/60
f 46/69/61 32/68/60 45/70/62
f 44/67/59 21/39/35 30/38/34
f 47/71/63 44/67/59 46/69/61
f 39/72/64 44/67/59 47/71/63
f 44/67/59 22/47/43 21/39/35
f 44/67/59 39/72/64 40/73/65
f 44/67/59 40/73/65 48/74/66
f 22/47/43 44/67/59 48/74/66
f 23/34/30 24/41/37 37/65/57
f 48/74/66 40/73/65 42/64/56
f 48/74/66 27/44/40 22/47/43
f 38/62/54 23/34/30 37/65/57
f 48/74/66 42/64/56 27/44/40
f 34/61/53 23/34/30 38/62/54
f 41/63/55 42/64/56 36/66/58
f 41/63/55 24/41/37 27/44/40
f 34/61/53 35/35/31 23/34/30
f 41/63/55 36/66/58 37/65/57
f 37/65/57 24/41/37 41/63/55
f 38/62/54 1/3/3 43/60/52
f 36/66/58 1/3/3 38/62/54
f 42/64/56 1/3/3 36/66/58
f 31/58/51 46/69/61 45/70/62
f 31/58/51 47/71/63 46/69/61
f 32/68/60 31/58/51 45/70/62
f 31/58/51 1/3/3 42/64/56
f 31/58/51 42/64/56 40/73/65
f 31/58/51 40/73/65 39/72/64
f 31/58/51 39/72/64 47/71/63
