# Blender 4.5.10 LTS
# www.blender.org
o link6_3
v 0.089107 0.077080 -0.009464
v 0.088962 0.077413 -0.009198
v 0.089169 0.077402 -0.011949
v 0.088969 0.077814 -0.012075
v 0.087188 0.077754 -0.011971
v 0.088236 0.078119 -0.012386
v 0.088115 0.078235 -0.011881
v 0.087687 0.078106 -0.012267
v 0.087890 0.077747 -0.012776
v 0.087601 0.077763 -0.012600
v 0.087337 0.077771 -0.012321
v 0.089016 0.077478 -0.012353
v 0.088671 0.077586 -0.012678
v 0.088708 0.077922 -0.012387
v 0.088334 0.077670 -0.012807
v 0.088536 0.078150 -0.011947
v 0.087845 0.078200 -0.011814
v 0.087143 0.077589 -0.010686
v 0.087531 0.078076 -0.011792
v 0.087334 0.077618 -0.009162
v 0.087144 0.077411 -0.009270
v 0.087692 0.077828 -0.009126
v 0.088032 0.077902 -0.009247
v 0.088717 0.077699 -0.009312
v 0.088401 0.077850 -0.009257
v 0.087356 0.077323 -0.008859
v 0.087655 0.077250 -0.008580
v 0.088011 0.077614 -0.008737
v 0.088530 0.077358 -0.008680
v 0.088445 0.077716 -0.008957
v 0.088022 0.077174 -0.008484
v 0.088401 0.077105 -0.008539
v 0.088735 0.077067 -0.008727
v 0.088970 0.077057 -0.009004
vn 0.0315 0.3996 -0.9162
vn 0.9435 0.3020 0.1362
vn 0.9067 0.4188 -0.0502
vn 0.8121 0.4758 0.3378
vn 0.7781 0.6083 -0.1567
vn 0.4031 0.9137 -0.0517
vn 0.5604 0.7946 0.2335
vn 0.0381 0.9988 -0.0319
vn 0.0365 0.9530 0.3009
vn 0.1116 0.8725 -0.4757
vn -0.3700 0.8558 -0.3615
vn -0.2339 0.9722 0.0092
vn -0.4244 0.6833 -0.5942
vn -0.1171 0.7320 -0.6711
vn -0.6153 0.7010 -0.3606
vn 0.7984 0.4212 -0.4303
vn -0.6746 0.7338 -0.0801
vn 0.5357 0.5183 -0.6666
vn 0.5328 0.6914 -0.4879
vn 0.2312 0.6645 -0.7106
vn -0.5385 0.8427 -0.0000
vn -0.6975 0.7128 0.0729
vn -0.6298 0.6855 0.3655
vn -0.7741 0.5871 0.2367
vn -0.3118 0.8636 0.3962
vn 0.3415 0.7718 0.5364
vn -0.5242 0.5908 0.6133
vn -0.3029 0.5915 0.7472
vn -0.0519 0.6984 0.7138
vn 0.0437 0.4810 0.8756
vn 0.4423 0.4625 0.7684
vn 0.2844 0.8902 0.3559
vn 0.3124 0.3359 0.8886
vn 0.6474 0.3297 0.6871
vn 0.8162 0.2905 0.4994
vt 0.703384 0.940461
vt 0.703337 0.940745
vt 0.703337 0.940159
vt 0.136801 0.940953
vt 0.136832 0.943007
vt 0.136612 0.940769
vt 0.136591 0.943150
vt 0.136176 0.943077
vt 0.136361 0.940889
vt 0.135823 0.943029
vt 0.135775 0.940852
vt 0.135953 0.943429
vt 0.135518 0.943328
vt 0.135615 0.942969
vt 0.545729 0.940376
vt 0.546125 0.940421
vt 0.545639 0.940614
vt 0.546098 0.940869
vt 0.545872 0.940159
vt 0.136703 0.943343
vt 0.318483 0.943076
vt 0.318959 0.943315
vt 0.318560 0.943317
vt 0.545639 0.941263
vt 0.546004 0.941268
vt 0.545771 0.941551
vt 0.546125 0.941487
vt 0.545600 0.940982
vt 0.318880 0.942977
vt 0.319138 0.942977
vt 0.136368 0.943413
vt 0.318456 0.942074
vt 0.318694 0.940910
vt 0.318458 0.940963
vt 0.319030 0.940884
vt 0.135518 0.940744
vt 0.136135 0.940600
vt 0.318570 0.940595
vt 0.318734 0.940314
vt 0.319138 0.940477
vt 0.135902 0.940159
vt 0.136271 0.940340
vt 0.135807 0.940408
vt 0.136078 0.940857
vt 0.318926 0.940159
vt 0.136218 0.940199
vt 0.136494 0.940350
vt 0.136688 0.940576
s 1
f 25/1/1 24/2/1 23/3/1
f 1/4/2 3/5/3 2/6/4
f 4/7/5 2/6/4 3/5/3
f 16/8/6 24/9/7 4/7/5
f 4/7/5 24/9/7 2/6/4
f 7/10/8 24/9/7 16/8/6
f 23/11/9 24/9/7 7/10/8
f 6/12/10 7/10/8 16/8/6
f 8/13/11 17/14/12 7/10/8
f 10/15/13 8/16/11 9/17/14
f 9/17/14 8/16/11 6/18/10
f 11/19/15 8/16/11 10/15/13
f 12/20/16 4/7/5 3/5/3
f 5/21/17 8/22/11 11/23/15
f 13/24/18 14/25/19 12/26/16
f 12/26/16 14/25/19 4/27/5
f 13/24/18 15/28/20 14/25/19
f 5/21/17 19/29/21 8/22/11
f 8/13/11 7/10/8 6/12/10
f 19/29/21 17/30/12 8/22/11
f 14/31/19 16/8/6 4/7/5
f 15/28/20 6/18/10 14/25/19
f 9/17/14 6/18/10 15/28/20
f 14/31/19 6/12/10 16/8/6
f 7/10/8 17/14/12 23/11/9
f 18/32/22 19/29/21 5/21/17
f 20/33/23 18/32/22 21/34/24
f 22/35/25 19/29/21 20/33/23
f 20/33/23 19/29/21 18/32/22
f 23/11/9 17/14/12 22/36/25
f 22/35/25 17/30/12 19/29/21
f 2/6/4 24/9/7 30/37/26
f 26/38/27 20/33/23 21/34/24
f 20/33/23 27/39/28 22/35/25
f 22/35/25 27/39/28 28/40/29
f 31/41/30 29/42/31 28/43/29
f 22/36/25 28/43/29 30/37/26
f 29/42/31 30/37/26 28/43/29
f 30/37/26 23/11/9 22/36/25
f 25/44/32 23/11/9 30/37/26
f 26/38/27 27/39/28 20/33/23
f 25/44/32 30/37/26 24/9/7
f 31/45/30 28/40/29 27/39/28
f 32/46/33 29/42/31 31/41/30
f 33/47/34 29/42/31 32/46/33
f 34/48/35 2/6/4 33/47/34
f 33/47/34 2/6/4 29/42/31
f 1/4/2 2/6/4 34/48/35
f 2/6/4 30/37/26 29/42/31
