# Blender 4.5.10 LTS
# www.blender.org
o link6_2
v 0.081098 0.073796 -0.034034
v 0.102323 0.069633 -0.031108
v 0.085901 0.072864 -0.034575
v 0.091242 0.071823 -0.034404
v 0.107334 0.068630 -0.027927
v 0.111189 0.068027 -0.024508
v 0.061418 0.077559 -0.022321
v 0.065191 0.076842 -0.026222
v 0.069060 0.076107 -0.029154
v 0.074430 0.075079 -0.032081
v 0.053592 0.079162 -0.000001
v 0.096594 0.070774 -0.033297
v 0.058602 0.078095 -0.018376
v 0.056000 0.078598 -0.013329
v 0.054223 0.078937 -0.007587
v 0.053578 0.079063 -0.003406
v 0.114804 0.066793 -0.000000
v 0.118293 0.064907 -0.017174
v 0.122156 0.062151 -0.011141
v 0.123854 0.060933 -0.000001
v 0.120613 0.063185 -0.014124
v 0.123525 0.061287 -0.004217
v 0.123132 0.061523 -0.007021
v 0.123615 0.061148 -0.004093
v 0.053537 0.078620 -0.000001
v 0.062104 0.077302 0.023317
v 0.075219 0.074780 0.032360
v 0.057120 0.078293 0.016042
v 0.054461 0.078798 0.008963
v 0.053603 0.078974 0.004321
v 0.070743 0.075654 0.030215
v 0.088647 0.072255 0.034636
v 0.081142 0.073617 0.034067
v 0.066992 0.076382 0.027744
v 0.109866 0.068005 0.025919
v 0.105170 0.068969 0.029434
v 0.101277 0.069739 0.031548
v 0.096058 0.070784 0.033469
v 0.123858 0.060833 -0.000000
v 0.121998 0.062179 0.012003
v 0.113795 0.067093 0.021810
v 0.119386 0.063981 0.016020
v 0.114984 0.066652 -0.000000
v 0.123661 0.060972 0.003531
v 0.123066 0.061483 0.008015
vn 0.1935 0.9811 0.0028
vn 0.1751 0.9845 -0.0008
vn 0.1941 0.9810 0.0035
vn 0.2384 0.9712 -0.0046
vn 0.3804 0.9247 0.0126
vn 0.1814 0.9834 -0.0067
vn 0.1782 0.9840 -0.0082
vn 0.1919 0.9814 0.0007
vn 0.1851 0.9827 -0.0048
vn 0.1899 0.9818 -0.0013
vn 0.1877 0.9822 -0.0031
vn 0.1838 0.9828 -0.0169
vn 0.1911 0.9816 -0.0002
vn 0.1733 0.9848 -0.0099
vn 0.1671 0.9859 -0.0115
vn 0.1259 0.9919 -0.0189
vn 0.0067 0.9996 -0.0291
vn 0.4675 0.8840 -0.0021
vn 0.5327 0.8462 0.0111
vn 0.5632 0.8260 0.0205
vn 0.5424 0.8400 0.0092
vn 0.0032 0.9965 0.0834
vn 0.4494 0.8929 0.0288
vn 0.8479 0.5297 -0.0217
vn 0.2470 0.9684 -0.0354
vn 0.2338 0.9720 -0.0225
vn 0.3259 0.9440 -0.0523
vn 0.2026 0.9791 -0.0193
vn 0.2048 0.9786 -0.0199
vn 0.1975 0.9802 -0.0160
vn 0.1824 0.9832 -0.0034
vn 0.2002 0.9796 -0.0178
vn 0.1886 0.9820 -0.0099
vn 0.5754 0.8144 -0.0755
vn 0.1926 0.9812 -0.0122
vn 0.1905 0.9816 -0.0133
vn 0.3782 0.9257 -0.0092
vn 0.1871 0.9822 -0.0149
vn 0.1966 0.9804 -0.0124
vn 0.5493 0.8355 -0.0125
vn 0.5138 0.8579 0.0019
vn 0.2876 0.9578 -0.0037
vn 0.5519 0.8338 -0.0086
vn 0.4872 0.8730 -0.0227
vn 0.6962 0.7178 0.0106
vt 0.256261 0.874989
vt 0.228971 0.910762
vt 0.254467 0.870215
vt 0.249056 0.862860
vt 0.228971 0.859722
vt 0.250464 0.901109
vt 0.247266 0.904243
vt 0.257169 0.879445
vt 0.252867 0.897895
vt 0.256866 0.887886
vt 0.255265 0.893431
vt 0.251860 0.866037
vt 0.257309 0.883890
vt 0.244033 0.906582
vt 0.239896 0.908744
vt 0.235190 0.910218
vt 0.231763 0.910753
vt 0.243055 0.856558
vt 0.228997 0.851277
vt 0.240563 0.854342
vt 0.238123 0.852893
vt 0.232451 0.851618
vt 0.234748 0.851982
vt 0.232350 0.851516
vt 0.712858 0.146588
vt 0.726012 0.149490
vt 0.718662 0.148800
vt 0.703263 0.138373
vt 0.706894 0.142435
vt 0.699477 0.131526
vt 0.698076 0.126594
vt 0.701237 0.135252
vt 0.697606 0.120371
vt 0.722467 0.149516
vt 0.698560 0.114197
vt 0.700133 0.109848
vt 0.725990 0.098354
vt 0.701865 0.106606
vt 0.704745 0.102688
vt 0.716168 0.091822
vt 0.712868 0.094283
vt 0.708112 0.099386
vt 0.726012 0.090057
vt 0.719439 0.090825
vt 0.723117 0.090243
s 1
f 12/1/1 11/2/2 2/3/3
f 6/4/4 11/2/2 17/5/5
f 11/2/2 8/6/6 7/7/7
f 4/8/8 11/2/2 12/1/1
f 9/9/9 8/6/6 11/2/2
f 11/2/2 1/10/10 10/11/11
f 6/4/4 5/12/12 11/2/2
f 10/11/11 9/9/9 11/2/2
f 3/13/13 11/2/2 4/8/8
f 2/3/3 11/2/2 5/12/12
f 1/10/10 11/2/2 3/13/13
f 13/14/14 11/2/2 7/7/7
f 14/15/15 11/2/2 13/14/14
f 11/2/2 14/15/15 15/16/16
f 15/16/16 16/17/17 11/2/2
f 17/5/5 18/18/18 6/4/4
f 20/19/19 21/20/20 17/5/5
f 20/19/19 19/21/21 21/20/20
f 17/5/5 21/20/20 18/18/18
f 20/19/19 22/22/22 23/23/23
f 20/19/19 23/23/23 19/21/21
f 22/22/24 20/19/24 24/24/24
f 28/25/25 25/26/26 29/27/27
f 34/28/28 25/26/26 26/29/29
f 25/26/26 27/30/30 33/31/31
f 34/28/28 31/32/32 25/26/26
f 25/26/26 33/31/31 32/33/33
f 27/30/30 25/26/26 31/32/32
f 25/26/26 28/25/25 26/29/29
f 29/27/27 25/26/26 30/34/34
f 38/35/35 37/36/36 43/37/37
f 36/38/38 43/37/37 37/36/36
f 35/39/39 43/37/37 36/38/38
f 32/33/33 43/37/37 25/26/26
f 38/35/35 43/37/37 32/33/33
f 40/40/40 43/37/37 42/41/41
f 43/37/37 41/42/42 42/41/41
f 40/40/40 39/43/43 43/37/37
f 41/42/42 43/37/37 35/39/39
f 45/44/44 39/43/43 40/40/40
f 39/43/43 45/44/44 44/45/45
