# Blender 4.5.10 LTS
# www.blender.org
o link4_3
v -0.065453 0.008937 0.000500
v -0.063289 0.007335 0.000500
v -0.056999 0.007003 0.000500
v -0.073499 0.012024 0.000500
v -0.055787 0.013669 0.000500
v -0.058388 0.002119 0.000499
v -0.070249 0.011122 0.000500
v -0.057715 0.002410 0.000499
v -0.054177 0.018988 0.000500
v -0.057396 0.002847 0.000499
v -0.059273 0.002358 0.000499
v -0.068012 0.010300 0.000500
v -0.061267 0.005234 0.000500
v -0.073503 0.013781 -0.008539
v -0.073495 0.012682 -0.008843
v -0.073502 0.014722 -0.013703
v -0.073489 0.012146 -0.003037
v -0.073500 0.012654 0.000500
v -0.073501 0.012700 -0.001008
v -0.073502 0.014140 -0.015646
v -0.073501 0.013250 -0.003737
v -0.073499 0.013169 -0.001100
v -0.073038 0.015726 -0.017006
v -0.071011 0.016522 -0.018372
v -0.072249 0.016131 -0.017859
v -0.064816 0.018132 -0.018398
v -0.053858 0.019881 -0.004239
v -0.053902 0.019738 -0.001100
v -0.058920 0.020435 -0.018398
v -0.052980 0.022116 -0.014075
v -0.073459 0.015379 -0.016028
v -0.058933 0.004714 -0.014852
v -0.058857 0.002235 -0.001730
v -0.057923 0.002351 -0.000944
v -0.057202 0.006084 -0.016306
v -0.057411 0.005379 -0.015328
v -0.058760 0.003330 -0.010010
v -0.057682 0.003914 -0.010612
v -0.057490 0.003288 -0.004506
v -0.057726 0.003187 -0.006864
v -0.059019 0.005590 -0.016878
v -0.058924 0.006274 -0.018316
v -0.059270 0.002439 -0.002297
v -0.059107 0.003653 -0.011084
v -0.057936 0.003705 -0.010763
v -0.058252 0.003609 -0.011035
v -0.057511 0.003977 -0.009411
v -0.058889 0.002965 -0.008156
v -0.057046 0.006832 -0.018215
v -0.059542 0.003202 -0.007379
v -0.057311 0.006394 -0.018251
v -0.058813 0.002514 -0.005119
v -0.059225 0.002637 -0.005043
v -0.058090 0.005021 -0.015890
v -0.058333 0.005983 -0.018293
v -0.057660 0.002627 -0.001661
v -0.057895 0.002496 -0.002639
v -0.058441 0.005378 -0.016868
v -0.058365 0.002210 -0.001670
v -0.057704 0.005170 -0.015727
v -0.059556 0.002768 -0.003410
v -0.059301 0.005114 -0.015129
v -0.058492 0.004560 -0.014637
v -0.058499 0.003816 -0.012073
v -0.059442 0.003904 -0.011135
v -0.057974 0.002915 -0.006666
v -0.058315 0.003018 -0.008207
v -0.058384 0.002559 -0.005370
v -0.064234 0.008471 -0.007285
v -0.070404 0.013001 -0.014509
v -0.063724 0.009250 -0.013257
v -0.068825 0.010701 -0.003480
v -0.061929 0.008613 -0.016184
v -0.067141 0.012938 -0.018209
v -0.071911 0.013805 -0.016043
v -0.067193 0.009948 -0.003172
v -0.071780 0.011639 -0.003359
v -0.073385 0.011983 -0.002462
v -0.062479 0.007416 -0.010188
v -0.070334 0.014168 -0.018280
v -0.067414 0.010604 -0.008628
v -0.061665 0.007151 -0.012485
v -0.060928 0.005371 -0.008537
v -0.065439 0.009814 -0.010391
v -0.065298 0.010671 -0.014460
v -0.063900 0.008716 -0.010460
v -0.068739 0.012833 -0.015900
v -0.065636 0.009075 -0.003258
v -0.061831 0.009494 -0.018281
v -0.059883 0.007466 -0.018292
v -0.073384 0.013230 -0.012510
v -0.060600 0.007184 -0.016141
v -0.063439 0.009925 -0.016201
v -0.073381 0.012159 -0.005335
v -0.068910 0.011228 -0.008341
v -0.060104 0.005298 -0.012635
v -0.071958 0.012209 -0.008491
v -0.070480 0.011872 -0.009014
v -0.066743 0.011015 -0.012489
v -0.073381 0.013933 -0.015424
v -0.065844 0.009577 -0.007348
v -0.070339 0.011242 -0.003518
v -0.065366 0.012029 -0.018243
v -0.072231 0.014423 -0.017762
v -0.073292 0.012480 -0.008388
v -0.060394 0.004014 -0.003137
v -0.068595 0.011871 -0.012420
v -0.061518 0.005475 -0.001452
v -0.062550 0.006609 -0.003158
v -0.063992 0.007884 -0.001525
v -0.061609 0.005708 -0.004618
v -0.064016 0.011215 -0.018280
v -0.066987 0.011804 -0.014976
v -0.064082 0.008078 -0.004517
v -0.062446 0.006895 -0.007272
v -0.071956 0.012917 -0.012396
v -0.056561 0.010720 -0.009762
v -0.054616 0.017774 -0.018220
v -0.055429 0.015105 -0.018253
v -0.057076 0.007378 -0.003952
v -0.052851 0.022472 -0.018232
v -0.056407 0.010875 -0.018163
v -0.053618 0.020519 -0.008270
v -0.053827 0.020061 -0.018242
v -0.057119 0.007455 -0.010521
v -0.055004 0.016679 -0.007303
v -0.055859 0.013709 -0.006774
v -0.052153 0.024160 -0.018324
v -0.055721 0.014262 -0.014707
v -0.054119 0.019149 -0.001065
v -0.056720 0.009014 -0.018201
v -0.060622 0.008482 -0.018373
v -0.062404 0.010177 -0.018379
v -0.056329 0.012203 -0.018386
v -0.053373 0.021630 -0.018378
v -0.054132 0.022888 -0.018397
v -0.057288 0.006683 -0.018387
v -0.055070 0.016922 -0.018384
v -0.058592 0.006200 -0.018392
v -0.065079 0.012070 -0.018384
v -0.068114 0.013559 -0.018383
v -0.073329 0.014330 -0.016449
v -0.071915 0.014591 -0.018064
v -0.072691 0.014562 -0.017467
v -0.073028 0.014256 -0.016811
v -0.071050 0.014455 -0.018344
v -0.057777 0.006122 -0.018346
v -0.056294 0.011708 -0.018302
v -0.056914 0.008763 -0.018376
vn -1.0000 0.0036 -0.0013
vn -0.8701 -0.4866 -0.0787
vn -1.0000 -0.0070 -0.0009
vn -0.9392 -0.3426 -0.0215
vn -1.0000 -0.0016 -0.0029
vn -1.0000 -0.0038 -0.0026
vn -0.9999 -0.0139 -0.0000
vn -0.9133 -0.3615 -0.1878
vn -0.9721 0.0214 -0.2335
vn -0.9999 -0.0102 -0.0006
vn -1.0000 0.0044 0.0009
vn 0.2371 -0.9640 -0.1202
vn 0.1817 -0.9812 -0.0659
vn -0.1336 -0.9847 -0.1121
vn 0.6285 -0.7771 -0.0326
vn 0.5038 -0.8624 -0.0497
vn 0.7755 -0.6286 -0.0585
vn -0.5007 -0.8602 -0.0966
vn -0.2269 -0.9727 -0.0487
vn -0.5513 -0.8331 -0.0455
vn 0.8338 -0.5364 -0.1307
vn 0.9558 -0.2910 -0.0427
vn 0.9641 -0.2641 -0.0271
vn 0.7296 -0.6477 -0.2194
vn 0.5898 -0.7720 -0.2370
vn 0.3848 -0.8570 -0.3427
vn 0.2444 -0.9152 -0.3203
vn -0.0685 -0.7559 -0.6511
vn -0.5483 -0.7571 -0.3552
vn -0.1005 -0.9176 -0.3847
vn -0.5774 -0.7072 -0.4079
vn 0.0129 -0.9559 -0.2936
vn -0.3999 -0.8656 -0.3012
vn -0.6916 -0.6742 -0.2590
vn 0.7809 -0.6115 -0.1274
vn 0.9422 -0.3312 -0.0512
vn 0.5622 -0.8074 -0.1789
vn 0.0593 -0.9614 -0.2685
vn -0.3748 -0.8987 -0.2276
vn 0.2868 -0.9325 -0.2196
vn -0.6943 -0.6945 -0.1889
vn 0.7933 -0.6013 -0.0953
vn 0.5437 -0.8303 -0.1222
vn 0.2730 -0.9459 -0.1753
vn -0.2171 -0.9603 -0.1749
vn -0.0402 -0.9789 -0.2003
vn -0.6761 -0.7275 -0.1168
vn 0.5642 -0.8213 -0.0852
vn 0.9504 -0.3077 -0.0448
vn 0.0798 -0.9967 -0.0130
vn -0.5789 -0.8154 -0.0024
vn 0.9330 -0.3582 -0.0357
vn -0.7472 -0.6628 -0.0482
vn -0.5080 -0.8255 -0.2459
vn -0.6132 -0.7620 -0.2082
vn -0.6158 -0.7721 -0.1568
vn -0.2545 -0.8239 -0.5064
vn -0.3460 -0.8986 -0.2700
vn -0.2795 -0.9291 -0.2422
vn -0.5324 -0.8306 -0.1631
vn -0.6404 -0.7012 -0.3133
vn -0.7162 -0.6197 -0.3210
vn -0.7283 -0.6303 -0.2690
vn -0.2013 -0.9409 -0.2723
vn -0.2153 -0.9553 -0.2025
vn -0.2000 -0.9580 -0.2054
vn -0.2361 -0.9624 -0.1341
vn -0.2943 -0.9442 -0.1480
vn -0.3033 -0.9508 -0.0627
vn -0.5833 -0.8085 -0.0783
vn -0.2498 -0.9668 -0.0544
vn -0.2184 -0.9757 -0.0165
vn -0.5242 -0.8454 -0.1028
vn -0.6091 -0.7863 -0.1041
vn -0.6187 -0.7833 -0.0600
vn -0.5335 -0.8448 -0.0422
vn -0.3707 -0.9269 -0.0584
vn -0.4086 -0.9125 -0.0189
vn -0.3072 -0.9514 -0.0216
vn -0.5087 -0.8307 -0.2264
vn -0.7130 -0.6754 -0.1880
vn -0.7766 -0.6199 -0.1121
vn -0.6875 -0.7106 -0.1496
vn -0.7019 -0.7067 -0.0895
vn -0.6645 -0.6947 -0.2754
vn -0.2521 -0.9676 -0.0158
vn -0.4547 -0.8679 -0.2000
vn -0.4425 -0.8868 -0.1330
vn -0.4791 -0.8244 -0.3013
vn -0.6021 -0.7512 -0.2706
vn -0.4255 -0.6770 -0.6004
vn -0.5180 -0.7240 -0.4554
vn -0.7771 -0.6003 -0.1889
vn -0.3908 -0.9121 -0.1244
vn -0.8149 -0.5789 -0.0286
vn -0.7739 -0.6333 0.0005
vn -0.3748 -0.9049 -0.2019
vn -0.7651 -0.6438 0.0077
vn -0.6993 -0.7142 -0.0309
vn -0.6606 -0.7507 -0.0032
vn -0.3664 -0.9218 -0.1267
vn -0.6180 -0.7862 -0.0053
vn -0.4529 -0.8904 -0.0463
vn -0.7577 -0.6498 -0.0602
vn -0.5247 -0.7809 -0.3389
vn -0.4392 -0.8625 -0.2515
vn -0.5366 -0.8438 -0.0114
vn -0.3955 -0.8728 -0.2860
vn 0.9671 -0.2540 0.0104
vn 0.9645 -0.2636 0.0168
vn 0.9504 -0.3111 0.0037
vn 0.9803 -0.1780 -0.0857
vn 0.9806 -0.1962 -0.0004
vn 0.9240 -0.3823 -0.0041
vn 0.9259 -0.3776 -0.0025
vn 0.9254 -0.3790 -0.0037
vn 0.9525 -0.3045 -0.0044
vn 0.9684 -0.2491 -0.0075
vn 0.9897 -0.1419 -0.0212
vn 0.9710 -0.2385 -0.0189
vn 0.9904 -0.1354 -0.0291
vn 0.9900 -0.1409 0.0052
vn 0.9360 -0.3521 -0.0013
vn 0.9382 -0.3460 -0.0024
vn 0.9383 -0.3458 -0.0026
vn 0.9405 -0.3398 -0.0009
vn 0.9534 -0.3016 -0.0118
vn 0.9272 -0.1585 -0.3394
vn 0.9299 -0.3679 -0.0026
vn -0.0003 -0.0004 -1.0000
vn -0.0001 -0.0028 -1.0000
vn 0.0005 -0.0021 -1.0000
vn 0.0137 -0.0028 -0.9999
vn 0.0196 -0.0033 -0.9998
vn 0.0336 0.0052 -0.9994
vn 0.3790 -0.1935 -0.9049
vn -0.0009 0.0007 -1.0000
vn 0.0023 -0.0016 -1.0000
vn 0.0034 -0.0003 -1.0000
vn -0.0010 -0.0016 -1.0000
vn -0.1412 -0.3816 -0.9135
vn 0.0917 -0.1927 -0.9770
vn -0.0004 -0.0023 -1.0000
vn -0.0050 -0.0031 -1.0000
vn -0.1564 0.0055 -0.9877
vn -0.1469 -0.0106 -0.9891
vn -0.4336 -0.2943 -0.8517
vn -0.5446 0.0267 -0.8383
vn -0.6948 -0.2808 -0.6622
vn -0.8269 0.0194 -0.5619
vn -0.8421 -0.3754 -0.3873
vn -0.8017 -0.5972 -0.0243
vn -0.8045 -0.5935 -0.0227
vn -0.8949 -0.4364 -0.0929
vn -0.2648 -0.7652 -0.5869
vn -0.4356 -0.6179 -0.6546
vn -0.3081 -0.3870 -0.8691
vn -0.4589 -0.4880 -0.7425
vn -0.4288 -0.3746 -0.8221
vn -0.3356 -0.3176 -0.8869
vn -0.2835 -0.2153 -0.9345
vn -0.2590 -0.1893 -0.9471
vn -0.3415 -0.7052 -0.6213
vn -0.1930 -0.5353 -0.8223
vn -0.3242 -0.5247 -0.7871
vn -0.3062 -0.5437 -0.7814
vn 0.6426 -0.1662 -0.7480
vn 0.4806 -0.4044 -0.7781
vn 0.7426 -0.2678 -0.6139
vn 0.6118 -0.2458 -0.7518
vn 0.6946 -0.3188 -0.6449
vn 0.7066 -0.1523 -0.6911
vn 0.7045 -0.1877 -0.6844
vn 0.5016 -0.1125 -0.8578
vn 0.6216 -0.1825 -0.7618
vn 0.7019 -0.2453 -0.6687
vn 0.7010 -0.3245 -0.6350
vn 0.7354 -0.1138 -0.6680
vt 0.192291 0.846533
vt 0.191314 0.842333
vt 0.192241 0.842245
vt 0.191678 0.837586
vt 0.192065 0.834723
vt 0.192572 0.834813
vt 0.192402 0.836032
vt 0.191557 0.848013
vt 0.192499 0.848500
vt 0.192471 0.838306
vt 0.192767 0.836173
vt 0.284159 0.792773
vt 0.284190 0.789739
vt 0.284502 0.792563
vt 0.932166 0.901470
vt 0.930980 0.901570
vt 0.930395 0.901291
vt 0.284855 0.792519
vt 0.284586 0.789789
vt 0.284936 0.790275
vt 0.919179 0.899102
vt 0.916809 0.897881
vt 0.918377 0.898501
vt 0.916778 0.898288
vt 0.918849 0.899337
vt 0.916694 0.898614
vt 0.284044 0.801619
vt 0.284335 0.803698
vt 0.283911 0.803763
vt 0.283765 0.801511
vt 0.284857 0.802497
vt 0.284358 0.802460
vt 0.284857 0.803758
vt 0.284323 0.800540
vt 0.284697 0.800735
vt 0.285052 0.801016
vt 0.923050 0.900306
vt 0.924037 0.900213
vt 0.283842 0.797292
vt 0.284275 0.798363
vt 0.922923 0.900531
vt 0.284762 0.797540
vt 0.284071 0.797496
vt 0.285072 0.797617
vt 0.926126 0.900878
vt 0.926286 0.901151
vt 0.284101 0.795129
vt 0.283854 0.793872
vt 0.284554 0.795078
vt 0.284460 0.796627
vt 0.285139 0.794485
vt 0.283880 0.789175
vt 0.283834 0.790563
vt 0.928062 0.900738
vt 0.284254 0.787976
vt 0.285004 0.788009
vt 0.932168 0.901051
vt 0.283765 0.788021
vt 0.929591 0.901452
vt 0.285190 0.791221
vt 0.925511 0.204099
vt 0.923951 0.203047
vt 0.923890 0.200710
vt 0.930310 0.207301
vt 0.928705 0.205314
vt 0.930013 0.204102
vt 0.925316 0.200696
vt 0.922671 0.207257
vt 0.920746 0.207129
vt 0.921187 0.205309
vt 0.931420 0.205343
vt 0.931158 0.202283
vt 0.932360 0.202319
vt 0.930886 0.199041
vt 0.929664 0.199518
vt 0.929233 0.195014
vt 0.931896 0.196394
vt 0.930449 0.194841
vt 0.931760 0.194055
vt 0.925483 0.198185
vt 0.923994 0.198096
vt 0.923698 0.195823
vt 0.925074 0.194836
vt 0.927924 0.195014
vt 0.927054 0.191809
vt 0.928990 0.191766
vt 0.932594 0.204762
vt 0.921896 0.202286
vt 0.920836 0.198917
vt 0.922508 0.200414
vt 0.922279 0.197997
vt 0.922510 0.205443
vt 0.931748 0.191666
vt 0.926654 0.202458
vt 0.926971 0.199246
vt 0.925953 0.207324
vt 0.923955 0.205529
vt 0.931852 0.206789
vt 0.932422 0.205946
vt 0.386789 0.785071
vt 0.385111 0.784145
vt 0.385537 0.782083
vt 0.931996 0.198904
vt 0.385362 0.774237
vt 0.384266 0.771209
vt 0.386736 0.771341
vt 0.384269 0.774399
vt 0.928286 0.202391
vt 0.386774 0.772930
vt 0.387612 0.774348
vt 0.922157 0.194636
vt 0.920746 0.191592
vt 0.922743 0.191735
vt 0.928268 0.198996
vt 0.923480 0.193392
vt 0.384266 0.777660
vt 0.926472 0.194777
vt 0.387160 0.782027
vt 0.386687 0.775513
vt 0.924728 0.207337
vt 0.927085 0.204551
vt 0.386017 0.778708
vt 0.924763 0.191801
vt 0.921296 0.195757
vt 0.921063 0.193180
vt 0.927534 0.207297
vt 0.384494 0.780780
vt 0.385322 0.785629
vt 0.386777 0.786893
vt 0.385743 0.786867
vt 0.919651 0.891734
vt 0.916745 0.891010
vt 0.916766 0.888723
vt 0.916833 0.894560
vt 0.923715 0.894702
vt 0.916677 0.883126
vt 0.920159 0.884919
vt 0.916753 0.884617
vt 0.925713 0.889654
vt 0.926154 0.892185
vt 0.928492 0.897433
vt 0.932116 0.892185
vt 0.932145 0.897700
vt 0.923108 0.897396
vt 0.916745 0.886741
vt 0.928220 0.886863
vt 0.930793 0.886979
vt 0.930822 0.887493
vt 0.932105 0.887630
vt 0.916810 0.896093
vt 0.924917 0.886313
vt 0.921231 0.337638
vt 0.923014 0.338579
vt 0.918675 0.341513
vt 0.918444 0.349581
vt 0.919323 0.350404
vt 0.918047 0.351837
vt 0.918201 0.336958
vt 0.918370 0.338676
vt 0.922552 0.347419
vt 0.918733 0.345503
vt 0.926688 0.344307
vt 0.919122 0.336291
vt 0.918463 0.336406
vt 0.925545 0.339478
vt 0.928270 0.339981
vt 0.931214 0.341672
vt 0.930785 0.340036
vt 0.931504 0.339934
vt 0.932115 0.341058
vt 0.191589 0.849592
vt 0.192614 0.849364
vt 0.192767 0.850160
vt 0.932122 0.339701
vt 0.191587 0.848697
vt 0.932212 0.199283
vt 0.191618 0.837107
vt 0.191412 0.847813
vt 0.191245 0.845368
vt 0.191366 0.839444
vt 0.932663 0.205644
vt 0.932736 0.204960
vt 0.191457 0.848998
vt 0.932233 0.206539
vt 0.931722 0.339712
vt 0.930936 0.207343
vt 0.931641 0.207076
vt 0.924518 0.339033
vt 0.922412 0.338161
vt 0.920424 0.336996
vt 0.919402 0.336271
vt 0.599106 0.941957
vt 0.598946 0.942853
vt 0.598946 0.940159
vt 0.576958 0.942037
vt 0.576760 0.942962
vt 0.576760 0.940159
vt 0.569833 0.941984
vt 0.569681 0.941793
vt 0.569632 0.940159
vt 0.928431 0.207454
vt 0.569632 0.943084
vt 0.651066 0.940159
vt 0.651161 0.941629
vt 0.651066 0.942640
vt 0.916665 0.898056
vt 0.918158 0.336717
vt 0.284576 0.803809
vt 0.918871 0.336171
vt 0.638299 0.940159
vt 0.638434 0.941495
vt 0.638299 0.942283
vt 0.916715 0.893880
vt 0.918615 0.343986
vt 0.918539 0.341125
vt 0.596074 0.942649
vt 0.596184 0.940159
vt 0.596184 0.944159
vt 0.916630 0.889500
vt 0.916630 0.885403
vt 0.918047 0.337118
vt 0.916665 0.896337
vt 0.628562 0.942436
vt 0.628562 0.940159
vt 0.628711 0.941673
s 1
f 16/1/1 15/2/2 14/3/3
f 17/4/4 4/5/5 18/6/6
f 19/7/7 17/4/4 18/6/6
f 16/1/1 20/8/8 15/2/2
f 31/9/9 20/8/8 16/1/1
f 21/10/10 19/7/7 22/11/11
f 21/10/10 17/4/4 19/7/7
f 21/10/10 15/2/2 17/4/4
f 14/3/3 15/2/2 21/10/10
f 68/12/12 59/13/13 52/14/14
f 8/15/15 34/16/16 56/17/17
f 53/18/18 33/19/19 43/20/20
f 53/18/18 52/14/14 33/19/19
f 36/21/21 49/22/22 35/23/23
f 51/24/24 49/22/22 36/21/21
f 60/25/25 147/26/26 51/24/24
f 54/27/27 55/28/28 147/29/26
f 54/27/27 147/29/26 60/30/25
f 41/31/29 55/28/28 58/32/30
f 58/32/30 55/28/28 54/27/27
f 41/31/29 42/33/31 55/28/28
f 63/34/32 58/32/30 54/27/27
f 32/35/33 58/32/30 63/34/32
f 62/36/34 41/31/29 32/35/33
f 60/25/25 36/21/21 38/37/35
f 47/38/36 36/21/21 35/23/23
f 54/27/27 60/30/25 45/39/37
f 38/37/35 36/21/21 47/38/36
f 63/34/32 54/27/27 64/40/38
f 45/41/37 60/25/25 38/37/35
f 44/42/39 32/35/33 63/34/32
f 46/43/40 54/27/27 45/39/37
f 64/40/38 54/27/27 46/43/40
f 65/44/41 62/36/34 32/35/33
f 44/42/39 63/34/32 64/40/38
f 65/44/41 32/35/33 44/42/39
f 40/45/42 38/37/35 47/38/36
f 66/46/43 38/37/35 40/45/42
f 66/46/43 45/41/37 38/37/35
f 67/47/44 46/43/40 45/39/37
f 67/47/44 45/39/37 66/48/43
f 59/13/13 33/19/19 52/14/14
f 48/49/45 37/50/46 46/43/40
f 48/49/45 46/43/40 67/47/44
f 48/49/45 44/42/39 37/50/46
f 50/51/47 44/42/39 48/49/45
f 34/52/16 59/13/13 57/53/48
f 40/45/42 47/38/36 39/54/49
f 50/51/47 65/44/41 44/42/39
f 68/12/12 67/47/44 66/48/43
f 33/19/19 6/55/50 11/56/51
f 68/12/12 48/49/45 67/47/44
f 50/51/47 48/49/45 53/18/18
f 52/14/14 48/49/45 68/12/12
f 53/18/18 48/49/45 52/14/14
f 46/43/40 37/50/46 64/40/38
f 39/54/49 10/57/52 56/17/17
f 8/58/15 6/55/50 34/52/16
f 43/20/20 33/19/19 11/56/51
f 44/42/39 64/40/38 37/50/46
f 68/12/12 66/48/43 57/53/48
f 68/12/12 57/53/48 59/13/13
f 56/17/17 34/16/16 57/59/48
f 53/18/18 61/60/53 50/51/47
f 53/18/18 43/20/20 61/60/53
f 59/13/13 6/55/50 33/19/19
f 40/45/42 57/59/48 66/46/43
f 40/45/42 56/17/17 57/59/48
f 61/60/53 43/20/20 11/56/51
f 8/15/15 56/17/17 10/57/52
f 60/25/25 51/24/24 36/21/21
f 6/55/50 59/13/13 34/52/16
f 58/32/30 32/35/33 41/31/29
f 39/54/49 56/17/17 40/45/42
f 85/61/54 71/62/55 86/63/56
f 80/64/57 87/65/58 70/66/59
f 85/61/54 86/63/56 84/67/60
f 89/68/61 90/69/62 92/70/63
f 75/71/64 116/72/65 91/73/66
f 97/74/67 98/75/68 102/76/69
f 75/71/64 80/64/57 70/66/59
f 94/77/70 77/78/71 78/79/72
f 101/80/73 69/81/74 114/82/75
f 101/80/73 114/82/75 88/83/76
f 102/76/69 72/84/77 12/85/78
f 102/76/69 12/85/78 7/86/79
f 100/87/80 75/71/64 91/73/66
f 82/88/81 83/89/82 79/90/83
f 86/63/56 115/91/84 69/81/74
f 86/63/56 79/90/83 115/91/84
f 89/68/61 92/70/63 73/92/85
f 97/74/67 102/76/69 77/78/71
f 77/78/71 7/86/79 4/93/86
f 99/94/87 84/67/60 81/95/88
f 103/96/89 93/97/90 71/62/55
f 75/71/64 104/98/91 80/64/57
f 75/71/64 145/99/92 104/98/91
f 145/99/92 75/71/64 100/87/80
f 92/100/63 62/101/34 96/102/93
f 99/94/87 85/61/54 84/67/60
f 105/103/94 97/74/67 77/78/71
f 106/104/95 11/105/51 13/106/96
f 106/104/95 61/107/53 11/105/51
f 107/108/97 99/94/87 81/95/88
f 108/109/98 106/104/95 13/106/96
f 105/103/94 77/78/71 94/77/70
f 85/61/54 103/96/89 71/62/55
f 109/110/99 108/109/98 13/106/96
f 109/111/99 13/112/96 2/113/100
f 89/68/61 73/92/85 93/97/90
f 77/78/71 102/76/69 7/86/79
f 107/108/97 81/95/88 95/114/101
f 110/115/102 109/111/99 2/113/100
f 106/104/95 50/116/47 61/107/53
f 81/95/88 88/83/76 76/117/103
f 81/95/88 101/80/73 88/83/76
f 92/100/63 96/102/93 82/118/81
f 111/119/104 106/104/95 108/109/98
f 112/120/105 89/68/61 93/97/90
f 84/67/60 86/63/56 69/81/74
f 113/121/106 85/61/54 99/94/87
f 83/122/82 50/116/47 106/104/95
f 110/115/102 2/113/100 1/123/107
f 78/79/72 77/78/71 4/93/86
f 109/111/99 111/124/104 108/125/98
f 98/75/68 107/108/97 95/114/101
f 88/83/76 110/115/102 1/123/107
f 83/122/82 106/104/95 111/119/104
f 74/126/108 85/61/54 113/121/106
f 114/82/75 109/111/99 110/115/102
f 113/121/106 99/94/87 107/108/97
f 73/92/85 92/70/63 82/88/81
f 112/120/105 93/97/90 103/96/89
f 71/62/55 82/88/81 79/90/83
f 84/67/60 69/81/74 101/80/73
f 115/91/84 83/89/82 111/124/104
f 70/66/59 107/108/97 98/75/68
f 116/72/65 98/75/68 97/74/67
f 83/122/82 65/127/41 50/116/47
f 74/126/108 103/96/89 85/61/54
f 41/128/29 90/129/62 42/130/31
f 76/117/103 1/123/107 12/85/78
f 87/65/58 113/121/106 107/108/97
f 97/74/67 105/103/94 91/73/66
f 115/91/84 111/124/104 109/111/99
f 87/65/58 74/126/108 113/121/106
f 76/117/103 88/83/76 1/123/107
f 95/114/101 81/95/88 76/117/103
f 95/114/101 76/117/103 72/84/77
f 116/72/65 97/74/67 91/73/66
f 92/100/63 41/128/29 62/101/34
f 116/72/65 70/66/59 98/75/68
f 88/83/76 114/82/75 110/115/102
f 70/66/59 87/65/58 107/108/97
f 69/81/74 109/111/99 114/82/75
f 69/81/74 115/91/84 109/111/99
f 71/62/55 79/90/83 86/63/56
f 96/102/93 65/127/41 83/122/82
f 79/90/83 83/89/82 115/91/84
f 81/95/88 84/67/60 101/80/73
f 93/97/90 73/92/85 82/88/81
f 93/97/90 82/88/81 71/62/55
f 72/84/77 76/117/103 12/85/78
f 96/102/93 62/101/34 65/127/41
f 90/129/62 41/128/29 92/100/63
f 75/71/64 70/66/59 116/72/65
f 82/118/81 96/102/93 83/122/82
f 80/64/57 74/126/108 87/65/58
f 98/75/68 95/114/101 72/84/77
f 98/75/68 72/84/77 102/76/69
f 129/131/109 119/132/110 118/133/111
f 122/134/112 129/131/109 117/135/113
f 128/136/114 30/137/115 121/138/116
f 129/131/109 126/139/117 127/140/118
f 120/141/119 5/142/120 3/143/121
f 122/134/112 117/135/113 125/144/122
f 122/134/112 119/132/110 129/131/109
f 35/23/23 122/134/112 125/144/122
f 125/144/122 47/38/36 35/23/23
f 39/54/49 120/141/119 3/143/121
f 39/54/49 3/143/121 10/57/52
f 117/135/113 127/140/118 5/142/120
f 118/133/111 124/145/123 126/139/117
f 125/144/122 117/135/113 120/141/119
f 27/146/124 28/147/125 130/148/126
f 126/139/117 130/148/126 9/149/127
f 120/141/119 117/135/113 5/142/120
f 131/150/128 122/134/112 35/23/23
f 124/145/123 27/146/124 130/148/126
f 117/135/113 129/131/109 127/140/118
f 118/133/111 126/139/117 129/131/109
f 124/145/123 30/137/115 123/151/129
f 49/22/22 131/150/128 35/23/23
f 124/145/123 130/148/126 126/139/117
f 47/38/36 120/141/119 39/54/49
f 47/38/36 125/144/122 120/141/119
f 124/145/123 123/151/129 27/146/124
f 126/139/117 9/149/127 5/142/120
f 124/145/123 121/138/116 30/137/115
f 127/140/118 126/139/117 5/142/120
f 132/152/130 133/153/131 134/154/132
f 135/155/133 136/156/134 128/157/135
f 137/158/136 132/152/130 149/159/137
f 135/155/133 29/160/138 136/156/134
f 135/155/133 138/161/139 29/160/138
f 138/161/139 134/154/132 29/160/138
f 134/154/132 133/153/131 26/162/140
f 137/158/136 139/163/141 132/152/130
f 134/154/132 26/162/140 29/160/138
f 147/164/142 139/163/141 137/158/136
f 133/153/131 140/165/143 26/162/140
f 140/165/143 141/166/144 26/162/140
f 26/162/140 141/166/144 24/167/145
f 24/167/145 141/166/144 146/168/146
f 149/159/137 132/152/130 134/154/132
f 143/169/147 24/167/145 146/168/146
f 143/169/147 25/170/148 24/167/145
f 144/171/149 23/172/150 25/173/148
f 144/174/149 25/170/148 143/169/147
f 142/175/151 23/172/150 144/171/149
f 142/175/151 31/9/9 23/172/150
f 20/8/8 31/9/9 142/175/151
f 94/77/70 15/176/2 105/103/94
f 17/4/4 78/177/152 4/5/153
f 20/8/8 100/178/80 91/179/154
f 94/180/70 17/4/4 15/2/2
f 17/4/4 94/180/70 78/177/152
f 15/2/2 20/8/8 91/179/154
f 15/176/2 91/73/66 105/103/94
f 142/181/151 100/87/80 20/182/8
f 145/99/92 100/87/80 142/181/151
f 145/183/92 142/175/151 144/171/149
f 104/98/91 145/99/92 144/184/149
f 143/169/147 104/185/91 144/174/149
f 146/186/155 104/98/91 143/187/147
f 80/64/57 104/98/91 146/186/155
f 112/188/156 133/153/157 89/189/158
f 90/190/159 132/152/160 139/163/161
f 90/190/159 139/163/161 42/191/162
f 74/192/163 141/193/164 140/194/165
f 141/195/164 74/196/163 80/197/57
f 89/189/158 132/152/160 90/190/159
f 140/198/165 103/199/166 74/200/163
f 80/64/57 146/186/155 141/201/164
f 89/189/158 133/153/157 132/152/160
f 112/202/156 103/199/166 140/198/165
f 133/203/157 112/204/156 140/205/165
f 49/22/167 51/24/168 137/206/136
f 51/207/168 147/164/142 137/158/136
f 55/28/28 42/33/31 139/208/141
f 55/209/28 139/163/141 147/164/142
f 124/210/169 135/211/170 121/212/171
f 148/213/172 119/132/173 122/134/112
f 119/214/173 148/215/172 134/154/174
f 119/216/173 134/217/174 138/218/175
f 124/145/169 118/133/176 138/219/175
f 124/145/169 138/219/175 135/220/170
f 128/136/177 121/138/171 135/220/170
f 49/221/167 137/158/136 149/159/178
f 131/150/128 49/22/167 149/222/178
f 131/150/128 149/222/178 148/213/172
f 134/154/174 148/215/172 149/159/178
f 148/213/172 122/134/112 131/150/128
f 118/223/176 119/224/173 138/225/175
