# Blender 4.5.10 LTS
# www.blender.org
o link0_5
v -0.060297 0.057824 0.045924
v -0.061257 0.057663 0.045700
v -0.060660 0.057739 0.047751
v -0.059203 0.058001 0.046843
v -0.058787 0.058048 0.045700
v -0.059128 0.058049 0.048701
v -0.059685 0.057927 0.047847
v -0.071377 0.056059 0.034697
v -0.071609 0.056016 0.037624
v -0.070943 0.056126 0.040992
v -0.050213 0.059497 0.030720
v -0.053407 0.058994 0.027424
v -0.056730 0.058492 0.027300
v -0.056702 0.058316 0.028856
v -0.063347 0.057421 0.027300
v -0.063318 0.057244 0.028856
v -0.067898 0.056621 0.028313
v -0.052727 0.059133 0.045239
v -0.066675 0.056845 0.046564
v -0.069374 0.056390 0.043925
v -0.060720 0.057802 0.025290
v -0.048862 0.059495 0.033143
v -0.048576 0.059739 0.038817
v -0.067351 0.056764 0.045237
v -0.052651 0.058854 0.027636
v -0.056745 0.058418 0.025697
v -0.058457 0.057912 0.025220
v -0.064178 0.057216 0.026011
v -0.064975 0.056866 0.026092
v -0.070425 0.056227 0.031848
v -0.069535 0.056118 0.030161
v -0.071414 0.055816 0.034087
v -0.048474 0.059775 0.036261
v -0.048288 0.059560 0.035916
v -0.067329 0.056477 0.046367
v -0.063620 0.057321 0.048167
v -0.061358 0.057442 0.048780
v -0.055874 0.058365 0.048180
v -0.052831 0.058821 0.046421
v -0.052137 0.059164 0.045699
v -0.049481 0.059603 0.041900
v -0.071283 0.055838 0.040618
v -0.049478 0.059361 0.042473
v -0.067269 0.056715 0.028799
v -0.052792 0.059058 0.028798
vn -0.1555 0.9835 0.0924
vn -0.1584 0.9869 -0.0307
vn -0.1596 0.9870 -0.0186
vn -0.1659 0.9861 -0.0115
vn -0.1404 0.9898 -0.0243
vn -0.1877 0.9821 -0.0178
vn -0.1445 0.9788 0.1455
vn -0.1892 0.9814 0.0337
vn -0.1733 0.9849 0.0003
vn -0.1746 0.9846 0.0009
vn -0.1794 0.9838 0.0039
vn -0.1891 0.9814 0.0327
vn -0.1359 0.9907 0.0043
vn -0.1765 0.9836 0.0376
vn -0.1536 0.9881 0.0073
vn -0.1540 0.9873 -0.0401
vn -0.1610 0.9824 0.0948
vn -0.2954 0.9544 0.0434
vn -0.1557 0.9877 -0.0163
vn -0.1831 0.9831 0.0088
vn -0.1889 0.9810 0.0441
vn -0.1438 0.9896 0.0055
vn -0.1418 0.9898 -0.0105
vn -0.1389 0.9860 0.0920
vn -0.1247 0.9892 0.0771
vn -0.1382 0.9904 0.0050
vn -0.1592 0.9872 -0.0025
vn -0.1442 0.9886 0.0430
vn -0.1478 0.9890 -0.0110
vn -0.1553 0.9878 0.0137
vn -0.1917 0.9813 0.0158
vn -0.0701 0.9975 0.0074
vn -0.2427 0.9690 -0.0457
vn -0.1322 0.9912 0.0081
vn 0.3185 0.5234 -0.7903
vn -0.2483 0.3569 -0.9006
vn -0.3987 0.8070 -0.4356
vn -0.6341 0.6745 -0.3781
vn 0.6262 -0.6969 -0.3497
vn -0.7401 0.6390 -0.2096
vn -0.7722 0.6050 -0.1942
vn -0.9200 0.3800 -0.0956
vn -0.5774 -0.8164 0.0143
vn 0.3763 -0.6652 -0.6449
vn -0.0572 0.7804 -0.6226
vn 0.0101 -0.6768 -0.7361
vn 0.2739 0.8751 -0.3990
vn -0.3064 -0.8143 -0.4930
vn -0.8528 -0.2950 -0.4309
vn -0.9448 0.3201 -0.0702
vn 0.6198 0.7710 -0.1464
vn 0.7548 0.6560 -0.0019
vn 0.6576 0.7453 -0.1099
vn -0.4912 0.4861 0.7228
vn -0.5361 0.7003 0.4715
vn -0.4717 0.4245 0.7729
vn 0.2197 0.7824 0.5828
vn 0.4321 0.8316 0.3489
vn 0.6955 0.6632 0.2764
vn 0.3726 0.8556 0.3594
vn -0.4170 -0.8263 0.3786
vn 0.7410 -0.6617 0.1144
vn 0.7866 0.6162 0.0401
vn -0.1283 -0.7698 0.6253
vn 0.1836 -0.5702 0.8007
vn -0.8062 0.4436 0.3914
vn -0.7964 0.5016 0.3378
vn -0.7358 0.6574 0.1627
vn -0.5378 0.7285 0.4244
vn 0.7546 -0.2497 0.6067
vn -0.1970 0.7980 0.5695
vn 0.7599 0.6003 0.2495
vn -0.7146 0.6894 0.1188
vt 0.519944 0.136919
vt 0.518635 0.135755
vt 0.520119 0.136119
vt 0.519826 0.134976
vt 0.518478 0.134265
vt 0.518911 0.134986
vt 0.520819 0.135067
vt 0.518132 0.141646
vt 0.524512 0.148365
vt 0.522260 0.147515
vt 0.520000 0.145836
vt 0.535474 0.136480
vt 0.534966 0.133868
vt 0.536276 0.137418
vt 0.535192 0.139952
vt 0.536370 0.140533
vt 0.534037 0.139408
vt 0.532846 0.144919
vt 0.535264 0.143657
vt 0.533502 0.146003
vt 0.531691 0.144375
vt 0.530477 0.147989
vt 0.530339 0.147348
vt 0.523317 0.130666
vt 0.523181 0.130070
vt 0.526939 0.129405
vt 0.526962 0.148647
vt 0.520004 0.132031
vt 0.517281 0.137824
vt 0.517387 0.140677
vt 0.518384 0.143629
vt 0.533635 0.132033
vt 0.531476 0.130622
vt 0.529544 0.129806
vt 0.536370 0.136809
vt 0.639889 0.940159
vt 0.640015 0.940507
vt 0.639889 0.942320
vt 0.533144 0.146601
vt 0.528511 0.148601
vt 0.363269 0.942411
vt 0.363573 0.940159
vt 0.363573 0.945661
vt 0.524935 0.148636
vt 0.477909 0.942286
vt 0.477692 0.944943
vt 0.477692 0.940159
vt 0.430160 0.943636
vt 0.430417 0.940159
vt 0.430417 0.945059
vt 0.536101 0.142014
vt 0.466373 0.941635
vt 0.466610 0.940159
vt 0.466610 0.944771
vt 0.477692 0.942118
vt 0.477469 0.944821
vt 0.477469 0.940159
vt 0.545157 0.942183
vt 0.544950 0.943735
vt 0.544950 0.940159
vt 0.477872 0.944533
vt 0.531781 0.130634
vt 0.517283 0.141269
vt 0.522385 0.130367
vt 0.526499 0.129232
vt 0.393875 0.942306
vt 0.393580 0.944951
vt 0.393580 0.940159
vt 0.390443 0.943016
vt 0.390728 0.940159
vt 0.390728 0.945175
vt 0.374983 0.942027
vt 0.374689 0.945395
vt 0.374689 0.940159
vt 0.475586 0.942831
vt 0.475356 0.944682
vt 0.475356 0.940159
vt 0.520142 0.146251
vt 0.578386 0.940757
vt 0.578546 0.940159
vt 0.578546 0.943558
vt 0.517613 0.135942
s 1
f 2/1/1 3/2/2 1/3/3
f 3/2/2 4/4/4 1/3/3
f 3/2/2 6/5/5 7/6/6
f 7/6/6 6/5/5 4/4/4
f 4/4/4 6/5/5 5/7/7
f 1/3/3 5/7/7 2/1/1
f 4/4/4 5/7/7 1/3/3
f 3/2/2 7/6/6 4/4/4
f 24/8/8 8/9/9 9/10/10
f 24/8/8 9/10/10 10/11/11
f 45/12/12 11/13/13 12/14/14
f 13/15/15 12/14/14 26/16/16
f 14/17/17 12/14/14 13/15/15
f 14/17/17 45/12/12 12/14/14
f 15/18/18 21/19/19 28/20/20
f 28/20/20 16/21/21 15/18/18
f 17/22/22 16/21/21 28/20/20
f 44/23/23 16/21/21 17/22/22
f 18/24/24 40/25/25 41/26/26
f 30/27/27 44/23/23 17/22/22
f 5/7/7 40/25/25 18/24/24
f 5/7/7 38/28/28 40/25/25
f 6/5/5 38/28/28 5/7/7
f 36/29/29 6/5/5 3/2/2
f 36/29/29 3/2/2 2/1/1
f 19/30/30 36/29/29 2/1/1
f 19/30/30 2/1/1 24/8/8
f 20/31/31 24/8/8 10/11/11
f 20/31/31 19/30/30 24/8/8
f 15/18/18 13/15/15 26/16/16
f 15/18/18 26/16/16 21/19/19
f 45/12/12 18/24/24 11/13/13
f 11/13/13 18/24/24 22/32/32
f 22/32/32 18/24/24 33/33/33
f 33/33/33 18/24/24 23/34/34
f 23/34/34 18/24/24 41/26/26
f 18/24/24 24/8/8 2/1/1
f 18/24/24 2/1/1 5/7/7
f 24/8/8 44/23/23 30/27/27
f 24/8/8 30/27/27 8/9/9
f 12/14/35 25/35/35 26/16/35
f 29/36/36 28/37/36 21/38/36
f 17/22/37 28/20/37 29/39/37
f 31/40/38 30/27/38 17/22/38
f 11/41/39 22/42/39 25/43/39
f 30/27/40 32/44/41 8/9/42
f 9/45/43 32/46/43 42/47/43
f 26/48/44 25/49/44 27/50/44
f 27/51/45 21/19/45 26/16/45
f 21/52/46 27/53/46 29/54/46
f 25/35/47 12/14/47 11/13/47
f 17/55/48 29/56/48 31/57/48
f 30/58/49 31/59/49 32/60/49
f 32/46/41 9/45/50 8/61/42
f 22/32/51 33/33/52 34/62/53
f 19/30/54 35/63/55 36/29/56
f 40/25/57 38/28/57 39/64/57
f 43/65/58 41/26/59 40/25/60
f 20/66/61 42/67/61 35/68/61
f 23/69/62 43/70/62 34/71/62
f 33/33/52 23/34/63 34/62/53
f 36/72/64 35/73/64 37/74/64
f 6/75/65 37/76/65 38/77/65
f 20/31/66 10/11/67 42/78/68
f 35/63/55 19/30/54 20/31/69
f 40/79/70 39/80/70 43/81/70
f 37/82/71 6/5/71 36/29/71
f 41/26/59 43/65/58 23/34/72
f 10/11/67 9/10/73 42/78/68
