# Blender 4.5.10 LTS
# www.blender.org
o link3_1
v 0.017142 0.000497 -0.008844
v 0.019210 0.000500 -0.007335
v 0.025617 0.000500 -0.007918
v 0.009001 0.000500 -0.012024
v 0.026941 0.000500 -0.014546
v 0.024521 0.000501 -0.002225
v 0.012249 0.000500 -0.011123
v 0.028322 0.000500 -0.018987
v 0.025105 0.000499 -0.002827
v 0.023252 0.000499 -0.002341
v 0.014487 0.000500 -0.010300
v 0.021233 0.000500 -0.005234
v 0.008998 -0.010976 -0.014148
v 0.009007 -0.009600 -0.012811
v 0.009010 -0.004297 -0.012202
v 0.009000 0.000500 -0.012654
v 0.009001 -0.001012 -0.012706
v 0.009010 -0.015714 -0.014140
v 0.008998 -0.003994 -0.013295
v 0.009001 -0.001100 -0.013169
v 0.009462 -0.017006 -0.015726
v 0.011500 -0.018374 -0.016523
v 0.010251 -0.017860 -0.016131
v 0.018039 -0.018400 -0.018250
v 0.028640 -0.003739 -0.019865
v 0.028598 -0.001100 -0.019738
v 0.023579 -0.018398 -0.020435
v 0.029519 -0.014079 -0.022117
v 0.009040 -0.016028 -0.015379
v 0.024102 -0.002360 -0.002255
v 0.023665 -0.002083 -0.002246
v 0.023564 -0.014837 -0.004710
v 0.024692 -0.000981 -0.002421
v 0.025265 -0.015742 -0.005887
v 0.025024 -0.014417 -0.005042
v 0.023737 -0.009111 -0.003133
v 0.025001 -0.004980 -0.003339
v 0.024863 -0.004211 -0.002930
v 0.023484 -0.016896 -0.005596
v 0.023214 -0.002750 -0.002469
v 0.023388 -0.008991 -0.003196
v 0.024512 -0.011476 -0.003825
v 0.023074 -0.011020 -0.003868
v 0.023009 -0.008042 -0.003271
v 0.024881 -0.008636 -0.003617
v 0.024774 -0.010360 -0.003816
v 0.024313 -0.010310 -0.003468
v 0.025453 -0.018257 -0.006881
v 0.025188 -0.018239 -0.006379
v 0.023765 -0.005370 -0.002533
v 0.023345 -0.005027 -0.002605
v 0.024167 -0.018293 -0.005983
v 0.024577 -0.003180 -0.002525
v 0.024059 -0.016863 -0.005375
v 0.024796 -0.015715 -0.005167
v 0.022963 -0.004267 -0.002792
v 0.024410 -0.015888 -0.005021
v 0.024083 -0.001355 -0.002195
v 0.023146 -0.014517 -0.004898
v 0.023941 0.000499 -0.002121
v 0.024007 -0.014634 -0.004559
v 0.024002 -0.012068 -0.003814
v 0.023545 -0.012085 -0.003877
v 0.024398 -0.007881 -0.003026
v 0.025055 -0.011255 -0.004569
v 0.024185 -0.005193 -0.002559
v 0.009119 -0.012539 -0.013236
v 0.018264 -0.008434 -0.008620
v 0.010516 -0.013282 -0.013110
v 0.011968 -0.013853 -0.012870
v 0.018137 -0.012425 -0.009515
v 0.013680 -0.003464 -0.010698
v 0.020115 -0.014936 -0.008614
v 0.015307 -0.003173 -0.009948
v 0.010681 -0.003163 -0.011642
v 0.013182 -0.018287 -0.013855
v 0.015435 -0.018235 -0.012931
v 0.009115 -0.002459 -0.011983
v 0.020069 -0.008493 -0.007044
v 0.020655 -0.016996 -0.008887
v 0.015112 -0.008473 -0.010570
v 0.021861 -0.012491 -0.005971
v 0.021560 -0.008547 -0.005387
v 0.016653 -0.008513 -0.009726
v 0.010332 -0.017806 -0.014429
v 0.017206 -0.004601 -0.008962
v 0.021494 -0.018248 -0.008653
v 0.022633 -0.018293 -0.007449
v 0.013638 -0.016834 -0.013193
v 0.018191 -0.015008 -0.010192
v 0.009119 -0.005132 -0.012147
v 0.013651 -0.008505 -0.011224
v 0.012012 -0.008702 -0.011830
v 0.022121 -0.015061 -0.006519
v 0.016511 -0.012477 -0.010590
v 0.009219 -0.016213 -0.014127
v 0.012168 -0.003447 -0.011237
v 0.018979 -0.016975 -0.010300
v 0.019898 -0.012501 -0.008078
v 0.010275 -0.008312 -0.012245
v 0.019769 -0.018283 -0.010262
v 0.014344 -0.012410 -0.011695
v 0.022194 -0.003286 -0.003905
v 0.020588 -0.001726 -0.005950
v 0.016063 -0.015969 -0.011810
v 0.018508 -0.001521 -0.007884
v 0.020891 -0.004618 -0.005708
v 0.009117 -0.008131 -0.012476
v 0.017172 -0.016953 -0.011514
v 0.017571 -0.018296 -0.011829
v 0.014372 -0.014930 -0.012324
v 0.019265 -0.004565 -0.007368
v 0.025308 -0.005346 -0.006638
v 0.026202 -0.014631 -0.011866
v 0.029491 -0.018189 -0.022071
v 0.028881 -0.008272 -0.020520
v 0.028572 -0.018245 -0.019787
v 0.025567 -0.015077 -0.008364
v 0.026530 -0.007772 -0.013320
v 0.027077 -0.012786 -0.015372
v 0.026548 -0.018225 -0.013025
v 0.027127 -0.018264 -0.015341
v 0.030404 -0.018195 -0.024144
v 0.025804 -0.006392 -0.009907
v 0.025865 -0.018198 -0.009592
v 0.028326 -0.000941 -0.019006
v 0.027800 -0.018214 -0.017500
v 0.025735 -0.018376 -0.009732
v 0.021866 -0.018374 -0.008496
v 0.020310 -0.018387 -0.010015
v 0.029273 -0.018363 -0.021875
v 0.028367 -0.018397 -0.022888
v 0.030251 -0.018368 -0.024117
v 0.025139 -0.018391 -0.006601
v 0.026522 -0.018383 -0.013612
v 0.027373 -0.018379 -0.016680
v 0.023710 -0.018368 -0.006218
v 0.017604 -0.018376 -0.011957
v 0.014132 -0.018373 -0.013657
v 0.011485 -0.018329 -0.014386
v 0.010585 -0.018063 -0.014591
v 0.009808 -0.017467 -0.014562
v 0.009230 -0.016604 -0.014418
v 0.009680 -0.017124 -0.014319
v 0.024723 -0.018346 -0.006122
v 0.028425 -0.001091 -0.019270
vn -0.9999 -0.0012 0.0101
vn -1.0000 -0.0019 0.0016
vn -1.0000 -0.0019 0.0023
vn -1.0000 -0.0005 0.0081
vn -1.0000 -0.0021 0.0066
vn -0.8897 -0.1735 0.4223
vn -0.8896 -0.0770 0.4502
vn -0.9743 -0.2247 -0.0172
vn -0.9999 -0.0011 0.0101
vn -1.0000 0.0010 -0.0002
vn 0.4650 -0.0256 0.8849
vn 0.6117 -0.0594 0.7888
vn 0.9089 -0.0266 0.4162
vn -0.4281 -0.1072 0.8974
vn -0.2149 -0.0534 0.9752
vn -0.5652 -0.0457 0.8237
vn -0.4087 -0.1773 0.8953
vn -0.6754 -0.1230 0.7272
vn -0.6553 -0.1895 0.7312
vn 0.8376 -0.0919 0.5385
vn 0.7197 -0.1370 0.6806
vn 0.8149 -0.1331 0.5641
vn 0.5066 -0.2068 0.8370
vn 0.9613 -0.0383 0.2727
vn 0.9616 -0.0364 0.2722
vn 0.7467 -0.2087 0.6316
vn 0.5954 -0.2398 0.7668
vn 0.3765 -0.3435 0.8604
vn 0.2454 -0.3220 0.9144
vn -0.0871 -0.4086 0.9085
vn -0.7193 -0.0624 0.6919
vn -0.5520 -0.3510 0.7563
vn -0.0982 -0.3845 0.9179
vn -0.5708 -0.3976 0.7184
vn 0.1655 -0.0510 0.9849
vn 0.1896 -0.0747 0.9790
vn 0.0164 -0.2973 0.9547
vn -0.3774 -0.3120 0.8719
vn -0.6818 -0.2482 0.6881
vn 0.9794 -0.0174 0.2012
vn 0.0926 -0.2574 0.9619
vn -0.3352 -0.2551 0.9070
vn 0.3612 -0.1909 0.9128
vn -0.0759 -0.1362 0.9878
vn 0.3013 -0.1198 0.9460
vn 0.4392 -0.1436 0.8868
vn 0.5596 -0.0815 0.8247
vn 0.8058 -0.0800 0.5868
vn -0.0388 -0.1920 0.9806
vn 0.9634 -0.0418 0.2647
vn -0.0616 -0.0217 0.9979
vn -0.5917 -0.0120 0.8061
vn -0.4283 -0.5911 0.6835
vn -0.3293 -0.2885 0.8991
vn -0.2847 -0.2314 0.9303
vn -0.5615 -0.2484 0.7893
vn -0.6719 -0.1878 0.7165
vn -0.5832 -0.1901 0.7898
vn -0.6599 -0.2446 0.7105
vn -0.7440 -0.2459 0.6213
vn -0.7591 -0.1814 0.6252
vn -0.2031 -0.0917 0.9749
vn -0.2502 -0.0502 0.9669
vn -0.2206 -0.0185 0.9752
vn -0.2198 -0.2187 0.9507
vn -0.5157 -0.1276 0.8472
vn -0.6086 -0.1167 0.7849
vn -0.5526 -0.0628 0.8311
vn -0.3042 -0.0607 0.9507
vn -0.3708 -0.0584 0.9269
vn -0.4133 -0.0201 0.9104
vn -0.3070 -0.0211 0.9515
vn -0.5416 -0.3394 0.7691
vn -0.5883 -0.1657 0.7915
vn -0.5754 -0.2990 0.7613
vn -0.6520 -0.2982 0.6971
vn -0.7763 -0.1107 0.6205
vn -0.7005 -0.1108 0.7050
vn -0.2510 -0.5149 0.8197
vn -0.2340 -0.1365 0.9626
vn -0.2926 -0.1452 0.9451
vn -0.2525 -0.0149 0.9675
vn -0.2588 -0.5075 0.8219
vn -0.3966 -0.1951 0.8970
vn -0.4460 -0.1288 0.8857
vn -0.4943 -0.1981 0.8464
vn -0.5062 -0.5696 0.6476
vn -0.5885 -0.5455 0.5967
vn -0.1056 -0.2560 0.9609
vn -0.8135 -0.0249 0.5810
vn -0.7739 -0.0020 0.6333
vn -0.7368 -0.0061 0.6761
vn -0.6589 0.0039 0.7522
vn -0.4529 -0.2709 0.8494
vn -0.3661 -0.1362 0.9206
vn -0.6321 -0.0147 0.7748
vn -0.4535 -0.0447 0.8901
vn -0.7532 -0.0586 0.6552
vn -0.5579 -0.1074 0.8230
vn -0.4932 -0.3055 0.8145
vn -0.5380 -0.0221 0.8426
vn -0.3802 -0.2500 0.8905
vn -0.6650 -0.0570 0.7447
vn -0.4931 -0.3286 0.8055
vn -0.6455 -0.5231 0.5566
vn -0.4034 -0.3098 0.8610
vn 0.9741 0.0193 0.2252
vn 0.9628 0.0103 0.2701
vn 0.9591 0.0030 0.2832
vn 0.9772 0.0130 0.2122
vn 0.9832 -0.0108 0.1821
vn 0.9672 -0.0156 0.2536
vn 0.9885 -0.0284 0.1484
vn 0.9152 -0.0017 0.4031
vn 0.9255 -0.0014 0.3788
vn 0.9217 -0.0019 0.3880
vn 0.9883 0.0192 0.1514
vn 0.9850 0.0277 0.1703
vn 0.9922 -0.0145 0.1240
vn 0.9706 -0.0067 0.2405
vn 0.9364 -0.0025 0.3508
vn 0.9380 -0.0018 0.3468
vn 0.9365 -0.0027 0.3506
vn 0.9496 -0.0045 0.3136
vn 0.9502 0.0044 0.3115
vn 0.9377 -0.0010 0.3473
vn 0.9323 -0.0023 0.3618
vn 0.9549 -0.0013 0.2969
vn -0.2259 -0.9518 0.2073
vn -0.1635 -0.9706 0.1765
vn 0.4045 -0.9116 0.0732
vn 0.0142 -0.9998 0.0120
vn 0.0170 -0.9997 0.0183
vn 0.0235 -0.9996 0.0125
vn 0.3213 -0.9238 0.2085
vn 0.0016 -1.0000 0.0014
vn 0.0038 -1.0000 0.0022
vn 0.0053 -1.0000 -0.0003
vn -0.0013 -1.0000 0.0019
vn -0.0008 -1.0000 0.0031
vn -0.0091 -0.9975 0.0699
vn 0.0088 -0.9909 0.1347
vn -0.0062 -1.0000 0.0064
vn -0.1540 -0.9881 -0.0010
vn -0.1368 -0.9904 0.0199
vn -0.5183 0.3356 -0.7866
vn -0.4357 -0.8590 0.2688
vn -0.5434 -0.8391 -0.0264
vn -0.6882 -0.6761 0.2633
vn -0.8260 -0.5630 -0.0271
vn -0.8542 -0.4419 0.2739
vn -0.7131 -0.0454 0.6996
vn -0.8090 -0.0238 0.5873
vn -0.8116 -0.0232 0.5837
vn -0.7942 -0.0639 0.6044
vn -0.6923 -0.5575 0.4582
vn -0.3742 -0.5209 0.7672
vn -0.1877 -0.8429 0.5043
vn -0.2882 -0.8371 0.4649
vn -0.2910 -0.8432 0.4520
vn 0.4934 -0.8602 0.1289
vn 0.4927 -0.7649 0.4149
vn 0.4270 -0.7873 0.4448
vn -0.0099 -0.9469 0.3215
vn 0.6670 -0.7219 0.1842
vn 0.7169 -0.6805 0.1516
vn 0.6522 -0.7386 0.1705
vn 0.6486 -0.7376 0.1879
vn 0.7288 -0.6369 0.2514
vn 0.8447 -0.4379 0.3078
vn 0.7456 -0.5979 0.2944
vn 0.7337 -0.5987 0.3214
vn 0.7350 -0.5966 0.3222
vn 0.7545 -0.6453 0.1199
vn 0.7504 -0.5769 0.3226
vt 0.191422 0.760574
vt 0.191946 0.756682
vt 0.192455 0.756772
vt 0.192286 0.757998
vt 0.192063 0.766231
vt 0.191396 0.770048
vt 0.191175 0.764933
vt 0.192351 0.770479
vt 0.192346 0.760484
vt 0.192647 0.758134
vt 0.915296 0.290754
vt 0.916507 0.290952
vt 0.915287 0.291386
vt 0.466572 0.740689
vt 0.466331 0.738272
vt 0.466717 0.738834
vt 0.466561 0.743971
vt 0.466908 0.743212
vt 0.466917 0.745702
vt 0.922786 0.291914
vt 0.924204 0.292032
vt 0.927535 0.293039
vt 0.925126 0.291961
vt 0.930691 0.294567
vt 0.928624 0.293755
vt 0.930678 0.294105
vt 0.928607 0.293066
vt 0.930777 0.293771
vt 0.466033 0.749825
vt 0.466401 0.751906
vt 0.466009 0.751981
vt 0.466945 0.740100
vt 0.928759 0.292840
vt 0.466870 0.750708
vt 0.466366 0.750658
vt 0.466815 0.751994
vt 0.465628 0.737433
vt 0.466021 0.737686
vt 0.465987 0.738504
vt 0.466260 0.748736
vt 0.466636 0.748914
vt 0.467022 0.748678
vt 0.924938 0.292690
vt 0.466149 0.746555
vt 0.466518 0.746569
vt 0.465780 0.746090
vt 0.924173 0.291630
vt 0.466216 0.740962
vt 0.465906 0.740832
vt 0.922175 0.291320
vt 0.918313 0.290995
vt 0.919153 0.291388
vt 0.466270 0.744064
vt 0.465876 0.745093
vt 0.465775 0.743071
vt 0.919784 0.291741
vt 0.465666 0.739216
vt 0.466176 0.736181
vt 0.466768 0.736202
vt 0.919974 0.290903
vt 0.465758 0.736207
vt 0.479420 0.752578
vt 0.476565 0.751666
vt 0.477868 0.749185
vt 0.472290 0.749813
vt 0.470478 0.747496
vt 0.472236 0.747628
vt 0.470372 0.749543
vt 0.468241 0.749352
vt 0.468382 0.747194
vt 0.480175 0.742003
vt 0.478902 0.740371
vt 0.480228 0.739828
vt 0.479074 0.748736
vt 0.473578 0.744486
vt 0.472033 0.744280
vt 0.473080 0.741231
vt 0.477634 0.740564
vt 0.476319 0.740522
vt 0.475728 0.737288
vt 0.477681 0.737374
vt 0.480251 0.751228
vt 0.480212 0.748131
vt 0.471642 0.751427
vt 0.469958 0.751253
vt 0.468593 0.743924
vt 0.470203 0.744113
vt 0.477047 0.752930
vt 0.479198 0.744598
vt 0.477730 0.744880
vt 0.480433 0.737453
vt 0.478501 0.753014
vt 0.475763 0.747886
vt 0.475001 0.744557
vt 0.473785 0.747808
vt 0.470976 0.752488
vt 0.469202 0.752239
vt 0.479916 0.752000
vt 0.155286 0.931080
vt 0.154134 0.927973
vt 0.156578 0.927999
vt 0.154302 0.931870
vt 0.469742 0.738510
vt 0.467881 0.739472
vt 0.469126 0.736619
vt 0.471267 0.736912
vt 0.474343 0.750799
vt 0.476306 0.744658
vt 0.471888 0.738610
vt 0.474867 0.740201
vt 0.469338 0.740803
vt 0.480161 0.744467
vt 0.473372 0.751565
vt 0.156288 0.935411
vt 0.473279 0.737112
vt 0.154524 0.934977
vt 0.475826 0.750012
vt 0.471053 0.740991
vt 0.473104 0.752703
vt 0.154877 0.937441
vt 0.467989 0.752107
vt 0.475057 0.752786
vt 0.156578 0.938675
vt 0.930714 0.299589
vt 0.930759 0.301530
vt 0.926275 0.301546
vt 0.927766 0.298604
vt 0.921005 0.296998
vt 0.915388 0.300889
vt 0.915340 0.295430
vt 0.930717 0.309229
vt 0.927347 0.307423
vt 0.930713 0.307374
vt 0.928104 0.295739
vt 0.930667 0.296762
vt 0.920119 0.294354
vt 0.922158 0.299821
vt 0.918877 0.305453
vt 0.916716 0.305347
vt 0.916708 0.304938
vt 0.916584 0.304707
vt 0.930726 0.303380
vt 0.930758 0.305357
vt 0.922591 0.306020
vt 0.915404 0.304693
vt 0.051144 0.918373
vt 0.052705 0.919231
vt 0.048361 0.920179
vt 0.048239 0.930475
vt 0.049176 0.931078
vt 0.047960 0.932447
vt 0.048143 0.917594
vt 0.048593 0.923396
vt 0.052416 0.928118
vt 0.048596 0.925988
vt 0.055268 0.920170
vt 0.056308 0.925207
vt 0.049187 0.916982
vt 0.048367 0.917123
vt 0.058383 0.920755
vt 0.061090 0.922437
vt 0.060633 0.920752
vt 0.684012 0.941092
vt 0.684144 0.940159
vt 0.684144 0.941115
vt 0.061395 0.920693
vt 0.062002 0.921811
vt 0.191457 0.771560
vt 0.192475 0.771337
vt 0.192647 0.772121
vt 0.062016 0.920447
vt 0.191487 0.770816
vt 0.191105 0.763707
vt 0.191496 0.759067
vt 0.480433 0.750825
vt 0.480304 0.741338
vt 0.191104 0.767367
vt 0.480286 0.745699
vt 0.191307 0.770459
vt 0.480309 0.751588
vt 0.191314 0.771243
vt 0.479873 0.752316
vt 0.061565 0.920487
vt 0.479261 0.752815
vt 0.468867 0.752323
vt 0.613324 0.942101
vt 0.613199 0.943312
vt 0.613199 0.940159
vt 0.476257 0.752986
vt 0.635352 0.941372
vt 0.635507 0.940159
vt 0.635507 0.942154
vt 0.051475 0.918404
vt 0.050310 0.917709
vt 0.055268 0.920055
vt 0.057198 0.920453
vt 0.053189 0.919298
vt 0.930807 0.294260
vt 0.048059 0.917415
vt 0.048777 0.916889
vt 0.642061 0.942106
vt 0.642061 0.940159
vt 0.642195 0.940633
vt 0.642195 0.941659
vt 0.642295 0.940159
vt 0.642295 0.942756
vt 0.649830 0.941995
vt 0.649830 0.940159
vt 0.649961 0.941271
vt 0.930864 0.302627
vt 0.930860 0.307160
vt 0.930864 0.309163
vt 0.047960 0.917869
vt 0.930819 0.296830
vt 0.930852 0.300029
s 1
f 15/1/1 4/2/2 16/3/3
f 17/4/4 15/1/1 16/3/3
f 13/5/5 18/6/6 14/7/7
f 29/8/8 18/6/6 13/5/5
f 19/9/9 17/4/4 20/10/10
f 19/9/9 15/1/1 17/4/4
f 13/5/5 15/1/1 19/9/9
f 13/5/5 14/7/7 15/1/1
f 6/11/11 33/12/12 9/13/13
f 51/14/14 31/15/15 40/16/16
f 41/17/17 44/18/18 43/19/19
f 45/20/20 46/21/21 35/22/22
f 42/23/23 35/22/22 46/21/21
f 35/22/22 48/24/24 34/25/25
f 49/26/26 48/24/24 35/22/22
f 55/27/27 145/28/28 49/26/26
f 57/29/29 52/30/30 145/31/28
f 40/16/16 56/32/31 51/14/14
f 57/33/29 145/28/28 55/27/27
f 39/34/32 52/30/30 54/35/33
f 54/35/33 52/30/30 57/29/29
f 39/34/32 137/36/34 52/30/30
f 33/37/12 58/38/35 30/39/36
f 61/40/37 54/35/33 57/29/29
f 32/41/38 54/35/33 61/40/37
f 59/42/39 39/34/32 32/41/38
f 45/20/20 34/25/25 65/43/40
f 45/20/20 35/22/22 34/25/25
f 57/33/29 55/27/27 42/23/23
f 61/40/37 57/29/29 62/44/41
f 42/23/23 55/27/27 35/22/22
f 63/45/42 32/41/38 61/40/37
f 62/44/41 57/29/29 42/46/23
f 47/47/43 42/23/23 46/21/21
f 63/45/42 61/40/37 62/44/41
f 43/19/19 32/41/38 63/45/42
f 59/42/39 32/41/38 43/19/19
f 50/48/44 66/49/45 30/39/36
f 50/48/44 30/39/36 31/15/15
f 50/48/44 31/15/15 51/14/14
f 64/50/46 46/21/21 45/20/20
f 64/50/46 47/47/43 46/21/21
f 53/51/47 38/52/48 33/12/12
f 36/53/49 47/54/43 64/55/46
f 37/56/50 45/20/20 65/43/40
f 33/37/12 30/39/36 53/57/47
f 38/52/48 45/20/20 37/56/50
f 31/15/15 60/58/51 10/59/52
f 50/48/44 36/53/49 64/55/46
f 50/48/44 64/55/46 66/49/45
f 64/50/46 45/20/20 38/52/48
f 44/18/18 41/17/17 51/14/14
f 50/48/44 41/17/17 36/53/49
f 51/14/14 41/17/17 50/48/44
f 56/32/31 44/18/18 51/14/14
f 47/54/43 62/44/41 42/46/23
f 47/54/43 36/53/49 62/44/41
f 33/12/12 38/52/48 9/13/13
f 40/16/16 31/15/15 10/59/52
f 63/45/42 62/44/41 36/53/49
f 63/45/42 36/53/49 41/17/17
f 53/51/47 66/60/45 64/50/46
f 66/49/45 53/57/47 30/39/36
f 41/17/17 43/19/19 63/45/42
f 58/38/35 31/15/15 30/39/36
f 53/51/47 64/50/46 38/52/48
f 58/38/35 60/58/51 31/15/15
f 56/32/31 40/16/16 10/59/52
f 55/27/27 49/26/26 35/22/22
f 6/61/11 58/38/35 33/37/12
f 6/61/11 60/58/51 58/38/35
f 54/35/33 32/41/38 39/34/32
f 37/56/50 9/13/13 38/52/48
f 85/62/53 89/63/54 70/64/55
f 90/65/56 99/66/57 71/67/58
f 90/65/56 73/68/59 99/66/57
f 94/69/60 59/42/39 82/70/61
f 91/71/62 75/72/63 78/73/64
f 85/62/53 70/64/55 69/74/65
f 84/75/66 68/76/67 86/77/68
f 97/78/69 72/79/70 11/80/71
f 97/78/69 11/80/71 7/81/72
f 96/82/73 69/74/65 67/83/74
f 98/84/75 80/85/76 73/68/59
f 99/66/57 83/86/77 79/87/78
f 99/66/57 82/70/61 83/86/77
f 85/62/53 76/88/79 89/63/54
f 100/89/80 93/90/81 97/78/69
f 100/89/80 97/78/69 75/72/63
f 75/72/63 7/81/72 4/91/82
f 85/62/53 140/92/83 76/88/79
f 102/93/84 84/75/66 81/94/85
f 102/93/84 95/95/86 84/75/66
f 96/82/73 85/62/53 69/74/65
f 101/96/87 87/97/88 80/85/76
f 144/98/89 85/62/53 96/82/73
f 98/84/75 73/68/59 90/65/56
f 103/99/90 10/100/52 12/101/91
f 103/99/90 56/102/31 10/100/52
f 104/103/92 103/104/90 12/105/91
f 100/89/80 75/72/63 91/71/62
f 39/34/32 59/42/39 94/69/60
f 104/103/92 12/105/91 2/106/93
f 105/107/94 71/67/58 95/95/86
f 105/107/94 90/65/56 71/67/58
f 101/96/87 80/85/76 98/84/75
f 75/72/63 97/78/69 7/81/72
f 102/93/84 81/94/85 92/108/95
f 106/109/96 104/103/92 2/106/93
f 81/94/85 84/75/66 86/77/68
f 81/94/85 86/77/68 74/110/97
f 107/111/98 103/104/90 104/103/92
f 100/89/80 91/71/62 108/112/99
f 109/113/100 98/84/75 90/65/56
f 83/114/77 56/102/31 103/99/90
f 106/109/96 2/106/93 1/115/101
f 78/73/64 75/72/63 4/91/82
f 109/113/100 90/65/56 105/107/94
f 83/114/77 44/116/18 56/102/31
f 111/117/102 105/107/94 95/95/86
f 112/118/103 107/111/98 104/103/92
f 111/117/102 95/95/86 102/93/84
f 70/64/55 102/93/84 92/108/95
f 70/64/55 92/108/95 93/90/81
f 71/67/58 99/66/57 79/87/78
f 71/67/58 79/87/78 68/76/67
f 110/119/104 101/96/87 98/84/75
f 87/97/88 39/34/32 94/69/60
f 83/86/77 103/104/90 107/111/98
f 112/118/103 104/103/92 106/109/96
f 73/68/59 94/69/60 82/70/61
f 110/119/104 98/84/75 109/113/100
f 79/87/78 83/86/77 107/111/98
f 83/114/77 43/120/19 44/116/18
f 39/34/32 88/121/105 137/36/34
f 74/110/97 1/115/101 11/80/71
f 100/89/80 108/112/99 67/83/74
f 69/74/65 93/90/81 100/89/80
f 86/77/68 112/118/103 106/109/96
f 79/87/78 107/111/98 112/118/103
f 73/68/59 82/70/61 99/66/57
f 89/63/54 105/107/94 111/117/102
f 92/108/95 74/110/97 72/79/70
f 92/108/95 81/94/85 74/110/97
f 69/74/65 100/89/80 67/83/74
f 77/122/106 109/113/100 105/107/94
f 77/122/106 110/119/104 109/113/100
f 86/77/68 106/109/96 1/115/101
f 69/74/65 70/64/55 93/90/81
f 70/64/55 111/117/102 102/93/84
f 68/76/67 79/87/78 112/118/103
f 82/123/61 43/120/19 83/114/77
f 82/70/61 59/42/39 43/19/19
f 80/85/76 94/69/60 73/68/59
f 80/85/76 87/97/88 94/69/60
f 77/122/106 105/107/94 89/63/54
f 72/79/70 74/110/97 11/80/71
f 88/121/105 39/34/32 87/97/88
f 95/95/86 71/67/58 68/76/67
f 95/95/86 68/76/67 84/75/66
f 89/63/54 111/117/102 70/64/55
f 74/110/97 86/77/68 1/115/101
f 93/90/81 72/79/70 97/78/69
f 93/90/81 92/108/95 72/79/70
f 76/88/79 77/122/106 89/63/54
f 68/76/67 112/118/103 86/77/68
f 121/124/107 122/125/108 120/126/109
f 121/124/107 120/126/109 114/127/110
f 124/128/111 5/129/112 3/130/113
f 123/131/114 28/132/115 115/133/116
f 34/25/25 118/134/117 65/43/40
f 125/135/118 114/127/110 118/134/117
f 9/13/13 113/136/119 3/130/113
f 114/127/110 119/137/120 124/128/111
f 125/135/118 121/124/107 114/127/110
f 124/128/111 119/137/120 5/129/112
f 37/56/50 113/136/119 9/13/13
f 25/138/121 26/139/122 146/140/123
f 126/141/124 25/138/121 146/140/123
f 127/142/125 117/143/126 120/126/109
f 117/143/126 28/132/115 116/144/127
f 125/135/118 118/134/117 34/25/25
f 48/24/24 125/135/118 34/25/25
f 5/129/112 126/141/124 8/145/128
f 113/136/119 124/128/111 3/130/113
f 65/43/40 113/136/119 37/56/50
f 117/143/126 25/138/121 126/141/124
f 117/143/126 126/141/124 120/126/109
f 114/127/110 120/126/109 119/137/120
f 117/143/126 116/144/127 25/138/121
f 120/126/109 126/141/124 5/129/112
f 117/143/126 115/133/116 28/132/115
f 118/134/117 114/127/110 124/128/111
f 118/134/117 124/128/111 113/136/119
f 119/137/120 120/126/109 5/129/112
f 65/43/40 118/134/117 113/136/119
f 122/125/108 127/142/125 120/126/109
f 129/146/129 130/147/130 128/148/131
f 131/149/132 132/150/133 133/151/134
f 134/152/135 129/146/129 128/148/131
f 128/148/131 130/147/130 135/153/136
f 131/149/132 27/154/137 132/150/133
f 131/149/132 136/155/138 27/154/137
f 130/147/130 138/156/139 135/153/136
f 136/155/138 135/153/136 27/154/137
f 135/153/136 138/156/139 24/157/140
f 134/152/135 137/158/141 129/146/129
f 135/153/136 24/157/140 27/154/137
f 145/159/142 137/158/141 134/152/135
f 138/156/139 139/160/143 24/157/140
f 24/157/140 139/160/143 22/161/144
f 22/161/144 139/160/143 140/162/145
f 133/163/146 132/164/146 123/165/146
f 141/166/147 22/161/144 140/162/145
f 141/166/147 23/167/148 22/161/144
f 142/168/149 21/169/150 23/170/148
f 142/171/149 23/167/148 141/166/147
f 143/172/151 21/169/150 142/168/149
f 143/172/151 29/8/8 21/169/150
f 18/6/6 29/8/8 143/172/151
f 15/1/152 14/7/7 108/173/99
f 15/1/152 78/174/153 4/2/154
f 67/83/74 18/175/6 96/82/73
f 15/176/152 91/71/155 78/73/153
f 14/7/7 18/6/6 67/177/74
f 14/178/7 67/83/74 108/112/99
f 15/176/152 108/112/99 91/71/155
f 96/179/73 18/6/6 143/172/151
f 144/98/156 96/82/73 143/180/151
f 144/181/156 143/172/151 142/168/149
f 85/62/53 144/98/156 142/182/149
f 141/166/147 85/183/53 142/171/149
f 140/92/83 85/62/53 141/184/147
f 88/121/105 129/185/129 137/36/34
f 77/186/157 139/187/158 138/188/159
f 139/189/158 76/88/79 140/92/83
f 139/190/158 77/191/157 76/192/79
f 87/193/88 129/146/129 88/194/105
f 138/156/159 110/195/160 77/196/157
f 138/156/159 130/147/130 101/197/87
f 101/197/87 130/147/130 129/146/129
f 129/146/129 87/193/88 101/197/87
f 101/197/87 110/195/160 138/156/159
f 48/24/161 49/26/162 134/198/135
f 49/199/162 145/159/163 134/152/135
f 52/200/164 137/158/141 145/159/142
f 122/201/165 121/202/166 135/203/167
f 122/204/165 135/205/167 136/206/168
f 127/207/169 122/208/165 136/209/168
f 117/143/170 127/142/169 136/210/168
f 117/143/170 136/210/168 131/211/171
f 133/212/172 123/131/173 131/211/171
f 128/148/131 48/213/161 134/152/135
f 125/135/174 48/24/161 128/214/131
f 135/215/167 121/124/166 128/214/131
f 121/124/166 125/135/174 128/214/131
f 131/211/171 115/133/175 117/143/170
f 131/211/171 123/131/173 115/133/175
