# Blender 4.5.10 LTS
# www.blender.org
o link6_8
v 0.113081 0.071805 -0.000754
v 0.113738 0.071404 -0.000400
v 0.113319 0.071657 -0.001126
v 0.113885 0.071310 -0.000608
v 0.115198 0.070446 0.000086
v 0.115915 0.069942 -0.000241
v 0.115180 0.070459 -0.000203
v 0.115753 0.070054 -0.000771
v 0.115068 0.070534 -0.000482
v 0.115497 0.070232 -0.001159
v 0.114854 0.070678 -0.000714
v 0.115228 0.070416 -0.001394
v 0.114829 0.070685 -0.001601
v 0.114561 0.070872 -0.000842
v 0.114280 0.071047 -0.001647
v 0.114317 0.071032 -0.000841
v 0.114079 0.071186 -0.000765
v 0.112922 0.071902 -0.000223
v 0.113652 0.071458 -0.000088
v 0.113750 0.071386 -0.001488
v 0.114146 0.071143 0.000797
v 0.113520 0.071532 0.001324
v 0.114008 0.071222 0.001597
v 0.113826 0.071347 0.000554
v 0.113283 0.071680 0.001076
v 0.113094 0.071796 0.000783
v 0.113671 0.071446 0.000203
v 0.112946 0.071887 0.000340
v 0.114913 0.070639 0.000667
v 0.115319 0.070355 0.001330
v 0.115616 0.070150 0.001007
v 0.115115 0.070503 0.000396
v 0.114960 0.070597 0.001545
v 0.115817 0.070009 0.000617
v 0.114625 0.070830 0.000826
v 0.114558 0.070865 0.001648
v 0.115909 0.069946 0.000233
v 0.114384 0.070989 0.000849
vn 0.5218 0.8530 -0.0022
vn 0.5240 0.8517 -0.0056
vn 0.5257 0.8506 -0.0065
vn 0.5302 0.8478 -0.0089
vn 0.5750 0.8181 0.0021
vn 0.5752 0.8180 -0.0011
vn 0.5738 0.8190 -0.0035
vn 0.5739 0.8189 -0.0034
vn 0.5691 0.8222 -0.0081
vn 0.5699 0.8217 -0.0044
vn 0.5616 0.8274 -0.0088
vn 0.5651 0.8250 -0.0071
vn 0.5562 0.8310 -0.0100
vn 0.5518 0.8339 -0.0097
vn 0.5442 0.8389 -0.0105
vn 0.5445 0.8387 -0.0094
vn 0.5364 0.8439 -0.0093
vn 0.5202 0.8541 -0.0002
vn 0.5200 0.8542 -0.0016
vn 0.5326 0.8463 -0.0092
vn 0.5368 0.8436 0.0093
vn 0.5298 0.8481 0.0068
vn 0.5383 0.8427 0.0100
vn 0.5279 0.8493 0.0070
vn 0.5244 0.8515 0.0024
vn 0.5219 0.8530 0.0021
vn 0.5217 0.8531 0.0040
vn 0.5198 0.8543 0.0012
vn 0.5635 0.8261 0.0088
vn 0.5666 0.8240 0.0060
vn 0.5722 0.8201 0.0029
vn 0.5719 0.8203 0.0059
vn 0.5590 0.8291 0.0097
vn 0.5750 0.8181 0.0023
vn 0.5544 0.8322 0.0098
vn 0.5503 0.8349 0.0107
vn 0.5750 0.8182 0.0019
vn 0.5461 0.8377 0.0104
vt 0.613734 0.336255
vt 0.613348 0.335682
vt 0.614059 0.335859
vt 0.613414 0.336462
vt 0.613168 0.335813
vt 0.613106 0.334392
vt 0.612871 0.334358
vt 0.613188 0.333660
vt 0.613610 0.333851
vt 0.613326 0.334518
vt 0.613910 0.334128
vt 0.613501 0.334743
vt 0.614083 0.334408
vt 0.614225 0.334814
vt 0.613586 0.335037
vt 0.614225 0.335354
vt 0.613568 0.335276
vt 0.613490 0.335503
vt 0.612969 0.336584
vt 0.612907 0.335878
vt 0.612217 0.335349
vt 0.611744 0.335921
vt 0.611554 0.335433
vt 0.612394 0.335673
vt 0.611931 0.336164
vt 0.612158 0.336362
vt 0.612670 0.335843
vt 0.612510 0.336529
vt 0.612376 0.334606
vt 0.611862 0.334163
vt 0.612147 0.333886
vt 0.612611 0.334422
vt 0.611661 0.334505
vt 0.612480 0.333708
vt 0.612226 0.334879
vt 0.611550 0.334894
vt 0.612800 0.333639
vt 0.612191 0.335114
s 1
f 3/1/3 4/2/4 20/3/20
f 3/1/3 1/4/1 2/5/2
f 3/1/3 2/5/2 4/2/4
f 7/6/7 5/7/5 6/8/6
f 7/6/7 6/8/6 8/9/8
f 9/10/9 7/6/7 8/9/8
f 10/11/10 9/10/9 8/9/8
f 11/12/11 9/10/9 10/11/10
f 12/13/12 11/12/11 10/11/10
f 13/14/13 11/12/11 12/13/12
f 13/14/13 14/15/14 11/12/11
f 15/16/15 16/17/16 14/15/14
f 15/16/15 14/15/14 13/14/13
f 15/16/15 17/18/17 16/17/16
f 20/3/20 17/18/17 15/16/15
f 18/19/18 19/20/19 2/5/2
f 1/4/1 18/19/18 2/5/2
f 20/3/20 4/2/4 17/18/17
f 21/21/21 22/22/22 23/23/23
f 24/24/24 22/22/22 21/21/21
f 25/25/25 22/22/22 24/24/24
f 26/26/26 25/25/25 24/24/24
f 26/26/26 24/24/24 27/27/27
f 28/28/28 26/26/26 27/27/27
f 28/28/28 27/27/27 19/20/19
f 18/19/18 28/28/28 19/20/19
f 29/29/29 30/30/30 31/31/31
f 32/32/32 29/29/29 31/31/31
f 29/29/29 33/33/33 30/30/30
f 32/32/32 31/31/31 34/34/34
f 35/35/35 36/36/36 33/33/33
f 35/35/35 33/33/33 29/29/29
f 5/7/5 34/34/34 37/37/37
f 5/7/5 32/32/32 34/34/34
f 5/7/5 37/37/37 6/8/6
f 38/38/38 23/23/23 36/36/36
f 38/38/38 36/36/36 35/35/35
f 21/21/21 23/23/23 38/38/38
