# Blender 4.5.10 LTS
# www.blender.org
o link0_7
v 0.003367 -0.072330 0.081045
v 0.003915 -0.072875 0.081079
v 0.008513 -0.069769 0.083855
v 0.005045 -0.069219 0.084691
v 0.006985 -0.069521 0.084673
v 0.009975 -0.070006 0.082601
v 0.011500 -0.070253 0.080503
v 0.003977 -0.069035 0.084299
v 0.002641 -0.068828 0.083033
v 0.012698 -0.070448 0.077226
v 0.015147 -0.070844 0.059960
v 0.001998 -0.068716 0.081436
v 0.009620 -0.069984 0.013220
v 0.018836 -0.071441 0.030645
v 0.017587 -0.075256 0.010100
v 0.013723 -0.074603 0.043181
v 0.011855 -0.074297 0.058019
v 0.010927 -0.074127 0.065475
v 0.009900 -0.073966 0.072506
v 0.009108 -0.073888 0.076651
v 0.005377 -0.073292 0.081724
v 0.012824 -0.074461 0.050361
v 0.015357 -0.074537 0.035970
v 0.014745 -0.074785 0.034621
v 0.014444 -0.074624 0.040093
v 0.014292 -0.074424 0.043891
v 0.006082 -0.072731 0.082769
v 0.013552 -0.074282 0.049940
v 0.017776 -0.074928 0.015266
v 0.017077 -0.075134 0.015489
v 0.015902 -0.074474 0.033288
v 0.013277 -0.074045 0.054049
v 0.012351 -0.074144 0.058385
v 0.011606 -0.074181 0.061588
v 0.010609 -0.073260 0.075927
v 0.009940 -0.073492 0.077676
v 0.010709 -0.074030 0.068195
v 0.010376 -0.073708 0.073960
v 0.008589 -0.073641 0.079383
v 0.015110 -0.074170 0.041192
v 0.014130 -0.073988 0.049149
v 0.007148 -0.073566 0.080697
v 0.012670 -0.074344 0.053738
v 0.005320 -0.073132 0.082237
v 0.011607 -0.073913 0.065199
v 0.010590 -0.073883 0.070863
v 0.018170 -0.074757 0.014708
v 0.018439 -0.075002 0.010117
v 0.003936 -0.072476 0.082162
v 0.004485 -0.073147 0.081433
v 0.004734 -0.072436 0.082802
v 0.011116 -0.073111 0.010156
v 0.012203 -0.074393 0.010045
v 0.020393 -0.072530 0.011653
v 0.020778 -0.071827 0.013176
v 0.019600 -0.073664 0.010565
v 0.010199 -0.070988 0.011396
v 0.011389 -0.073588 0.069398
v 0.012177 -0.073697 0.063790
v 0.007869 -0.073028 0.081480
v 0.009244 -0.073157 0.079787
v 0.013053 -0.073775 0.057681
v 0.003961 -0.070828 0.083234
v 0.005742 -0.070997 0.083839
vn 0.1591 0.9873 -0.0004
vn 0.1612 0.9867 0.0194
vn 0.1537 0.9880 -0.0124
vn 0.1597 0.9872 -0.0002
vn 0.1588 0.9873 0.0017
vn 0.1596 0.9872 -0.0003
vn 0.1598 0.9872 -0.0001
vn 0.1588 0.9873 -0.0005
vn 0.1581 0.9687 -0.1916
vn 0.1580 0.9874 -0.0010
vn 0.1581 0.9609 -0.2272
vn 0.1596 0.9872 -0.0018
vn 0.1578 0.9875 0.0031
vn 0.0841 -0.9962 0.0208
vn -0.4632 -0.8856 -0.0352
vn -0.1583 -0.9874 0.0074
vn 0.0695 -0.9973 0.0227
vn 0.0403 -0.9987 0.0297
vn -0.3658 -0.9120 0.1856
vn 0.0521 -0.9982 0.0288
vn 0.0940 -0.9950 0.0350
vn 0.0737 -0.9966 0.0376
vn 0.0821 -0.9953 0.0521
vn 0.0544 -0.9732 0.2235
vn -0.1164 -0.9769 0.1793
vn 0.0520 -0.9983 0.0247
vn 0.4496 -0.8882 0.0944
vn 0.5588 -0.8254 0.0804
vn 0.4050 -0.9121 0.0642
vn 0.2989 -0.9525 0.0586
vn 0.3973 -0.9150 0.0705
vn 0.3557 -0.9346 -0.0092
vn 0.5883 -0.8054 0.0715
vn 0.6590 -0.7447 0.1051
vn 0.5128 -0.8543 0.0851
vn 0.6655 -0.7398 0.0990
vn 0.4091 -0.9099 0.0689
vn 0.6826 -0.7175 0.1389
vn 0.5410 -0.8141 0.2111
vn 0.4395 -0.8947 0.0795
vn 0.6369 -0.7649 0.0963
vn 0.6249 -0.7740 0.1019
vn 0.3748 -0.9242 0.0736
vn 0.5560 -0.7318 0.3941
vn 0.2495 -0.9411 0.2280
vn 0.6400 -0.7629 0.0916
vn 0.3890 -0.7532 0.5303
vn 0.2859 -0.9565 0.0582
vn 0.4001 -0.9137 0.0719
vn -0.1348 -0.8618 0.4890
vn 0.1317 -0.7045 0.6974
vn 0.3019 -0.9511 0.0649
vn 0.3089 -0.9486 0.0683
vn 0.2950 -0.9532 0.0659
vn 0.2838 -0.9565 0.0677
vn -0.6325 -0.6023 0.4870
vn -0.8415 -0.5285 0.1125
vn -0.5941 -0.7990 0.0926
vn -0.3318 -0.5998 0.7281
vn -0.8383 -0.5383 -0.0867
vn 0.1359 0.8017 -0.5820
vn 0.1254 0.7858 -0.6056
vn 0.0538 0.2207 -0.9739
vn 0.0136 0.0212 -0.9997
vn 0.0215 0.1024 -0.9945
vn 0.0636 0.4223 -0.9042
vn 0.0983 0.5256 -0.8450
vn 0.6720 -0.6149 0.4126
vn 0.7499 -0.6269 0.2113
vn 0.7649 -0.6335 0.1164
vn 0.7601 -0.6417 0.1026
vn 0.7685 -0.6322 0.0987
vn 0.7537 -0.6512 0.0882
vn 0.7697 -0.6310 0.0967
vn 0.7397 -0.6683 0.0790
vn 0.4008 -0.5696 0.7175
vn 0.5457 -0.5942 0.5909
vn -0.5683 -0.4159 0.7099
vn -0.7873 -0.3809 0.4849
vn -0.0729 -0.5001 0.8629
vn 0.1447 -0.5181 0.8430
vn -0.2457 -0.4648 0.8507
vn -0.5132 -0.4349 0.7399
vn -0.9239 -0.3631 0.1208
vn -0.9320 -0.3485 -0.0993
vn -0.9342 -0.3394 -0.1097
vt 0.920885 0.212884
vt 0.918102 0.211880
vt 0.919700 0.212076
vt 0.921975 0.214040
vt 0.915287 0.214239
vt 0.923040 0.215887
vt 0.923726 0.218662
vt 0.924154 0.232920
vt 0.915287 0.270382
vt 0.924493 0.257085
vt 0.924493 0.271466
vt 0.917184 0.212098
vt 0.915966 0.213002
vt 0.633380 0.791411
vt 0.637775 0.795293
vt 0.633476 0.795840
vt 0.633465 0.775641
vt 0.633484 0.768586
vt 0.637302 0.736551
vt 0.633596 0.756347
vt 0.633642 0.750197
vt 0.633809 0.744383
vt 0.634059 0.740937
vt 0.635246 0.737440
vt 0.636564 0.736413
vt 0.633535 0.762665
vt 0.633267 0.743234
vt 0.632626 0.776817
vt 0.632824 0.774592
vt 0.633188 0.771163
vt 0.632943 0.768055
vt 0.632817 0.791648
vt 0.632536 0.792129
vt 0.632614 0.756706
vt 0.632792 0.759691
vt 0.632551 0.763746
vt 0.632969 0.763067
vt 0.632860 0.741632
vt 0.633258 0.740163
vt 0.633099 0.750475
vt 0.632751 0.751660
vt 0.632860 0.747026
vt 0.633395 0.745778
vt 0.633599 0.738360
vt 0.634206 0.738654
vt 0.632510 0.770308
vt 0.634546 0.736841
vt 0.633337 0.759903
vt 0.633148 0.756090
vt 0.636550 0.735981
vt 0.635850 0.735599
vt 0.633457 0.753420
vt 0.633558 0.747963
vt 0.632764 0.795895
vt 0.722013 0.785855
vt 0.722415 0.786765
vt 0.721803 0.786770
vt 0.636916 0.735419
vt 0.637625 0.735861
vt 0.721357 0.786492
vt 0.722865 0.844509
vt 0.721520 0.844681
vt 0.637775 0.736763
vt 0.924130 0.272721
vt 0.915709 0.271982
vt 0.558729 0.866093
vt 0.559029 0.866754
vt 0.558975 0.871223
vt 0.558068 0.872257
vt 0.557454 0.865308
vt 0.556257 0.873244
vt 0.556257 0.864792
vt 0.631470 0.737812
vt 0.630819 0.740602
vt 0.630469 0.754873
vt 0.630249 0.779052
vt 0.630328 0.793437
vt 0.631673 0.795559
vt 0.630838 0.794681
vt 0.633541 0.734765
vt 0.632491 0.735943
vt 0.723106 0.784851
vt 0.725074 0.784882
vt 0.721677 0.785315
vt 0.635887 0.734583
vt 0.634683 0.733933
vt 0.636229 0.733706
vt 0.723715 0.783516
vt 0.724306 0.783841
vt 0.725510 0.786188
vt 0.725510 0.841792
vt 0.724670 0.843348
s 1
f 3/1/1 4/2/2 5/3/3
f 6/4/4 12/5/5 3/1/1
f 7/6/6 12/5/5 6/4/4
f 10/7/7 12/5/5 7/6/6
f 11/8/8 12/5/5 10/7/7
f 13/9/9 11/8/8 14/10/10
f 13/9/9 12/5/5 11/8/8
f 55/11/11 13/9/9 14/10/10
f 3/1/1 8/12/12 4/2/2
f 3/1/1 12/5/5 9/13/13
f 3/1/1 9/13/13 8/12/12
f 30/14/14 53/15/15 15/16/16
f 24/17/17 53/15/15 30/14/14
f 16/18/18 53/15/15 24/17/17
f 50/19/19 17/20/20 18/21/21
f 50/19/19 18/21/21 19/22/22
f 50/19/19 19/22/22 20/23/23
f 42/24/24 50/19/19 20/23/23
f 42/24/24 21/25/25 50/19/19
f 50/19/19 53/15/15 17/20/20
f 17/20/20 53/15/15 22/26/26
f 22/26/26 53/15/15 16/18/18
f 20/23/23 19/22/22 38/27/27
f 31/28/28 23/29/29 24/17/17
f 24/17/17 25/30/30 16/18/18
f 16/18/18 25/30/30 26/31/31
f 29/32/32 31/28/28 30/14/14
f 47/33/33 31/28/28 29/32/32
f 31/28/28 24/17/17 30/14/14
f 62/34/34 32/35/35 41/36/36
f 41/36/36 32/35/35 28/37/37
f 35/38/38 36/39/39 38/27/27
f 36/39/39 20/23/23 38/27/27
f 45/40/40 59/41/41 58/42/42
f 58/42/42 38/27/27 46/43/43
f 35/38/38 38/27/27 58/42/42
f 61/44/44 39/45/45 36/39/39
f 24/17/17 23/29/29 25/30/30
f 36/39/39 39/45/45 20/23/23
f 23/29/29 40/46/46 25/30/30
f 39/45/45 42/24/24 20/23/23
f 25/30/30 40/46/46 26/31/31
f 28/37/37 26/31/31 41/36/36
f 16/18/18 26/31/31 28/37/37
f 61/44/44 60/47/47 39/45/45
f 60/47/47 42/24/24 39/45/45
f 28/37/37 22/26/26 16/18/18
f 32/35/35 43/48/48 28/37/37
f 28/37/37 43/48/48 22/26/26
f 43/48/48 32/35/35 33/49/49
f 62/34/34 33/49/49 32/35/35
f 44/50/50 42/24/24 27/51/51
f 27/51/51 42/24/24 60/47/47
f 21/25/25 42/24/24 44/50/50
f 40/46/46 23/29/29 31/28/28
f 59/41/41 33/49/49 62/34/34
f 34/52/52 17/20/20 33/49/49
f 41/36/36 26/31/31 40/46/46
f 34/52/52 33/49/49 59/41/41
f 34/52/52 59/41/41 45/40/40
f 22/26/26 43/48/48 17/20/20
f 45/40/40 37/53/53 18/21/21
f 58/42/42 37/53/53 45/40/40
f 37/53/53 58/42/42 46/43/43
f 17/20/20 34/52/52 18/21/21
f 46/43/43 38/27/27 19/22/22
f 43/48/48 33/49/49 17/20/20
f 45/40/40 18/21/21 34/52/52
f 46/43/43 19/22/22 37/53/53
f 18/21/21 37/53/53 19/22/22
f 47/33/33 15/16/54 48/54/55
f 47/33/33 30/14/14 15/16/54
f 29/32/32 30/14/14 47/33/33
f 49/55/56 1/56/57 2/57/58
f 51/58/59 49/59/56 44/50/50
f 44/50/50 50/19/19 21/25/25
f 49/55/56 2/57/58 50/60/19
f 27/51/51 51/58/59 44/50/50
f 49/59/56 50/19/19 44/50/50
f 1/56/57 52/61/60 53/62/15
f 2/57/58 1/56/57 53/62/15
f 50/19/19 2/63/58 53/15/15
f 55/11/11 54/64/61 57/65/62
f 55/11/11 57/65/62 13/9/9
f 48/66/63 15/67/64 53/68/65
f 48/66/63 53/68/65 52/69/66
f 56/70/67 48/66/63 52/69/66
f 56/70/67 52/69/66 57/71/62
f 54/72/61 56/70/67 57/71/62
f 7/73/68 36/39/39 10/74/69
f 40/46/46 11/75/70 41/36/36
f 11/75/70 40/46/46 14/76/71
f 14/76/71 40/46/46 31/28/28
f 47/33/33 14/76/71 31/28/28
f 36/39/39 35/38/38 10/74/69
f 14/76/71 47/33/33 55/77/72
f 55/77/72 56/78/73 54/79/74
f 47/33/33 56/78/73 55/77/72
f 48/54/75 56/78/73 47/33/33
f 10/74/69 58/42/42 11/75/70
f 35/38/38 58/42/42 10/74/69
f 58/42/42 59/41/41 11/75/70
f 27/51/51 60/47/47 3/80/76
f 3/80/76 60/47/47 6/81/77
f 59/41/41 62/34/34 11/75/70
f 6/81/77 61/44/44 7/73/68
f 60/47/47 61/44/44 6/81/77
f 61/44/44 36/39/39 7/73/68
f 62/34/34 41/36/36 11/75/70
f 63/82/78 9/83/79 49/55/56
f 63/82/78 49/55/56 51/84/59
f 64/85/80 5/86/81 4/87/82
f 27/51/51 5/86/81 64/85/80
f 4/88/82 63/82/78 51/84/59
f 63/82/78 8/89/83 9/83/79
f 4/88/82 8/89/83 63/82/78
f 64/85/80 51/58/59 27/51/51
f 64/85/80 4/87/82 51/58/59
f 9/83/79 1/56/57 49/55/56
f 9/83/79 12/90/84 1/56/57
f 27/51/51 3/80/76 5/86/81
f 13/91/85 1/56/57 12/90/84
f 52/61/60 1/56/57 13/91/85
f 57/92/86 52/61/60 13/91/85
