# Blender 4.5.10 LTS
# www.blender.org
o link6_7
v 0.062788 0.081589 -0.000500
v 0.061967 0.081543 -0.000500
v 0.061968 0.081544 -0.000000
v 0.063823 0.081627 -0.000738
v 0.063656 0.081617 -0.001350
v 0.063225 0.081606 -0.000927
v 0.063197 0.081608 -0.000125
v 0.063197 0.081608 -0.000000
v 0.064222 0.081636 -0.000796
v 0.064320 0.081640 -0.000250
v 0.064778 0.081645 -0.000250
v 0.062788 0.081589 0.000500
v 0.061967 0.081543 0.000500
v 0.063197 0.081608 0.000125
v 0.063225 0.081606 0.000927
v 0.063823 0.081627 0.000738
v 0.063656 0.081617 0.001350
v 0.064222 0.081636 0.000795
v 0.064320 0.081640 0.000250
v 0.064778 0.081645 0.000250
vn -0.0488 0.9988 0.0002
vn -0.0559 0.9984 -0.0019
vn -0.0546 0.9985 -0.0000
vn -0.0279 0.9996 -0.0066
vn -0.0298 0.9995 -0.0082
vn -0.0357 0.9994 -0.0050
vn -0.0432 0.9991 -0.0016
vn -0.0496 0.9988 -0.0000
vn -0.0209 0.9998 -0.0056
vn -0.0141 0.9999 -0.0048
vn -0.0109 0.9999 -0.0054
vn -0.0488 0.9988 -0.0002
vn -0.0559 0.9984 0.0019
vn -0.0432 0.9991 0.0016
vn -0.0357 0.9994 0.0050
vn -0.0279 0.9996 0.0066
vn -0.0298 0.9995 0.0082
vn -0.0209 0.9998 0.0056
vn -0.0141 0.9999 0.0048
vn -0.0109 0.9999 0.0054
vt 0.137816 0.941214
vt 0.137344 0.940733
vt 0.137638 0.940446
vt 0.138271 0.941957
vt 0.137817 0.942210
vt 0.137817 0.941715
vt 0.138271 0.941238
vt 0.138344 0.941167
vt 0.138466 0.942223
vt 0.138842 0.941968
vt 0.139105 0.942236
vt 0.138401 0.940640
vt 0.137930 0.940159
vt 0.138417 0.941095
vt 0.138902 0.940651
vt 0.139135 0.941110
vt 0.139397 0.940661
vt 0.139397 0.941311
vt 0.139135 0.941681
vt 0.139397 0.941949
s 1
f 1/1/1 2/2/2 3/3/3
f 4/4/4 5/5/5 6/6/6
f 7/7/7 6/6/6 1/1/1
f 7/7/7 4/4/4 6/6/6
f 8/8/8 1/1/1 3/3/3
f 8/8/8 7/7/7 1/1/1
f 9/9/9 5/5/5 4/4/4
f 10/10/10 9/9/9 4/4/4
f 11/11/11 9/9/9 10/10/10
f 12/12/12 8/8/8 3/3/3
f 12/12/12 3/3/3 13/13/13
f 14/14/14 8/8/8 12/12/12
f 15/15/15 14/14/14 12/12/12
f 16/16/16 14/14/14 15/15/15
f 17/17/17 16/16/16 15/15/15
f 18/18/18 19/19/19 16/16/16
f 18/18/18 16/16/16 17/17/17
f 20/20/20 19/19/19 18/18/18
