# Blender 4.5.10 LTS
# www.blender.org
o link6_13
v 0.089370 0.077123 0.025547
v 0.088855 0.077353 0.025000
v 0.087221 0.077247 0.026591
v 0.088132 0.077321 0.025708
v 0.087465 0.077610 0.025000
v 0.086963 0.077581 0.025489
v 0.088187 0.077632 0.024293
v 0.087345 0.077948 0.023409
v 0.089686 0.076974 0.025884
v 0.087048 0.077777 0.024561
v 0.086626 0.077941 0.024116
v 0.088570 0.077113 0.026174
v 0.088959 0.076921 0.026591
v 0.089260 0.077364 0.024603
v 0.089756 0.077369 0.024116
v 0.088648 0.077633 0.023839
v 0.089084 0.077631 0.023409
v 0.086557 0.077552 0.025884
vn 0.1833 0.9524 0.2435
vn 0.1794 0.9593 0.2180
vn 0.1680 0.9527 0.2532
vn 0.1765 0.9555 0.2364
vn 0.1729 0.9606 0.2177
vn 0.1680 0.9565 0.2386
vn 0.1769 0.9634 0.2012
vn 0.1708 0.9681 0.1833
vn 0.1841 0.9497 0.2534
vn 0.1696 0.9653 0.1986
vn 0.1701 0.9672 0.1887
vn 0.1849 0.9493 0.2544
vn 0.1861 0.9469 0.2624
vn 0.1818 0.9625 0.2014
vn 0.1838 0.9644 0.1899
vn 0.1835 0.9652 0.1861
vn 0.1845 0.9657 0.1826
vn 0.1677 0.9540 0.2484
vt 0.615529 0.334660
vt 0.614949 0.335256
vt 0.614548 0.334844
vt 0.615529 0.335848
vt 0.614804 0.336584
vt 0.614225 0.335995
vt 0.616108 0.335254
vt 0.616557 0.334792
vt 0.615912 0.334264
vt 0.616433 0.335586
vt 0.616833 0.335992
vt 0.615901 0.336226
vt 0.614589 0.335624
vt 0.616833 0.334506
vt 0.616254 0.333909
vt 0.616253 0.336583
vt 0.614225 0.334510
vt 0.614805 0.333912
s 1
f 4/1/4 5/2/5 6/3/6
f 7/4/7 8/5/8 11/6/11
f 2/7/2 4/1/4 1/8/1
f 2/7/2 5/2/5 4/1/4
f 1/8/1 4/1/4 12/9/12
f 14/10/14 5/2/5 2/7/2
f 14/10/14 7/4/7 5/2/5
f 15/11/15 7/4/7 14/10/14
f 16/12/16 7/4/7 15/11/15
f 7/4/7 10/13/10 5/2/5
f 9/14/9 12/9/12 13/15/13
f 17/16/17 16/12/16 15/11/15
f 4/1/4 18/17/18 3/18/3
f 11/6/11 10/13/10 7/4/7
f 1/8/1 12/9/12 9/14/9
f 6/3/6 18/17/18 4/1/4
