# Blender 4.5.9 LTS
# www.blender.org
o link7_6
v 0.031607 0.041549 0.068347
v 0.030107 0.046853 0.069118
v 0.029645 0.043700 0.068340
v 0.030026 0.042919 0.068374
v 0.050283 0.034192 0.070036
v 0.050676 0.033991 0.070645
v 0.050607 0.038330 0.071256
v 0.050792 0.038174 0.071659
v 0.051057 0.037268 0.070999
v 0.051321 0.036869 0.071482
v 0.051272 0.035210 0.071032
v 0.051163 0.035654 0.070652
v 0.050827 0.034721 0.070396
v 0.050398 0.038282 0.070938
v 0.050828 0.036898 0.070621
v 0.050095 0.038268 0.070747
v 0.050665 0.035272 0.070230
v 0.051411 0.036049 0.071159
v 0.046615 0.030093 0.068718
v 0.046408 0.030358 0.068406
v 0.045797 0.030433 0.068148
v 0.045250 0.029884 0.068123
v 0.042480 0.030519 0.068182
v 0.046546 0.029858 0.069053
v 0.045368 0.029478 0.068526
v 0.044131 0.030141 0.067849
v 0.043084 0.029968 0.068284
v 0.043591 0.030723 0.067744
v 0.043970 0.029719 0.068112
v 0.044464 0.029396 0.068518
v 0.042974 0.030584 0.067841
v 0.030322 0.046245 0.068344
v 0.030767 0.046398 0.068351
v 0.030789 0.043574 0.067752
v 0.030695 0.042640 0.067945
v 0.030567 0.042391 0.068287
v 0.030161 0.043423 0.067910
v 0.030260 0.045117 0.067982
v 0.030107 0.044170 0.067875
v 0.029482 0.044404 0.068347
v 0.029782 0.045181 0.068156
v 0.029419 0.045189 0.068626
v 0.029657 0.045980 0.068671
v 0.030484 0.046859 0.068673
v 0.049062 0.040759 0.071039
v 0.049740 0.040082 0.071039
v 0.048886 0.040599 0.071590
v 0.043395 0.046364 0.071797
v 0.040759 0.049062 0.071039
v 0.040082 0.049740 0.071039
v 0.039845 0.049510 0.071535
v 0.049193 0.039535 0.070830
v 0.049510 0.039845 0.071535
v 0.049617 0.034947 0.069917
v 0.030987 0.044742 0.068031
v 0.050147 0.036107 0.070278
v 0.031242 0.045890 0.068330
v 0.031520 0.043728 0.067928
v 0.036928 0.039224 0.068121
v 0.035246 0.049859 0.070032
v 0.036511 0.050140 0.070362
v 0.038566 0.036666 0.067938
v 0.037650 0.049721 0.070516
v 0.042860 0.045348 0.070695
v 0.040365 0.034531 0.067883
v 0.043683 0.031641 0.067944
v 0.044553 0.031017 0.067997
v 0.045851 0.031210 0.068315
v 0.045747 0.043321 0.070901
v 0.049751 0.037676 0.070528
v 0.048507 0.040208 0.070820
v 0.046223 0.043551 0.071795
v 0.040410 0.048709 0.071045
v 0.040583 0.048877 0.071595
v 0.045854 0.043836 0.071407
v 0.046521 0.042857 0.071091
v 0.047181 0.042479 0.071519
v 0.047313 0.041958 0.071040
v 0.048711 0.040424 0.071060
v 0.040276 0.048544 0.070858
v 0.041637 0.047904 0.071415
v 0.041978 0.047670 0.071752
v 0.042228 0.047177 0.071152
v 0.043379 0.046305 0.071428
v 0.044723 0.045087 0.071787
v 0.044413 0.045070 0.071138
v 0.042952 0.046122 0.070908
v 0.044609 0.045096 0.071410
v 0.039535 0.049193 0.070830
v 0.038562 0.050304 0.071041
v 0.038119 0.050831 0.071642
v 0.034081 0.050368 0.070139
v 0.033916 0.050628 0.070688
v 0.034995 0.050973 0.070496
v 0.035144 0.051261 0.071104
v 0.036494 0.051410 0.071383
v 0.036858 0.051141 0.070903
v 0.037589 0.050931 0.071038
v 0.035939 0.051169 0.070661
v 0.034804 0.050381 0.070065
v 0.037241 0.050664 0.070644
v 0.035831 0.050251 0.067601
v 0.036307 0.050489 0.067813
v 0.045568 0.043523 0.068109
v 0.043515 0.045575 0.068089
v 0.050180 0.038050 0.068293
v 0.050499 0.037311 0.068122
v 0.045440 0.031513 0.065872
v 0.035393 0.041583 0.065708
v 0.037160 0.040084 0.065619
v 0.041036 0.036076 0.065653
v 0.036867 0.037463 0.068063
v 0.036237 0.038595 0.067921
v 0.033465 0.040523 0.068019
v 0.033551 0.040787 0.067898
v 0.039728 0.034472 0.068007
v 0.041183 0.032664 0.067988
v 0.035018 0.039145 0.068075
v 0.041052 0.033371 0.067870
v 0.038239 0.035997 0.068088
v 0.034514 0.040225 0.067878
v 0.041566 0.031609 0.068324
v 0.038260 0.036536 0.067939
v 0.030751 0.043145 0.067759
v 0.037620 0.050180 0.067379
v 0.036761 0.050124 0.067040
v 0.036959 0.050412 0.067419
v 0.035790 0.049520 0.066708
v 0.036564 0.049649 0.066755
v 0.037019 0.050570 0.067940
v 0.035246 0.049845 0.067453
v 0.038367 0.049637 0.067286
v 0.035666 0.049830 0.066996
v 0.038286 0.050063 0.068029
v 0.037417 0.049742 0.066948
v 0.037691 0.050382 0.068047
v 0.036222 0.050227 0.067242
v 0.043259 0.045049 0.067112
v 0.043316 0.045514 0.067498
v 0.042474 0.046449 0.067735
v 0.042305 0.046257 0.067307
v 0.041129 0.046858 0.067035
v 0.040970 0.047657 0.067515
v 0.041995 0.046983 0.068160
v 0.040616 0.048121 0.067799
v 0.040022 0.048679 0.068165
v 0.040158 0.048026 0.067213
v 0.044320 0.044270 0.067263
v 0.044385 0.044538 0.067581
v 0.044809 0.043318 0.067024
v 0.047562 0.041342 0.068206
v 0.046706 0.042218 0.067791
v 0.045408 0.043414 0.067460
v 0.048519 0.039762 0.067336
v 0.048182 0.039586 0.067020
v 0.048541 0.040117 0.067783
v 0.050001 0.037800 0.067274
v 0.044541 0.044573 0.068036
v 0.046475 0.041463 0.067012
v 0.050024 0.038257 0.067782
v 0.046917 0.041794 0.067489
v 0.046853 0.041524 0.067221
v 0.050071 0.035935 0.067129
v 0.050084 0.035523 0.067536
v 0.049596 0.036210 0.066695
v 0.050559 0.036537 0.067901
v 0.050286 0.036860 0.067191
v 0.050426 0.037441 0.067694
v 0.049746 0.037472 0.066963
v 0.047561 0.033738 0.065883
v 0.048832 0.035085 0.066407
v 0.049110 0.034574 0.066957
v 0.047974 0.033721 0.066242
v 0.046057 0.032780 0.065181
v 0.046709 0.032110 0.066091
v 0.048237 0.033755 0.066567
v 0.045678 0.031832 0.065406
v 0.046336 0.032070 0.065588
v 0.046158 0.031714 0.065897
v 0.045329 0.032876 0.065016
v 0.044839 0.031705 0.065607
v 0.046016 0.032327 0.065244
v 0.045153 0.032500 0.065004
v 0.044633 0.032395 0.065130
v 0.045222 0.031976 0.065232
v 0.044237 0.032169 0.065507
v 0.040947 0.037069 0.065138
v 0.042790 0.035701 0.065034
v 0.041747 0.035853 0.065232
v 0.043075 0.034914 0.065053
v 0.042663 0.034224 0.065526
v 0.042960 0.034478 0.065191
v 0.039634 0.038087 0.065295
v 0.039255 0.038001 0.065652
v 0.039757 0.038465 0.065123
v 0.040339 0.037065 0.065464
v 0.040729 0.037963 0.065063
v 0.036632 0.041341 0.065136
v 0.038292 0.040606 0.065068
v 0.037378 0.040329 0.065279
v 0.037994 0.040246 0.065112
v 0.032437 0.044550 0.065132
v 0.032726 0.045317 0.064988
v 0.034491 0.043507 0.065040
v 0.033531 0.043239 0.065487
v 0.034478 0.043004 0.065172
v 0.035447 0.041782 0.065443
v 0.032012 0.045160 0.065220
v 0.031805 0.044678 0.065568
v 0.032640 0.046114 0.065213
v 0.031561 0.045565 0.065748
v 0.031597 0.044983 0.065763
v 0.032200 0.044191 0.065533
v 0.032255 0.046357 0.065487
v 0.031884 0.046448 0.065963
v 0.032043 0.045688 0.065240
v 0.036571 0.037112 0.068478
v 0.039238 0.034301 0.068442
v 0.033169 0.040140 0.068445
v 0.034478 0.038918 0.068517
v 0.036417 0.042336 0.065059
v 0.048501 0.035284 0.066235
vn 0.7637 -0.2001 -0.6138
vn 0.7525 -0.3798 -0.5381
vn 0.5742 -0.1921 -0.7959
vn 0.7750 0.5268 -0.3491
vn 0.8556 0.4811 -0.1908
vn 0.8140 0.3324 -0.4764
vn 0.9206 0.2814 -0.2707
vn 0.8889 -0.1804 -0.4211
vn 0.7889 0.0202 -0.6142
vn 0.5327 0.2229 -0.8164
vn 0.6031 0.4446 -0.6623
vn 0.4613 0.0837 -0.8833
vn 0.8622 0.1304 -0.4895
vn 0.3655 0.3019 -0.8805
vn 0.5858 -0.7153 -0.3811
vn 0.5939 -0.5841 -0.5533
vn 0.4602 -0.2910 -0.8388
vn 0.2847 -0.0539 -0.9571
vn 0.2763 -0.6603 -0.6983
vn 0.2336 -0.4603 -0.8565
vn 0.0453 -0.3065 -0.9508
vn -0.1647 -0.7348 -0.6580
vn 0.0727 -0.7355 -0.6736
vn 0.0401 -0.0306 -0.9987
vn -0.3422 -0.6341 -0.6934
vn -0.3140 -0.8913 -0.3271
vn -0.2893 -0.3562 -0.8885
vn -0.4780 -0.4500 -0.7543
vn -0.4521 -0.6079 -0.6527
vn -0.5322 -0.5771 -0.6194
vn -0.4268 -0.4508 -0.7840
vn -0.3687 0.0305 -0.9291
vn -0.0915 0.2212 -0.9709
vn 0.0119 0.0896 -0.9959
vn -0.6410 -0.4350 -0.6324
vn -0.5218 -0.2330 -0.8207
vn -0.6909 -0.2160 -0.6899
vn -0.6607 0.0098 -0.7505
vn -0.5580 0.2257 -0.7986
vn -0.3241 0.4263 -0.8445
vn -0.7716 0.2123 -0.5996
vn 0.0054 0.3561 -0.9344
vn -0.5986 0.4259 -0.6784
vn -0.4042 0.6078 -0.6835
vn -0.5829 0.6519 -0.4850
vn -0.1836 -0.1511 -0.9713
vn 0.3419 0.3142 -0.8856
vn 0.6628 0.5735 -0.4814
vn 0.1901 0.1843 -0.9643
vn 0.2744 0.2602 -0.9257
vn 0.1905 0.1908 -0.9630
vn 0.1747 0.2036 -0.9633
vn 0.2314 0.2154 -0.9487
vn 0.2283 0.1839 -0.9561
vn 0.2350 0.2031 -0.9505
vn 0.1856 0.2132 -0.9592
vn 0.1912 0.1923 -0.9625
vn 0.1719 0.1766 -0.9691
vn -0.0088 -0.0576 -0.9983
vn 0.1940 0.2245 -0.9550
vn 0.0538 0.4305 -0.9010
vn 0.2016 0.2306 -0.9519
vn 0.2688 0.4460 -0.8537
vn 0.1088 0.1111 -0.9878
vn 0.2183 0.2236 -0.9499
vn 0.3190 0.3299 -0.8885
vn 0.2294 0.2317 -0.9453
vn -0.0001 0.0344 -0.9994
vn 0.2937 0.2989 -0.9080
vn 0.1850 0.1763 -0.9668
vn 0.1872 0.1903 -0.9637
vn 0.1753 0.1751 -0.9688
vn 0.3569 0.3701 -0.8577
vn 0.1996 0.1818 -0.9629
vn 0.3488 0.3451 -0.8714
vn 0.2140 0.1910 -0.9580
vn -0.6907 0.7230 -0.0107
vn -0.6910 0.7226 -0.0217
vn -0.6911 0.7214 -0.0444
vn -0.6910 0.7202 -0.0608
vn 0.7087 -0.7055 -0.0085
vn 0.6601 0.6643 -0.3507
vn 0.6695 0.6491 -0.3612
vn 0.5356 0.5409 -0.6485
vn 0.5525 0.5035 -0.6642
vn 0.7144 0.6497 -0.2599
vn 0.5619 0.5312 -0.6341
vn 0.7115 0.6824 -0.1674
vn 0.6778 0.6099 -0.4107
vn 0.6491 0.6827 -0.3356
vn 0.6273 0.7053 -0.3302
vn 0.6653 0.7280 -0.1657
vn 0.6935 0.6956 -0.1878
vn 0.5845 0.5246 -0.6190
vn 0.5378 0.5798 -0.6121
vn 0.5269 0.6006 -0.6013
vn 0.5954 0.7133 -0.3697
vn 0.6789 0.7198 -0.1445
vn -0.7055 0.7087 -0.0085
vn 0.7079 -0.6979 0.1086
vn 0.7112 -0.7029 0.0134
vn 0.7100 -0.7007 0.0703
vn 0.7110 -0.7031 -0.0089
vn 0.4991 0.6648 -0.5559
vn 0.5882 0.6583 -0.4696
vn 0.4937 0.8281 -0.2657
vn 0.3921 0.7929 -0.4664
vn -0.2852 0.6613 -0.6938
vn -0.4098 0.7860 -0.4629
vn -0.1592 0.7854 -0.5982
vn -0.1701 0.9198 -0.3535
vn 0.1591 0.9346 -0.3182
vn 0.2574 0.7984 -0.5443
vn 0.0645 0.7688 -0.6362
vn -0.5858 0.7762 -0.2334
vn -0.4955 0.8660 0.0672
vn -0.4448 0.8690 -0.2169
vn 0.3507 0.9072 0.2323
vn 0.4655 0.8448 0.2641
vn 0.5530 0.8311 -0.0583
vn 0.0315 0.9782 0.2051
vn 0.1039 0.9930 -0.0570
vn -0.2429 0.9630 -0.1165
vn 0.7499 0.6561 0.0849
vn 0.8582 0.4351 0.2724
vn 0.8614 0.4958 0.1101
vn 0.6667 0.6983 0.2606
vn 0.7242 0.6896 -0.0015
vn 0.7073 0.7061 -0.0334
vn 0.6940 0.7195 -0.0255
vn 0.6641 0.7466 0.0393
vn 0.6318 0.7721 0.0684
vn 0.8344 -0.5132 -0.2009
vn 0.8158 -0.5780 0.0192
vn 0.7110 -0.7027 -0.0280
vn 0.9758 -0.1378 0.1697
vn 0.9818 -0.1599 -0.1023
vn 0.9738 0.2173 0.0678
vn 0.6992 -0.6670 -0.2573
vn 0.4793 -0.8727 -0.0926
vn -0.5757 -0.6097 -0.5448
vn -0.2035 -0.9474 -0.2470
vn -0.6450 -0.6957 -0.3161
vn -0.3037 -0.8075 -0.5058
vn 0.0762 -0.9318 -0.3550
vn 0.4564 -0.8285 -0.3246
vn -0.5007 -0.6495 -0.5723
vn -0.6515 -0.6859 -0.3243
vn -0.7338 -0.6031 -0.3126
vn -0.5919 -0.6078 -0.5294
vn -0.5778 -0.6829 -0.4471
vn -0.5818 -0.6313 -0.5128
vn -0.6189 -0.5949 -0.5129
vn -0.6364 -0.5657 -0.5244
vn -0.6401 -0.5181 -0.5674
vn -0.8829 0.1766 -0.4352
vn -0.9688 -0.0923 -0.2302
vn -0.8579 0.5059 -0.0901
vn -0.7387 0.5861 -0.3328
vn -0.8732 -0.1900 -0.4488
vn -0.7575 -0.3708 -0.5373
vn -0.1335 -0.1243 -0.9832
vn -0.1726 -0.1974 -0.9650
vn -0.3361 -0.3880 -0.8582
vn -0.2058 -0.2957 -0.9329
vn -0.4193 -0.5087 -0.7519
vn -0.3390 -0.4296 -0.8370
vn -0.3565 -0.2942 -0.8868
vn -0.4392 -0.3259 -0.8372
vn -0.6056 -0.4320 -0.6683
vn -0.3640 -0.3723 -0.8538
vn -0.3872 -0.3491 -0.8533
vn -0.1872 -0.1250 -0.9743
vn -0.4665 -0.4761 -0.7455
vn 0.2463 0.4314 -0.8679
vn 0.3543 0.7677 -0.5340
vn 0.4662 0.6238 -0.6273
vn -0.3306 0.7133 -0.6181
vn 0.0528 0.6593 -0.7500
vn -0.1284 0.5346 -0.8353
vn 0.0894 0.3869 -0.9178
vn -0.2072 0.8080 -0.5515
vn 0.1033 0.8787 -0.4661
vn 0.3757 0.8753 -0.3046
vn 0.6322 0.6378 -0.4399
vn 0.3116 0.3462 -0.8849
vn 0.3994 0.4206 -0.8146
vn 0.3451 0.3270 -0.8797
vn 0.5630 0.6456 -0.5160
vn 0.6339 0.6940 -0.3413
vn 0.5035 0.5530 -0.6639
vn 0.5974 0.6199 -0.5088
vn 0.6192 0.7376 -0.2694
vn 0.4219 0.5012 -0.7555
vn 0.4977 0.4992 -0.7093
vn 0.6089 0.5820 -0.5389
vn 0.4940 0.4418 -0.7489
vn 0.6395 0.5683 -0.5178
vn 0.7142 0.6508 -0.2575
vn 0.4192 0.2358 -0.8767
vn 0.3671 0.3091 -0.8773
vn 0.6674 0.3914 -0.6335
vn 0.6026 0.4920 -0.6284
vn 0.3101 0.2826 -0.9077
vn 0.7964 0.5502 -0.2509
vn 0.7510 0.6120 -0.2480
vn 0.3304 0.0694 -0.9413
vn 0.4587 0.0105 -0.8885
vn 0.5569 -0.2084 -0.8040
vn 0.7683 -0.2649 -0.5827
vn 0.6722 -0.3802 -0.6353
vn 0.7765 0.0549 -0.6277
vn 0.9115 0.2906 -0.2911
vn 0.6663 -0.4042 -0.6266
vn 0.3681 -0.0506 -0.9284
vn 0.5456 -0.2055 -0.8125
vn 0.5660 -0.5199 -0.6398
vn 0.6981 -0.5001 -0.5124
vn 0.4217 -0.2980 -0.8564
vn 0.2138 -0.6876 -0.6939
vn 0.0150 -0.2146 -0.9766
vn 0.1541 0.0605 -0.9862
vn -0.0309 -0.5866 -0.8093
vn -0.3114 -0.3828 -0.8698
vn 0.0150 0.0450 -0.9989
vn -0.2880 -0.2473 -0.9252
vn 0.0435 0.0433 -0.9981
vn -0.3975 -0.3348 -0.8543
vn -0.1743 -0.1306 -0.9760
vn -0.3976 -0.3144 -0.8620
vn -0.4321 -0.4081 -0.8042
vn -0.2150 -0.2041 -0.9551
vn -0.5036 -0.4692 -0.7254
vn 0.0708 0.0711 -0.9950
vn -0.4547 -0.5538 -0.6976
vn -0.2921 -0.3711 -0.8815
vn -0.2242 -0.2511 -0.9416
vn -0.0970 -0.1435 -0.9849
vn 0.0773 0.0686 -0.9946
vn -0.1758 -0.1840 -0.9671
vn -0.3930 -0.4338 -0.8108
vn -0.3657 -0.3046 -0.8795
vn -0.0748 0.0988 -0.9923
vn -0.5684 -0.0716 -0.8196
vn -0.1198 0.3831 -0.9159
vn -0.5267 0.2484 -0.8129
vn -0.4589 0.5511 -0.6970
vn -0.5050 -0.4348 -0.7456
vn -0.4214 -0.4870 -0.7650
s 1
f 13//1 6//2 5//3
f 7//4 8//5 9//6
f 9//6 8//5 10//7
f 11//8 6//2 13//1
f 11//8 13//1 12//9
f 15//10 14//11 9//6
f 9//6 14//11 7//4
f 12//9 13//1 17//12
f 9//6 18//13 15//10
f 18//13 12//9 15//10
f 9//6 10//7 18//13
f 15//10 12//9 17//12
f 14//11 15//10 16//14
f 18//13 11//8 12//9
f 13//1 5//3 17//12
f 24//15 19//16 6//2
f 6//2 19//16 5//3
f 19//16 20//17 5//3
f 5//3 21//18 17//12
f 20//17 21//18 5//3
f 19//16 25//19 20//17
f 20//17 25//19 22//20
f 21//18 22//20 26//21
f 25//19 29//22 22//20
f 24//15 25//19 19//16
f 25//19 30//23 29//22
f 21//18 26//21 28//24
f 27//25 29//22 30//26
f 29//22 31//27 26//21
f 31//27 29//22 27//25
f 22//20 29//22 26//21
f 26//21 31//27 28//24
f 27//25 23//28 31//27
f 20//17 22//20 21//18
f 1//29 36//30 35//31
f 39//32 38//33 34//34
f 36//30 4//35 35//31
f 35//31 4//35 37//36
f 37//36 4//35 3//37
f 39//32 37//36 40//38
f 37//36 3//37 40//38
f 39//32 41//39 38//33
f 41//39 32//40 38//33
f 40//38 42//41 41//39
f 38//33 32//40 33//42
f 43//43 44//44 32//40
f 43//43 2//45 44//44
f 42//41 43//43 41//39
f 35//31 37//36 124//46
f 39//32 124//46 37//36
f 41//39 43//43 32//40
f 40//38 41//39 39//32
f 34//34 124//46 39//32
f 32//40 44//44 33//42
f 52//47 14//11 16//14
f 53//48 14//11 52//47
f 53//48 7//4 14//11
f 53//48 8//5 7//4
f 46//49 71//50 45//51
f 55//52 34//34 38//33
f 15//10 70//53 16//14
f 55//52 38//33 33//42
f 17//12 54//54 56//55
f 57//56 55//52 33//42
f 15//10 56//55 70//53
f 15//10 17//12 56//55
f 58//57 34//34 55//52
f 59//58 121//59 34//34
f 59//58 34//34 58//57
f 60//60 33//42 100//61
f 60//60 57//56 33//42
f 61//62 60//60 100//61
f 101//63 61//62 100//61
f 62//64 121//59 59//58
f 63//65 61//62 101//63
f 89//66 63//65 101//63
f 64//67 63//65 89//66
f 65//68 62//64 59//58
f 80//69 64//67 89//66
f 50//70 80//69 89//66
f 66//71 65//68 59//58
f 49//72 80//69 50//70
f 87//73 64//67 80//69
f 28//24 65//68 66//71
f 67//74 28//24 66//71
f 21//18 28//24 67//74
f 69//75 64//67 87//73
f 68//76 21//18 67//74
f 71//50 64//67 69//75
f 70//53 64//67 71//50
f 52//47 70//53 71//50
f 54//54 21//18 68//76
f 17//12 21//18 54//54
f 16//14 70//53 52//47
f 46//49 52//47 71//50
f 47//77 45//78 79//79
f 79//79 45//78 71//80
f 52//81 46//81 53//81
f 88//82 75//83 86//84
f 69//75 78//85 71//50
f 75//83 77//86 76//87
f 72//88 77//86 75//83
f 72//88 47//89 77//86
f 84//90 81//91 82//92
f 88//82 84//90 85//93
f 75//83 88//82 85//93
f 85//93 72//88 75//83
f 75//83 76//87 86//84
f 86//84 76//87 69//75
f 78//85 76//87 77//86
f 78//85 77//86 47//89
f 71//50 78//85 79//94
f 47//89 79//94 78//85
f 83//95 80//69 73//96
f 73//96 81//91 83//95
f 83//95 81//91 84//90
f 86//84 84//90 88//82
f 69//75 76//87 78//85
f 74//97 82//92 81//91
f 81//91 73//96 74//97
f 80//69 83//95 87//73
f 86//84 83//95 84//90
f 48//98 84//90 82//92
f 83//95 86//84 87//73
f 85//93 84//90 48//98
f 87//73 86//84 69//75
f 51//99 50//99 89//99
f 80//100 49//101 73//102
f 49//101 74//103 73//102
f 90//104 89//66 101//63
f 90//104 51//105 89//66
f 91//106 51//105 90//104
f 98//107 90//104 101//63
f 98//107 91//106 90//104
f 92//108 93//109 94//110
f 94//110 93//109 95//111
f 96//112 91//106 98//107
f 96//112 98//107 97//113
f 100//61 92//108 94//110
f 100//61 99//114 101//63
f 94//110 95//111 99//114
f 99//114 100//61 94//110
f 97//113 98//107 101//63
f 95//111 96//112 99//114
f 99//114 97//113 101//63
f 99//114 96//112 97//113
f 131//115 60//116 102//117
f 136//118 63//119 134//120
f 136//118 61//121 63//119
f 130//122 61//121 136//118
f 103//123 60//116 61//121
f 103//123 61//121 130//122
f 102//117 60//116 103//123
f 151//124 70//125 106//126
f 151//124 64//127 70//125
f 104//128 64//127 151//124
f 158//129 64//127 104//128
f 105//130 64//127 158//129
f 144//131 64//127 105//130
f 146//132 64//127 144//131
f 146//132 63//119 64//127
f 134//120 63//119 146//132
f 164//133 54//134 172//135
f 164//133 56//136 54//134
f 166//137 56//136 164//133
f 107//138 70//125 56//136
f 107//138 56//136 166//137
f 106//126 70//125 107//138
f 175//139 172//135 68//140
f 172//135 54//134 68//140
f 186//141 67//142 66//143
f 181//144 67//142 186//141
f 108//145 67//142 181//144
f 108//145 68//140 67//142
f 179//146 68//140 108//145
f 175//139 68//140 179//146
f 205//147 59//148 58//149
f 205//147 58//149 213//150
f 109//151 59//148 205//147
f 110//152 59//148 109//151
f 194//153 59//148 110//152
f 111//154 66//143 59//148
f 111//154 59//148 194//153
f 191//155 66//143 111//154
f 186//141 66//143 191//155
f 211//156 55//157 57//158
f 211//156 57//158 215//159
f 212//160 55//157 211//156
f 209//161 58//149 55//157
f 209//161 55//157 212//160
f 213//150 58//149 209//161
f 60//116 131//115 57//158
f 57//158 131//115 215//159
f 2//45 93//109 44//44
f 93//109 92//108 44//44
f 44//44 92//108 33//42
f 92//108 100//61 33//42
f 62//64 123//162 113//163
f 118//164 115//165 121//59
f 219//166 114//167 118//164
f 116//168 117//169 122//170
f 62//64 65//68 123//162
f 112//171 123//162 120//172
f 118//164 113//163 112//171
f 118//164 114//167 115//165
f 31//27 119//173 28//24
f 23//28 117//169 31//27
f 23//28 122//170 117//169
f 28//24 119//173 65//68
f 118//164 112//171 217//174
f 31//27 117//169 119//173
f 119//173 117//169 116//168
f 116//168 65//68 119//173
f 65//68 116//168 123//162
f 120//172 123//162 116//168
f 112//171 113//163 123//162
f 115//165 124//46 121//59
f 62//64 113//163 121//59
f 1//29 35//31 114//167
f 114//167 35//31 115//165
f 121//59 124//46 34//34
f 115//165 35//31 124//46
f 121//59 113//163 118//164
f 135//175 125//176 132//177
f 133//178 126//179 128//180
f 126//179 129//181 128//180
f 102//117 103//123 137//182
f 131//115 102//117 133//178
f 133//178 102//117 137//182
f 125//176 134//120 132//177
f 126//179 137//182 127//183
f 135//175 126//179 125//176
f 125//176 136//184 134//120
f 127//183 103//123 130//122
f 137//182 103//123 127//183
f 126//179 127//183 125//176
f 125//176 130//122 136//184
f 127//183 130//122 125//176
f 126//179 133//178 137//182
f 135//175 129//181 126//179
f 149//185 105//130 158//129
f 142//186 138//187 150//188
f 143//189 140//190 141//191
f 140//190 139//192 141//191
f 145//193 140//190 143//189
f 147//194 143//189 141//191
f 145//193 144//131 140//190
f 132//177 142//186 135//175
f 146//132 144//131 145//193
f 132//177 147//194 142//186
f 132//177 145//193 143//189
f 139//192 149//185 148//195
f 149//185 139//192 105//130
f 134//120 145//193 132//177
f 134//120 146//132 145//193
f 150//188 138//187 148//195
f 139//192 140//190 105//130
f 142//186 141//191 138//187
f 140//190 144//131 105//130
f 141//191 142//186 147//194
f 147//194 132//177 143//189
f 138//187 141//191 139//192
f 148//195 138//187 139//192
f 150//188 153//196 162//197
f 162//197 153//196 161//198
f 161//198 153//196 152//199
f 150//188 148//195 153//196
f 158//129 104//128 153//196
f 169//200 155//201 157//202
f 155//201 154//203 157//202
f 162//197 155//201 159//204
f 157//202 154//203 160//205
f 154//203 156//206 160//205
f 160//205 151//124 106//126
f 156//206 151//124 160//205
f 161//198 156//206 154//203
f 152//199 151//124 156//206
f 152//199 104//128 151//124
f 153//196 104//128 152//199
f 148//195 149//185 153//196
f 158//129 153//196 149//185
f 152//199 156//206 161//198
f 154//203 155//201 162//197
f 162//197 161//198 154//203
f 162//197 159//204 150//188
f 222//207 165//208 171//209
f 171//209 163//210 172//211
f 165//208 163//210 171//209
f 163//210 164//133 172//211
f 166//137 164//133 163//210
f 167//212 166//137 163//210
f 157//202 167//212 169//200
f 168//213 166//137 167//212
f 168//213 157//202 160//205
f 165//208 167//212 163//210
f 168//213 160//205 106//126
f 165//208 169//200 167//212
f 157//202 168//213 167//212
f 106//126 107//138 168//213
f 168//213 107//138 166//137
f 172//211 173//214 171//209
f 174//215 170//216 178//217
f 170//216 173//214 178//217
f 171//209 173//214 170//216
f 176//218 172//211 175//139
f 173//214 175//139 178//217
f 176//218 175//139 173//214
f 222//207 170//216 174//215
f 170//216 222//207 171//209
f 172//211 176//218 173//214
f 182//219 178//217 177//220
f 177//220 178//217 179//146
f 182//219 174//215 178//217
f 174//215 183//221 180//222
f 183//221 185//223 184//224
f 175//139 179//146 178//217
f 184//224 185//223 181//144
f 185//223 177//220 181//144
f 177//220 108//145 181//144
f 186//141 184//224 181//144
f 174//215 182//219 183//221
f 183//221 182//219 185//223
f 182//219 177//220 185//223
f 179//146 108//145 177//220
f 188//225 187//226 197//227
f 188//225 189//228 187//226
f 190//229 189//228 188//225
f 189//228 190//229 192//230
f 187//226 193//231 195//232
f 183//221 190//229 180//222
f 180//222 190//229 188//225
f 196//233 189//228 111//154
f 184//224 192//230 183//221
f 183//221 192//230 190//229
f 186//141 192//230 184//224
f 192//230 191//155 189//228
f 189//228 191//155 111//154
f 186//141 191//155 192//230
f 197//227 187//226 195//232
f 187//226 189//228 196//233
f 197//227 195//232 199//234
f 194//153 193//231 196//233
f 196//233 193//231 187//226
f 196//233 111//154 194//153
f 207//235 206//236 198//237
f 204//238 198//237 206//236
f 198//237 221//239 199//234
f 199//234 201//240 198//237
f 198//237 201//240 200//241
f 200//241 207//235 198//237
f 110//152 109//151 207//235
f 204//238 206//236 202//242
f 205//147 207//235 109//151
f 193//231 201//240 195//232
f 195//232 201//240 199//234
f 193//231 200//241 201//240
f 194//153 110//152 193//231
f 193//231 110//152 200//241
f 202//242 205//147 213//150
f 221//239 204//238 203//243
f 204//238 221//239 198//237
f 200//241 110//152 207//235
f 205//147 202//242 206//236
f 207//235 205//147 206//236
f 208//244 209//161 211//156
f 209//161 212//160 211//156
f 208//244 203//243 202//242
f 202//242 209//161 208//244
f 213//150 209//161 202//242
f 210//245 216//246 214//247
f 203//243 216//246 210//245
f 214//247 216//246 215//159
f 216//246 211//156 215//159
f 203//243 208//244 216//246
f 204//238 202//242 203//243
f 208//244 211//156 216//246
f 203//243 210//245 129//181
f 129//181 210//245 128//180
f 128//180 214//247 133//178
f 210//245 214//247 128//180
f 133//178 215//159 131//115
f 214//247 215//159 133//178
f 217//174 112//171 120//172
f 218//248 116//168 122//170
f 218//248 217//174 120//172
f 218//248 120//172 116//168
f 220//249 219//166 118//164
f 220//249 118//164 217//174
f 219//166 1//29 114//167
f 199//234 142//186 150//188
f 129//181 135//175 142//186
f 221//239 142//186 199//234
f 221//239 129//181 142//186
f 203//243 129//181 221//239
f 165//208 222//207 155//201
f 169//200 165//208 155//201
f 199//234 159//204 197//227
f 199//234 150//188 159//204
f 159//204 188//225 197//227
f 155//201 188//225 159//204
f 155//201 174//215 180//222
f 155//201 180//222 188//225
f 222//207 174//215 155//201
