# Blender 4.5.10 LTS
# www.blender.org
o left_elbow_link_001_001
v 0.070924 0.002326 0.019331
v 0.070924 -0.004431 0.018642
v 0.070925 0.015405 0.016025
v 0.070924 0.009059 0.018442
v 0.070924 -0.010847 0.016415
v 0.070939 0.017599 -0.034590
v 0.070940 0.011485 -0.037548
v 0.070940 -0.008521 -0.037250
v 0.070940 -0.001936 -0.038915
v 0.070939 -0.014544 -0.034113
v 0.070927 0.025610 0.007200
v 0.070940 0.004854 -0.039016
v 0.070940 0.001971 -0.039166
v 0.070926 -0.016576 0.012768
v 0.070927 -0.021309 0.007898
v 0.070926 0.021023 0.012209
v 0.070929 0.028918 0.001269
v 0.070938 0.022866 -0.030303
v 0.070936 0.027002 -0.024916
v 0.070936 -0.023655 -0.024163
v 0.070938 -0.019681 -0.029670
v 0.070933 0.031063 -0.012051
v 0.070935 0.029784 -0.018721
v 0.070931 0.030769 -0.005266
v 0.070932 -0.027332 -0.011183
v 0.070934 -0.026252 -0.017888
v 0.070929 -0.024792 0.002067
v 0.070930 -0.026836 -0.004409
v 0.097917 -0.005277 -0.038274
v 0.097917 -0.008521 -0.037250
v 0.097917 -0.011624 -0.035857
v 0.097917 -0.014544 -0.034113
v 0.097917 -0.017242 -0.032041
v 0.097917 -0.019681 -0.029670
v 0.097917 -0.021828 -0.027032
v 0.097917 -0.023655 -0.024163
v 0.097917 -0.025136 -0.021101
v 0.097917 -0.026252 -0.017888
v 0.097917 -0.026987 -0.014567
v 0.097917 -0.027332 -0.011183
v 0.097917 -0.027281 -0.007782
v 0.097917 -0.026836 -0.004409
v 0.097917 -0.026003 -0.001112
v 0.097917 -0.024792 0.002067
v 0.097917 -0.023220 0.005084
v 0.097917 -0.021309 0.007898
v 0.097917 -0.019084 0.010470
v 0.097917 -0.016576 0.012768
v 0.097917 -0.013817 0.014758
v 0.097917 -0.010847 0.016415
v 0.097917 -0.007704 0.017715
v 0.097917 -0.004431 0.018643
v 0.097917 -0.001073 0.019183
v 0.097917 0.002326 0.019331
v 0.097917 0.005718 0.019082
v 0.097917 0.009059 0.018442
v 0.097917 0.012302 0.017418
v 0.097917 0.015405 0.016025
v 0.097917 0.018325 0.014280
v 0.097917 0.021023 0.012209
v 0.097917 0.023463 0.009838
v 0.097917 0.025610 0.007200
v 0.097917 0.027437 0.004331
v 0.097917 0.028918 0.001269
v 0.097917 0.030034 -0.001945
v 0.097917 0.030769 -0.005266
v 0.097917 0.031113 -0.008650
v 0.097917 0.031063 -0.012051
v 0.097917 0.030618 -0.015423
v 0.097917 0.029784 -0.018721
v 0.097917 0.028574 -0.021899
v 0.097917 0.027002 -0.024916
v 0.097917 0.025091 -0.027730
v 0.097917 0.022866 -0.030303
v 0.097917 0.020357 -0.032600
v 0.097917 0.017599 -0.034590
v 0.097917 0.014628 -0.036247
v 0.097917 0.011485 -0.037548
v 0.097917 0.008213 -0.038475
v 0.097917 0.004854 -0.039016
v 0.097917 0.001456 -0.039163
v 0.097917 -0.001936 -0.038915
v 0.100000 0.002185 0.010082
v 0.100000 -0.003461 0.009355
v 0.100000 0.001888 -0.009916
v 0.100000 0.017196 0.002955
v 0.100000 0.012950 0.006746
v 0.100000 0.007807 0.009188
v 0.100000 0.021640 -0.013056
v 0.100000 0.021724 -0.007364
v 0.100000 0.020202 -0.001879
v 0.100000 0.012449 -0.026900
v 0.100000 0.016807 -0.023237
v 0.100000 0.019955 -0.018494
v 0.100000 -0.004031 -0.029020
v 0.100000 0.001591 -0.029914
v 0.100000 0.007237 -0.029188
v 0.100000 -0.016426 -0.017953
v 0.100000 -0.013420 -0.022787
v 0.100000 -0.009174 -0.026579
v 0.100000 -0.016179 -0.001338
v 0.100000 -0.017864 -0.006776
v 0.100000 -0.017949 -0.012468
v 0.100000 -0.008674 0.007068
v 0.100000 -0.013031 0.003404
v 0.098917 0.001591 -0.029914
v 0.098917 -0.004031 -0.029020
v 0.098917 -0.009174 -0.026579
v 0.098917 -0.013420 -0.022787
v 0.098917 -0.016426 -0.017953
v 0.098917 -0.017949 -0.012468
v 0.098917 -0.017864 -0.006776
v 0.098917 -0.016179 -0.001338
v 0.098917 -0.013031 0.003404
v 0.098917 -0.008674 0.007068
v 0.098917 -0.003461 0.009355
v 0.098917 0.002185 0.010082
v 0.098917 0.007807 0.009188
v 0.098917 0.012950 0.006746
v 0.098917 0.017196 0.002955
v 0.098917 0.020202 -0.001879
v 0.098917 0.021724 -0.007364
v 0.098917 0.021640 -0.013056
v 0.098917 0.019955 -0.018494
v 0.098917 0.016807 -0.023237
v 0.098917 0.012449 -0.026900
v 0.098917 0.007237 -0.029188
v 0.098917 0.005587 0.018091
v 0.098917 -0.016588 -0.031285
v 0.098917 -0.011162 -0.034970
v 0.098917 -0.005032 -0.037305
v 0.098917 0.001471 -0.038163
v 0.098917 0.007996 -0.037498
v 0.098917 0.029072 -0.002217
v 0.098917 0.026563 0.003844
v 0.098917 0.022725 0.009163
v 0.098917 0.017764 0.013453
v 0.098917 0.011946 0.016484
v 0.098917 0.002311 0.018331
v 0.098917 -0.000971 0.018188
v 0.098917 -0.007376 0.016771
v 0.098917 -0.013280 0.013914
v 0.098917 -0.018367 0.009773
v 0.098917 0.014193 -0.035347
v 0.098917 0.019726 -0.031824
v 0.098917 0.024298 -0.027121
v 0.098917 0.027661 -0.021490
v 0.098917 0.029636 -0.015235
v 0.098917 0.030114 -0.008693
v 0.098917 -0.022362 0.004571
v 0.098917 -0.025049 -0.001413
v 0.098917 -0.026284 -0.007855
v 0.098917 -0.026000 -0.014408
v 0.098917 -0.024212 -0.020719
v 0.098917 -0.021017 -0.026447
vn -0.0006 -0.2451 -0.9695
vn -0.0068 -0.3559 -0.9345
vn -0.0039 -0.1533 -0.9882
vn -0.0000 -0.3559 -0.9345
vn -0.0006 -0.4620 -0.8869
vn -0.0068 -0.5619 -0.8272
vn -0.0000 -0.5619 -0.8272
vn -0.0006 -0.6541 -0.7564
vn -0.0068 -0.7375 -0.6753
vn -0.0000 -0.7375 -0.6754
vn -0.0006 -0.8109 -0.5852
vn -0.0068 -0.8733 -0.4870
vn -0.0000 -0.8734 -0.4871
vn -0.0006 -0.9240 -0.3824
vn -0.0068 -0.9621 -0.2725
vn -0.0000 -0.9621 -0.2725
vn -0.0006 -0.9873 -0.1590
vn -0.0068 -0.9990 -0.0433
vn -0.0000 -0.9991 -0.0433
vn -0.0006 -0.9973 0.0730
vn -0.0068 -0.9821 0.1883
vn -0.0000 -0.9821 0.1883
vn -0.0006 -0.9536 0.3010
vn -0.0068 -0.9122 0.4097
vn -0.0000 -0.9122 0.4097
vn -0.0006 -0.8585 0.5128
vn -0.0068 -0.7931 0.6090
vn -0.0000 -0.7932 0.6090
vn -0.0006 -0.7171 0.6970
vn -0.0068 -0.6313 0.7755
vn -0.0000 -0.6313 0.7755
vn -0.0006 -0.5370 0.8436
vn -0.0068 -0.4354 0.9002
vn -0.0000 -0.4355 0.9002
vn -0.0006 -0.3280 0.9447
vn -0.0068 -0.2161 0.9763
vn -0.0000 -0.2161 0.9764
vn -0.0006 -0.1013 0.9949
vn -0.0068 0.0149 0.9999
vn -0.0000 0.0149 0.9999
vn -0.0006 0.1308 0.9914
vn -0.0068 0.2450 0.9695
vn -0.0000 0.2451 0.9695
vn -0.0006 0.3559 0.9345
vn -0.0068 0.4620 0.8868
vn -0.0000 0.4620 0.8869
vn -0.0006 0.5619 0.8272
vn -0.0068 0.6541 0.7564
vn -0.0000 0.6541 0.7564
vn -0.0006 0.7375 0.6754
vn -0.0068 0.8109 0.5852
vn -0.0000 0.8109 0.5852
vn -0.0006 0.8734 0.4871
vn -0.0068 0.9240 0.3824
vn -0.0000 0.9240 0.3824
vn -0.0006 0.9621 0.2725
vn -0.0068 0.9873 0.1590
vn -0.0000 0.9873 0.1590
vn -0.0006 0.9991 0.0433
vn -0.0068 0.9973 -0.0730
vn -0.0000 0.9973 -0.0730
vn -0.0006 0.9821 -0.1883
vn -0.0068 0.9536 -0.3010
vn -0.0000 0.9536 -0.3010
vn -0.0006 0.9122 -0.4097
vn -0.0068 0.8585 -0.5128
vn -0.0000 0.8585 -0.5128
vn -0.0006 0.7932 -0.6090
vn -0.0068 0.7171 -0.6970
vn -0.0000 0.7171 -0.6970
vn -0.0006 0.6313 -0.7755
vn -0.0068 0.5370 -0.8435
vn -0.0000 0.5370 -0.8436
vn -0.0006 0.4355 -0.9002
vn -0.0068 0.3280 -0.9446
vn -0.0000 0.3280 -0.9447
vn -0.0006 0.2161 -0.9764
vn -0.0034 0.1323 -0.9912
vn 0.0004 0.1016 -0.9948
vn -0.0005 -0.0057 -1.0000
vn 0.0004 -0.0152 -0.9999
vn -0.0000 -0.1308 -0.9914
vn 1.0000 -0.0000 -0.0000
vn -0.0000 -0.0149 -0.9999
vn -0.0000 -0.2960 -0.9552
vn -0.0000 -0.5531 -0.8331
vn -0.0000 -0.7654 -0.6436
vn -0.0000 -0.9157 -0.4018
vn -0.0000 -0.9918 -0.1276
vn -0.0000 -0.9876 0.1570
vn -0.0000 -0.9034 0.4289
vn -0.0000 -0.7459 0.6660
vn -0.0000 -0.5281 0.8492
vn -0.0000 -0.2674 0.9636
vn -0.0000 0.2960 0.9552
vn -0.0000 0.5531 0.8331
vn -0.0000 0.7654 0.6436
vn -0.0000 0.9157 0.4018
vn -0.0000 0.9918 0.1276
vn -0.0000 0.9876 -0.1570
vn -0.0000 0.9034 -0.4289
vn -0.0000 0.7459 -0.6660
vn -0.0000 0.5281 -0.8492
vn -0.0000 0.2674 -0.9636
vn 0.7237 -0.0127 -0.6900
vn 0.7071 -0.0105 -0.7070
vn 0.7510 0.0669 -0.6569
vn 0.7155 0.1667 -0.6784
vn 0.7162 0.1671 -0.6776
vn 0.7153 0.3166 -0.6230
vn 0.7976 0.1748 -0.5774
vn 0.7162 0.3189 -0.6208
vn 0.7237 0.4338 -0.5367
vn 0.7976 0.3032 -0.5215
vn 0.7071 0.4464 -0.5484
vn 0.7510 0.4735 -0.4602
vn 0.7155 0.5638 -0.4126
vn 0.7162 0.5636 -0.4116
vn 0.7237 0.6285 -0.2850
vn 0.7976 0.5050 -0.3299
vn 0.7071 0.6450 -0.2897
vn 0.7510 0.6296 -0.1987
vn 0.7155 0.6890 -0.1156
vn 0.7162 0.6884 -0.1149
vn 0.7153 0.6974 0.0439
vn 0.7976 0.5993 -0.0682
vn 0.7162 0.6963 0.0469
vn 0.7153 0.6685 0.2036
vn 0.7976 0.5989 0.0718
vn 0.7162 0.6667 0.2063
vn 0.7237 0.6039 0.3340
vn 0.7976 0.5662 0.2080
vn 0.7071 0.6176 0.3444
vn 0.7510 0.5354 0.3864
vn 0.7155 0.5042 0.4836
vn 0.7162 0.5032 0.4835
vn 0.7237 0.3898 0.5695
vn 0.7976 0.4126 0.4400
vn 0.7071 0.3973 0.5849
vn 0.7510 0.3051 0.5856
vn 0.7155 0.2335 0.6584
vn 0.7162 0.2327 0.6580
vn 0.7154 0.0989 0.6916
vn 0.7976 0.1713 0.5784
vn 0.7071 0.0925 0.7010
vn 0.7071 0.0105 0.7070
vn 0.7157 -0.0758 0.6943
vn 0.7071 -0.0716 0.7035
vn 0.7510 -0.1427 0.6447
vn 0.7240 -0.2263 0.6517
vn 0.7071 -0.2319 0.6680
vn 0.7510 -0.2875 0.5944
vn 0.7240 -0.3705 0.5819
vn 0.7071 -0.3797 0.5965
vn 0.7510 -0.4168 0.5120
vn 0.7240 -0.4947 0.4808
vn 0.7071 -0.5071 0.4928
vn 0.7510 -0.5237 0.4021
vn 0.7240 -0.5922 0.3538
vn 0.7071 -0.6070 0.3626
vn 0.7510 -0.6023 0.2705
vn 0.7239 -0.6579 0.2076
vn 0.7071 -0.6743 0.2128
vn 0.7510 -0.6485 0.1243
vn 0.7240 -0.6880 0.0503
vn 0.7071 -0.7052 0.0516
vn 0.7510 -0.6596 -0.0286
vn 0.7240 -0.6811 -0.1097
vn 0.7071 -0.6981 -0.1124
vn 0.7510 -0.6353 -0.1799
vn 0.7240 -0.6374 -0.2638
vn 0.7071 -0.6534 -0.2704
vn 0.7510 -0.5767 -0.3216
vn 0.7239 -0.5594 -0.4037
vn 0.7071 -0.5734 -0.4138
vn 0.7510 -0.4869 -0.4459
vn 0.7239 -0.4512 -0.5218
vn 0.7071 -0.4625 -0.5349
vn 0.7510 -0.3710 -0.5462
vn 0.7239 -0.3187 -0.6118
vn 0.7071 -0.3267 -0.6271
vn 0.7510 -0.2350 -0.6170
vn 0.7155 -0.1555 -0.6811
vn 0.7162 -0.1547 -0.6805
vn 0.7976 -0.1030 -0.5944
vt 0.857711 0.401867
vt 0.844891 0.403389
vt 0.844892 0.400289
vt 0.857710 0.403391
vt 0.857709 0.404842
vt 0.844888 0.406199
vt 0.857708 0.406200
vt 0.857706 0.407448
vt 0.405996 0.899412
vt 0.393174 0.898279
vt 0.405992 0.897015
vt 0.393171 0.897018
vt 0.393170 0.895647
vt 0.405990 0.894184
vt 0.393168 0.894187
vt 0.393167 0.892655
vt 0.405988 0.891072
vt 0.393166 0.891075
vt 0.393165 0.889465
vt 0.405988 0.887846
vt 0.393165 0.887849
vt 0.393165 0.886248
vt 0.405990 0.884682
vt 0.393165 0.884684
vt 0.393166 0.883178
vt 0.405992 0.881748
vt 0.393167 0.881751
vt 0.393168 0.880421
vt 0.405996 0.879204
vt 0.393170 0.879207
vt 0.039974 0.898377
vt 0.027148 0.898376
vt 0.027146 0.897247
vt 0.039971 0.895991
vt 0.027145 0.895990
vt 0.027143 0.894624
vt 0.039969 0.893168
vt 0.027142 0.893167
vt 0.027141 0.891639
vt 0.039968 0.890060
vt 0.027141 0.890060
vt 0.027140 0.888451
vt 0.039968 0.886835
vt 0.027141 0.886835
vt 0.027141 0.885233
vt 0.039969 0.883667
vt 0.027142 0.883667
vt 0.027143 0.882158
vt 0.039971 0.880727
vt 0.027144 0.880726
vt 0.027146 0.879392
vt 0.039974 0.878173
vt 0.027148 0.878172
vt 0.053070 0.876913
vt 0.065896 0.876917
vt 0.065898 0.878124
vt 0.053073 0.879446
vt 0.065899 0.879449
vt 0.065900 0.880872
vt 0.053076 0.882372
vt 0.065901 0.882375
vt 0.065901 0.883936
vt 0.053077 0.885532
vt 0.065901 0.885536
vt 0.065901 0.887151
vt 0.053077 0.888759
vt 0.065900 0.888762
vt 0.065899 0.890344
vt 0.053076 0.891876
vt 0.065898 0.891879
vt 0.065897 0.893343
vt 0.053073 0.894716
vt 0.065895 0.894719
vt 0.065893 0.895986
vt 0.053070 0.897126
vt 0.065891 0.897129
vt 0.844888 0.388370
vt 0.857708 0.388371
vt 0.857710 0.389600
vt 0.844891 0.390941
vt 0.857711 0.390942
vt 0.857711 0.392380
vt 0.844892 0.393892
vt 0.857712 0.393894
vt 0.857712 0.395463
vt 0.844893 0.397065
vt 0.857712 0.397067
vt 0.844893 0.398437
vt 0.857712 0.398683
vt 0.857712 0.400290
vt 0.637717 0.189618
vt 0.639762 0.187846
vt 0.644900 0.195842
vt 0.635493 0.197194
vt 0.635493 0.194489
vt 0.636255 0.191893
vt 0.639762 0.203837
vt 0.637717 0.202066
vt 0.636255 0.199790
vt 0.647578 0.204961
vt 0.644900 0.205346
vt 0.642223 0.204961
vt 0.653546 0.199790
vt 0.652083 0.202066
vt 0.650039 0.203837
vt 0.653546 0.191893
vt 0.654308 0.194489
vt 0.654308 0.197194
vt 0.647578 0.186722
vt 0.650039 0.187846
vt 0.652083 0.189618
vt 0.642223 0.186722
vt 0.644900 0.186337
vt 0.167476 0.968155
vt 0.167990 0.970810
vt 0.167475 0.970810
vt 0.167988 0.973213
vt 0.167473 0.973213
vt 0.052133 0.975185
vt 0.051618 0.975185
vt 0.051615 0.973147
vt 0.052130 0.973147
vt 0.051613 0.970691
vt 0.052128 0.970691
vt 0.051612 0.968015
vt 0.052127 0.968015
vt 0.051613 0.965336
vt 0.052128 0.965336
vt 0.051615 0.962871
vt 0.052130 0.962871
vt 0.051618 0.960820
vt 0.052133 0.960820
vt 0.163695 0.973240
vt 0.163180 0.973240
vt 0.163178 0.971067
vt 0.163693 0.971067
vt 0.163177 0.968528
vt 0.163691 0.968528
vt 0.163177 0.965829
vt 0.163691 0.965829
vt 0.163178 0.963188
vt 0.163693 0.963188
vt 0.163180 0.960820
vt 0.163695 0.960820
vt 0.052653 0.960820
vt 0.053168 0.960820
vt 0.053171 0.962763
vt 0.052656 0.962763
vt 0.053173 0.965159
vt 0.052658 0.965159
vt 0.053173 0.967811
vt 0.052659 0.967811
vt 0.053173 0.970506
vt 0.052658 0.970506
vt 0.053171 0.973025
vt 0.052656 0.973025
vt 0.053168 0.975164
vt 0.052653 0.975164
vt 0.167473 0.960820
vt 0.167988 0.960820
vt 0.167990 0.962949
vt 0.167475 0.962949
vt 0.167991 0.965461
vt 0.167476 0.965461
vt 0.167991 0.968155
vt 0.796420 0.494651
vt 0.797524 0.498636
vt 0.794820 0.498707
vt 0.802833 0.515091
vt 0.803797 0.519292
vt 0.800596 0.516614
vt 0.801011 0.520691
vt 0.798022 0.517444
vt 0.797978 0.521410
vt 0.795318 0.517516
vt 0.794861 0.521410
vt 0.792703 0.516823
vt 0.791828 0.520691
vt 0.790389 0.515421
vt 0.787234 0.505640
vt 0.784093 0.502758
vt 0.788292 0.503150
vt 0.785651 0.500059
vt 0.790009 0.501060
vt 0.787790 0.497791
vt 0.792246 0.499538
vt 0.790395 0.496079
vt 0.793324 0.495013
vt 0.797978 0.494741
vt 0.799516 0.495013
vt 0.800139 0.499329
vt 0.802445 0.496079
vt 0.802453 0.500731
vt 0.805049 0.497791
vt 0.804278 0.502728
vt 0.807188 0.500059
vt 0.805466 0.505158
vt 0.789043 0.519292
vt 0.786655 0.517288
vt 0.788564 0.513424
vt 0.784793 0.514788
vt 0.787376 0.510994
vt 0.783559 0.511926
vt 0.786920 0.508327
vt 0.783017 0.508856
vt 0.783199 0.505744
vt 0.808746 0.502758
vt 0.809640 0.505744
vt 0.805922 0.507824
vt 0.809822 0.508856
vt 0.805608 0.510511
vt 0.809280 0.511926
vt 0.804550 0.513001
vt 0.808046 0.514788
vt 0.806184 0.517288
vt 0.858187 0.398660
vt 0.793214 0.521601
vt 0.791665 0.521137
vt 0.790181 0.520497
vt 0.788781 0.519689
vt 0.787485 0.518724
vt 0.786309 0.517614
vt 0.785270 0.516376
vt 0.784382 0.515026
vt 0.783656 0.513581
vt 0.783103 0.512062
vt 0.782731 0.510489
vt 0.782543 0.508884
vt 0.782543 0.507267
vt 0.782731 0.505662
vt 0.962189 0.500080
vt 0.961722 0.500165
vt 0.961722 0.497010
vt 0.783103 0.504089
vt 0.783656 0.502570
vt 0.784382 0.501125
vt 0.785270 0.499775
vt 0.786309 0.498537
vt 0.787485 0.497427
vt 0.788781 0.496462
vt 0.790181 0.495654
vt 0.791665 0.495014
vt 0.793214 0.494550
vt 0.794806 0.494269
vt 0.796420 0.494175
vt 0.798033 0.494269
vt 0.799625 0.494550
vt 0.801174 0.495014
vt 0.802658 0.495654
vt 0.804058 0.496462
vt 0.805354 0.497427
vt 0.806530 0.498537
vt 0.807569 0.499775
vt 0.808457 0.501125
vt 0.809183 0.502570
vt 0.809736 0.504089
vt 0.810108 0.505662
vt 0.810296 0.507267
vt 0.810296 0.508884
vt 0.810108 0.510489
vt 0.809736 0.512062
vt 0.809183 0.513581
vt 0.808457 0.515025
vt 0.807569 0.516376
vt 0.806530 0.517614
vt 0.805354 0.518724
vt 0.804058 0.519689
vt 0.802658 0.520497
vt 0.801174 0.521137
vt 0.799625 0.521601
vt 0.798033 0.521882
vt 0.796420 0.521976
vt 0.794806 0.521882
s 1
f 29/1/1 8/2/2 9/3/3
f 29/1/1 30/4/4 8/2/2
f 8/2/2 30/4/4 31/5/5
f 8/2/2 31/5/5 10/6/6
f 31/5/5 32/7/7 10/6/6
f 10/6/6 32/7/7 33/8/8
f 10/9/6 33/10/8 21/11/9
f 33/10/8 34/12/10 21/11/9
f 21/11/9 34/12/10 35/13/11
f 21/11/9 35/13/11 20/14/12
f 35/13/11 36/15/13 20/14/12
f 20/14/12 36/15/13 37/16/14
f 20/14/12 37/16/14 26/17/15
f 37/16/14 38/18/16 26/17/15
f 26/17/15 38/18/16 39/19/17
f 26/17/15 39/19/17 25/20/18
f 39/19/17 40/21/19 25/20/18
f 25/20/18 40/21/19 41/22/20
f 25/20/18 41/22/20 28/23/21
f 41/22/20 42/24/22 28/23/21
f 28/23/21 42/24/22 43/25/23
f 28/23/21 43/25/23 27/26/24
f 43/25/23 44/27/25 27/26/24
f 27/26/24 44/27/25 45/28/26
f 27/26/24 45/28/26 15/29/27
f 45/28/26 46/30/28 15/29/27
f 15/31/27 46/32/28 47/33/29
f 15/31/27 47/33/29 14/34/30
f 47/33/29 48/35/31 14/34/30
f 14/34/30 48/35/31 49/36/32
f 14/34/30 49/36/32 5/37/33
f 49/36/32 50/38/34 5/37/33
f 5/37/33 50/38/34 51/39/35
f 5/37/33 51/39/35 2/40/36
f 51/39/35 52/41/37 2/40/36
f 2/40/36 52/41/37 53/42/38
f 2/40/36 53/42/38 1/43/39
f 53/42/38 54/44/40 1/43/39
f 1/43/39 54/44/40 55/45/41
f 1/43/39 55/45/41 4/46/42
f 55/45/41 56/47/43 4/46/42
f 4/46/42 56/47/43 57/48/44
f 4/46/42 57/48/44 3/49/45
f 57/48/44 58/50/46 3/49/45
f 3/49/45 58/50/46 59/51/47
f 3/49/45 59/51/47 16/52/48
f 59/51/47 60/53/49 16/52/48
f 16/54/48 60/55/49 61/56/50
f 16/54/48 61/56/50 11/57/51
f 61/56/50 62/58/52 11/57/51
f 11/57/51 62/58/52 63/59/53
f 11/57/51 63/59/53 17/60/54
f 63/59/53 64/61/55 17/60/54
f 17/60/54 64/61/55 65/62/56
f 17/60/54 65/62/56 24/63/57
f 65/62/56 66/64/58 24/63/57
f 24/63/57 66/64/58 67/65/59
f 24/63/57 67/65/59 22/66/60
f 67/65/59 68/67/61 22/66/60
f 22/66/60 68/67/61 69/68/62
f 22/66/60 69/68/62 23/69/63
f 69/68/62 70/70/64 23/69/63
f 23/69/63 70/70/64 71/71/65
f 23/69/63 71/71/65 19/72/66
f 71/71/65 72/73/67 19/72/66
f 19/72/66 72/73/67 73/74/68
f 19/72/66 73/74/68 18/75/69
f 73/74/68 74/76/70 18/75/69
f 18/77/69 74/78/70 75/79/71
f 18/77/69 75/79/71 6/80/72
f 75/79/71 76/81/73 6/80/72
f 6/80/72 76/81/73 77/82/74
f 6/80/72 77/82/74 7/83/75
f 77/82/74 78/84/76 7/83/75
f 7/83/75 78/84/76 79/85/77
f 7/83/75 79/85/77 12/86/78
f 12/86/78 79/85/77 80/87/79
f 12/86/78 80/87/79 13/88/80
f 13/88/80 80/87/79 81/89/81
f 13/88/80 81/89/81 9/3/3
f 9/3/3 81/89/81 82/90/82
f 9/3/3 82/90/82 29/1/1
f 83/91/83 84/92/83 85/93/83
f 86/94/83 87/95/83 85/93/83
f 85/93/83 87/95/83 88/96/83
f 85/93/83 88/96/83 83/91/83
f 89/97/83 90/98/83 85/93/83
f 85/93/83 90/98/83 91/99/83
f 85/93/83 91/99/83 86/94/83
f 92/100/83 93/101/83 85/93/83
f 85/93/83 93/101/83 94/102/83
f 85/93/83 94/102/83 89/97/83
f 95/103/83 96/104/83 85/93/83
f 85/93/83 96/104/83 97/105/83
f 85/93/83 97/105/83 92/100/83
f 98/106/83 99/107/83 85/93/83
f 85/93/83 99/107/83 100/108/83
f 85/93/83 100/108/83 95/103/83
f 101/109/83 102/110/83 85/93/83
f 85/93/83 102/110/83 103/111/83
f 85/93/83 103/111/83 98/106/83
f 84/92/83 104/112/83 85/93/83
f 85/93/83 104/112/83 105/113/83
f 85/93/83 105/113/83 101/109/83
f 106/114/84 95/115/85 107/116/85
f 107/116/85 95/115/85 100/117/86
f 107/116/85 100/117/86 108/118/86
f 108/119/86 100/120/86 99/121/87
f 108/119/86 99/121/87 109/122/87
f 109/122/87 99/121/87 98/123/88
f 109/122/87 98/123/88 110/124/88
f 110/124/88 98/123/88 103/125/89
f 110/124/88 103/125/89 111/126/89
f 111/126/89 103/125/89 102/127/90
f 111/126/89 102/127/90 112/128/90
f 112/128/90 102/127/90 101/129/91
f 112/128/90 101/129/91 113/130/91
f 113/130/91 101/129/91 105/131/92
f 113/130/91 105/131/92 114/132/92
f 114/133/92 105/134/92 104/135/93
f 114/133/92 104/135/93 115/136/93
f 115/136/93 104/135/93 84/137/94
f 115/136/93 84/137/94 116/138/94
f 116/138/94 84/137/94 83/139/40
f 116/138/94 83/139/40 117/140/40
f 117/140/40 83/139/40 88/141/95
f 117/140/40 88/141/95 118/142/95
f 118/142/95 88/141/95 87/143/96
f 118/142/95 87/143/96 119/144/96
f 119/145/96 87/146/96 86/147/97
f 119/145/96 86/147/97 120/148/97
f 120/148/97 86/147/97 91/149/98
f 120/148/97 91/149/98 121/150/98
f 121/150/98 91/149/98 90/151/99
f 121/150/98 90/151/99 122/152/99
f 122/152/99 90/151/99 89/153/100
f 122/152/99 89/153/100 123/154/100
f 123/154/100 89/153/100 94/155/101
f 123/154/100 94/155/101 124/156/101
f 124/156/101 94/155/101 93/157/102
f 124/156/101 93/157/102 125/158/102
f 125/159/102 93/160/102 92/161/103
f 125/159/102 92/161/103 126/162/103
f 126/162/103 92/161/103 97/163/104
f 126/162/103 97/163/104 127/164/104
f 127/164/104 97/163/104 96/165/84
f 127/164/104 96/165/84 106/114/84
f 106/114/84 96/165/84 95/115/85
f 128/166/83 117/167/83 118/168/83
f 109/169/83 129/170/83 108/171/83
f 108/171/83 129/170/83 130/172/83
f 108/171/83 130/172/83 107/173/83
f 107/173/83 130/172/83 131/174/83
f 107/173/83 131/174/83 106/175/83
f 106/175/83 131/174/83 132/176/83
f 106/175/83 132/176/83 127/177/83
f 127/177/83 132/176/83 133/178/83
f 127/177/83 133/178/83 126/179/83
f 122/180/83 134/181/83 121/182/83
f 121/182/83 134/181/83 135/183/83
f 121/182/83 135/183/83 120/184/83
f 120/184/83 135/183/83 136/185/83
f 120/184/83 136/185/83 119/186/83
f 119/186/83 136/185/83 137/187/83
f 119/186/83 137/187/83 118/168/83
f 118/168/83 137/187/83 138/188/83
f 118/168/83 138/188/83 128/166/83
f 128/166/83 139/189/83 117/167/83
f 117/167/83 139/189/83 140/190/83
f 117/167/83 140/190/83 116/191/83
f 116/191/83 140/190/83 141/192/83
f 116/191/83 141/192/83 115/193/83
f 115/193/83 141/192/83 142/194/83
f 115/193/83 142/194/83 114/195/83
f 114/195/83 142/194/83 143/196/83
f 114/195/83 143/196/83 113/197/83
f 133/178/83 144/198/83 126/179/83
f 126/179/83 144/198/83 145/199/83
f 126/179/83 145/199/83 125/200/83
f 125/200/83 145/199/83 146/201/83
f 125/200/83 146/201/83 124/202/83
f 124/202/83 146/201/83 147/203/83
f 124/202/83 147/203/83 123/204/83
f 123/204/83 147/203/83 148/205/83
f 123/204/83 148/205/83 122/180/83
f 122/180/83 148/205/83 149/206/83
f 122/180/83 149/206/83 134/181/83
f 143/196/83 150/207/83 113/197/83
f 113/197/83 150/207/83 151/208/83
f 113/197/83 151/208/83 112/209/83
f 112/209/83 151/208/83 152/210/83
f 112/209/83 152/210/83 111/211/83
f 111/211/83 152/210/83 153/212/83
f 111/211/83 153/212/83 110/213/83
f 110/213/83 153/212/83 154/214/83
f 110/213/83 154/214/83 109/169/83
f 109/169/83 154/214/83 155/215/83
f 109/169/83 155/215/83 129/170/83
f 132/216/105 81/89/106 80/87/107
f 132/176/105 80/217/107 133/178/108
f 133/178/108 80/217/107 79/218/109
f 133/178/108 79/218/109 144/198/110
f 79/218/109 78/219/111 144/198/110
f 144/198/110 78/219/111 77/220/112
f 144/198/110 77/220/112 145/199/113
f 145/199/113 77/220/112 76/221/114
f 76/221/114 75/222/115 145/199/113
f 145/199/113 75/222/115 74/223/116
f 145/199/113 74/223/116 146/201/117
f 146/201/117 74/223/116 73/224/118
f 146/201/117 73/224/118 147/203/119
f 147/203/119 73/224/118 72/225/120
f 72/225/120 71/226/121 147/203/119
f 147/203/119 71/226/121 70/227/122
f 147/203/119 70/227/122 148/205/123
f 148/205/123 70/227/122 69/228/124
f 148/205/123 69/228/124 149/206/125
f 69/228/124 68/229/126 149/206/125
f 149/206/125 68/229/126 67/230/127
f 149/231/125 67/232/127 134/233/128
f 67/230/127 66/234/129 134/181/128
f 134/181/128 66/234/129 65/235/130
f 134/181/128 65/235/130 135/183/131
f 135/183/131 65/235/130 64/236/132
f 64/236/132 63/237/133 135/183/131
f 135/183/131 63/237/133 62/238/134
f 135/183/131 62/238/134 136/185/135
f 136/185/135 62/238/134 61/239/136
f 136/185/135 61/239/136 137/187/137
f 137/187/137 61/239/136 60/240/138
f 60/240/138 59/241/139 137/187/137
f 137/187/137 59/241/139 58/242/140
f 137/187/137 58/242/140 138/188/141
f 138/188/141 58/242/140 57/243/142
f 138/188/141 57/243/142 128/166/143
f 57/243/142 56/244/144 128/166/143
f 128/166/143 56/244/144 55/245/145
f 128/166/143 55/245/145 139/189/146
f 139/189/146 55/245/145 54/246/146
f 139/189/146 54/246/146 140/190/147
f 54/246/146 53/247/148 140/190/147
f 140/190/147 53/247/148 52/248/149
f 140/190/147 52/248/149 141/192/150
f 52/248/149 51/249/151 141/192/150
f 141/192/150 51/249/151 50/250/152
f 141/192/150 50/250/152 142/194/153
f 50/250/152 49/251/154 142/194/153
f 142/194/153 49/251/154 48/252/155
f 142/194/153 48/252/155 143/196/156
f 48/252/155 47/253/157 143/196/156
f 143/196/156 47/253/157 46/254/158
f 143/196/156 46/254/158 150/207/159
f 46/254/158 45/255/160 150/207/159
f 150/207/159 45/255/160 44/256/161
f 150/207/159 44/256/161 151/208/162
f 44/256/161 43/257/163 151/208/162
f 151/208/162 43/257/163 42/258/164
f 151/208/162 42/258/164 152/210/165
f 42/258/164 41/259/166 152/210/165
f 152/210/165 41/259/166 40/260/167
f 152/210/165 40/260/167 153/212/168
f 40/260/167 39/261/169 153/212/168
f 153/212/168 39/261/169 38/262/170
f 153/212/168 38/262/170 154/214/171
f 38/262/170 37/263/172 154/214/171
f 154/214/171 37/263/172 36/264/173
f 154/214/171 36/264/173 155/215/174
f 36/264/173 35/265/175 155/215/174
f 155/215/174 35/265/175 34/266/176
f 155/215/174 34/266/176 129/170/177
f 34/266/176 33/267/178 129/170/177
f 129/170/177 33/267/178 32/268/179
f 129/170/177 32/268/179 130/172/180
f 32/268/179 31/269/181 130/172/180
f 130/172/180 31/269/181 30/270/182
f 130/172/180 30/270/182 131/174/183
f 131/174/183 30/270/182 29/271/184
f 131/174/183 29/271/184 132/176/105
f 132/176/105 29/271/184 82/272/185
f 132/176/105 82/272/185 81/273/106
