# Blender 4.5.10 LTS
# www.blender.org
o right_elbow_link_001_001
v 0.070924 -0.009059 0.018442
v 0.070924 -0.002326 0.019331
v 0.070941 -0.001971 -0.039166
v 0.070940 -0.004854 -0.039016
v 0.070924 0.004431 0.018642
v 0.070940 0.001936 -0.038915
v 0.070939 -0.017599 -0.034590
v 0.070925 -0.015405 0.016025
v 0.070925 0.010847 0.016415
v 0.070939 0.014544 -0.034113
v 0.070940 0.008521 -0.037251
v 0.070940 -0.011485 -0.037548
v 0.070926 -0.021023 0.012209
v 0.070938 0.019681 -0.029670
v 0.070936 0.023655 -0.024163
v 0.070938 -0.022866 -0.030303
v 0.070927 0.021309 0.007897
v 0.070926 0.016576 0.012768
v 0.070927 -0.025610 0.007200
v 0.070936 -0.027002 -0.024916
v 0.070935 -0.029784 -0.018721
v 0.070929 -0.028918 0.001269
v 0.070934 0.026252 -0.017888
v 0.070932 0.027332 -0.011183
v 0.070931 -0.030769 -0.005266
v 0.070933 -0.031063 -0.012051
v 0.070931 0.026836 -0.004409
v 0.070929 0.024792 0.002067
v 0.097917 -0.008213 -0.038475
v 0.097917 -0.011485 -0.037548
v 0.097917 -0.014628 -0.036247
v 0.097917 -0.017599 -0.034590
v 0.097917 -0.020357 -0.032600
v 0.097917 -0.022866 -0.030303
v 0.097917 -0.025091 -0.027730
v 0.097917 -0.027002 -0.024916
v 0.097917 -0.028574 -0.021899
v 0.097917 -0.029784 -0.018721
v 0.097917 -0.030618 -0.015423
v 0.097917 -0.031063 -0.012051
v 0.097917 -0.031113 -0.008650
v 0.097917 -0.030769 -0.005266
v 0.097917 -0.030034 -0.001945
v 0.097917 -0.028918 0.001269
v 0.097917 -0.027437 0.004331
v 0.097917 -0.025610 0.007200
v 0.097917 -0.023463 0.009838
v 0.097917 -0.021023 0.012209
v 0.097917 -0.018325 0.014280
v 0.097917 -0.015405 0.016025
v 0.097917 -0.012302 0.017418
v 0.097917 -0.009059 0.018442
v 0.097917 -0.005718 0.019082
v 0.097917 -0.002326 0.019331
v 0.097917 0.001073 0.019183
v 0.097917 0.004431 0.018642
v 0.097917 0.007704 0.017715
v 0.097917 0.010847 0.016415
v 0.097917 0.013817 0.014758
v 0.097917 0.016576 0.012768
v 0.097917 0.019084 0.010470
v 0.097917 0.021309 0.007897
v 0.097917 0.023220 0.005084
v 0.097917 0.024792 0.002067
v 0.097917 0.026003 -0.001112
v 0.097917 0.026836 -0.004409
v 0.097917 0.027281 -0.007782
v 0.097917 0.027332 -0.011183
v 0.097917 0.026987 -0.014567
v 0.097917 0.026252 -0.017888
v 0.097917 0.025136 -0.021101
v 0.097917 0.023655 -0.024163
v 0.097917 0.021828 -0.027032
v 0.097917 0.019681 -0.029670
v 0.097917 0.017242 -0.032041
v 0.097917 0.014544 -0.034113
v 0.097917 0.011624 -0.035857
v 0.097917 0.008521 -0.037251
v 0.097917 0.005277 -0.038274
v 0.097917 0.001936 -0.038915
v 0.097917 -0.001456 -0.039163
v 0.097917 -0.004854 -0.039016
v 0.100000 -0.002185 0.010082
v 0.100000 -0.007807 0.009188
v 0.100000 -0.001888 -0.009916
v 0.100000 0.013031 0.003404
v 0.100000 0.008674 0.007068
v 0.100000 0.003461 0.009355
v 0.100000 0.017949 -0.012468
v 0.100000 0.017864 -0.006776
v 0.100000 0.016179 -0.001338
v 0.100000 0.009174 -0.026579
v 0.100000 0.013420 -0.022787
v 0.100000 0.016426 -0.017953
v 0.100000 -0.007237 -0.029188
v 0.100000 -0.001591 -0.029914
v 0.100000 0.004031 -0.029020
v 0.100000 -0.019955 -0.018494
v 0.100000 -0.016807 -0.023237
v 0.100000 -0.012449 -0.026900
v 0.100000 -0.020202 -0.001879
v 0.100000 -0.021724 -0.007364
v 0.100000 -0.021640 -0.013056
v 0.100000 -0.012950 0.006746
v 0.100000 -0.017196 0.002955
v 0.098917 -0.001591 -0.029914
v 0.098917 -0.007237 -0.029188
v 0.098917 -0.012449 -0.026900
v 0.098917 -0.016807 -0.023237
v 0.098917 -0.019955 -0.018494
v 0.098917 -0.021640 -0.013056
v 0.098917 -0.021724 -0.007364
v 0.098917 -0.020202 -0.001879
v 0.098917 -0.017196 0.002955
v 0.098917 -0.012950 0.006746
v 0.098917 -0.007807 0.009188
v 0.098917 -0.002185 0.010082
v 0.098917 0.003461 0.009355
v 0.098917 0.008674 0.007068
v 0.098917 0.013031 0.003404
v 0.098917 0.016179 -0.001338
v 0.098917 0.017864 -0.006776
v 0.098917 0.017949 -0.012468
v 0.098917 0.016426 -0.017953
v 0.098917 0.013420 -0.022787
v 0.098917 0.009174 -0.026579
v 0.098917 0.004031 -0.029020
v 0.098917 0.000971 0.018188
v 0.098917 -0.019726 -0.031824
v 0.098917 -0.014193 -0.035347
v 0.098917 -0.007996 -0.037499
v 0.098917 -0.001471 -0.038163
v 0.098917 0.005032 -0.037305
v 0.098917 -0.002311 0.018331
v 0.098917 -0.005587 0.018091
v 0.098917 -0.011946 0.016484
v 0.098917 -0.017764 0.013453
v 0.098917 -0.022725 0.009163
v 0.098917 0.025049 -0.001413
v 0.098917 0.022362 0.004571
v 0.098917 0.018367 0.009773
v 0.098917 0.013280 0.013914
v 0.098917 0.007376 0.016771
v 0.098917 0.011162 -0.034970
v 0.098917 0.016588 -0.031285
v 0.098917 0.021017 -0.026447
v 0.098917 0.024212 -0.020719
v 0.098917 0.026000 -0.014408
v 0.098917 0.026284 -0.007855
v 0.098917 -0.026563 0.003844
v 0.098917 -0.029072 -0.002217
v 0.098917 -0.030114 -0.008693
v 0.098917 -0.029636 -0.015235
v 0.098917 -0.027661 -0.021490
v 0.098917 -0.024298 -0.027121
vn -0.0006 -0.2161 -0.9764
vn -0.0068 -0.3280 -0.9446
vn -0.0029 -0.1319 -0.9913
vn -0.0000 -0.3280 -0.9447
vn -0.0006 -0.4355 -0.9002
vn -0.0068 -0.5370 -0.8435
vn -0.0000 -0.5370 -0.8436
vn -0.0006 -0.6313 -0.7755
vn -0.0068 -0.7171 -0.6970
vn -0.0000 -0.7171 -0.6970
vn -0.0006 -0.7932 -0.6090
vn -0.0068 -0.8585 -0.5128
vn -0.0000 -0.8585 -0.5128
vn -0.0006 -0.9122 -0.4097
vn -0.0068 -0.9536 -0.3010
vn -0.0000 -0.9536 -0.3010
vn -0.0006 -0.9821 -0.1883
vn -0.0068 -0.9973 -0.0730
vn -0.0000 -0.9973 -0.0730
vn -0.0006 -0.9991 0.0433
vn -0.0068 -0.9873 0.1590
vn -0.0000 -0.9873 0.1590
vn -0.0006 -0.9621 0.2725
vn -0.0068 -0.9240 0.3824
vn -0.0000 -0.9240 0.3824
vn -0.0006 -0.8734 0.4871
vn -0.0068 -0.8109 0.5852
vn -0.0000 -0.8109 0.5852
vn -0.0006 -0.7375 0.6754
vn -0.0068 -0.6541 0.7564
vn -0.0000 -0.6541 0.7564
vn -0.0006 -0.5619 0.8272
vn -0.0068 -0.4620 0.8868
vn -0.0000 -0.4620 0.8869
vn -0.0006 -0.3559 0.9345
vn -0.0068 -0.2450 0.9695
vn -0.0000 -0.2451 0.9695
vn -0.0006 -0.1308 0.9914
vn -0.0068 -0.0149 0.9999
vn -0.0000 -0.0149 0.9999
vn -0.0006 0.1013 0.9949
vn -0.0068 0.2161 0.9763
vn -0.0000 0.2161 0.9764
vn -0.0006 0.3280 0.9447
vn -0.0068 0.4355 0.9002
vn -0.0000 0.4355 0.9002
vn -0.0006 0.5370 0.8436
vn -0.0068 0.6313 0.7755
vn -0.0000 0.6313 0.7755
vn -0.0006 0.7171 0.6970
vn -0.0068 0.7931 0.6090
vn -0.0000 0.7932 0.6090
vn -0.0006 0.8585 0.5128
vn -0.0068 0.9122 0.4097
vn -0.0000 0.9122 0.4097
vn -0.0006 0.9536 0.3010
vn -0.0068 0.9821 0.1883
vn -0.0000 0.9821 0.1883
vn -0.0006 0.9973 0.0730
vn -0.0068 0.9990 -0.0433
vn -0.0000 0.9991 -0.0433
vn -0.0006 0.9873 -0.1590
vn -0.0068 0.9621 -0.2725
vn -0.0000 0.9621 -0.2725
vn -0.0006 0.9240 -0.3824
vn -0.0068 0.8733 -0.4870
vn -0.0000 0.8734 -0.4871
vn -0.0006 0.8109 -0.5852
vn -0.0068 0.7375 -0.6753
vn -0.0000 0.7375 -0.6754
vn -0.0006 0.6541 -0.7564
vn -0.0068 0.5619 -0.8272
vn -0.0000 0.5619 -0.8272
vn -0.0006 0.4620 -0.8869
vn -0.0068 0.3559 -0.9345
vn -0.0000 0.3559 -0.9345
vn -0.0006 0.2451 -0.9695
vn -0.0034 0.1530 -0.9882
vn -0.0006 0.1304 -0.9915
vn 0.0005 0.0057 -1.0000
vn -0.0006 0.0153 -0.9999
vn -0.0000 -0.1013 -0.9949
vn 1.0000 -0.0000 -0.0000
vn -0.0000 0.0149 -0.9999
vn -0.0000 -0.2674 -0.9636
vn -0.0000 -0.5281 -0.8492
vn -0.0000 -0.7459 -0.6660
vn -0.0000 -0.9034 -0.4289
vn -0.0000 -0.9876 -0.1570
vn -0.0000 -0.9918 0.1276
vn -0.0000 -0.9157 0.4018
vn -0.0000 -0.7654 0.6436
vn -0.0000 -0.5531 0.8331
vn -0.0000 -0.2960 0.9552
vn -0.0000 0.2674 0.9636
vn -0.0000 0.5281 0.8492
vn -0.0000 0.7459 0.6660
vn -0.0000 0.9034 0.4289
vn -0.0000 0.9876 0.1570
vn -0.0000 0.9918 -0.1276
vn -0.0000 0.9157 -0.4019
vn -0.0000 0.7654 -0.6436
vn -0.0000 0.5531 -0.8331
vn -0.0000 0.2960 -0.9552
vn 0.7237 0.0078 -0.6900
vn 0.7071 0.0105 -0.7070
vn 0.7510 0.0864 -0.6546
vn 0.7239 0.1691 -0.6688
vn 0.7071 0.1733 -0.6856
vn 0.7510 0.2350 -0.6170
vn 0.7239 0.3187 -0.6118
vn 0.7071 0.3267 -0.6271
vn 0.7510 0.3710 -0.5462
vn 0.7239 0.4512 -0.5218
vn 0.7071 0.4625 -0.5349
vn 0.7510 0.4869 -0.4459
vn 0.7155 0.5758 -0.3956
vn 0.7162 0.5756 -0.3947
vn 0.7237 0.6367 -0.2662
vn 0.7976 0.5146 -0.3148
vn 0.7071 0.6534 -0.2704
vn 0.7510 0.6353 -0.1799
vn 0.7155 0.6921 -0.0951
vn 0.7162 0.6915 -0.0944
vn 0.7237 0.6884 0.0479
vn 0.7976 0.6011 -0.0504
vn 0.7071 0.7052 0.0516
vn 0.7510 0.6485 0.1243
vn 0.7155 0.6612 0.2256
vn 0.7162 0.6603 0.2260
vn 0.7153 0.5928 0.3700
vn 0.7976 0.5598 0.2248
vn 0.7162 0.5904 0.3722
vn 0.7237 0.4966 0.4792
vn 0.7976 0.4929 0.3478
vn 0.7071 0.5071 0.4928
vn 0.7510 0.4168 0.5120
vn 0.7155 0.3615 0.5978
vn 0.7162 0.3606 0.5975
vn 0.7237 0.2287 0.6511
vn 0.7976 0.2843 0.5320
vn 0.7071 0.2319 0.6680
vn 0.7510 0.1427 0.6447
vn 0.7157 0.0758 0.6943
vn 0.7071 0.0716 0.7035
vn 0.7071 -0.0105 0.7070
vn 0.7157 -0.0964 0.6917
vn 0.7071 -0.0925 0.7010
vn 0.7510 -0.1618 0.6401
vn 0.7155 -0.2637 0.6469
vn 0.7162 -0.2640 0.6460
vn 0.7237 -0.3857 0.5722
vn 0.7976 -0.2569 0.5458
vn 0.7071 -0.3973 0.5849
vn 0.7510 -0.4319 0.4994
vn 0.7240 -0.5088 0.4659
vn 0.7071 -0.5215 0.4775
vn 0.7510 -0.5354 0.3864
vn 0.7240 -0.6025 0.3360
vn 0.7071 -0.6176 0.3444
vn 0.7510 -0.6101 0.2525
vn 0.7240 -0.6637 0.1880
vn 0.7071 -0.6803 0.1927
vn 0.7510 -0.6519 0.1050
vn 0.7240 -0.6892 0.0299
vn 0.7071 -0.7064 0.0306
vn 0.7510 -0.6585 -0.0482
vn 0.7155 -0.6829 -0.1473
vn 0.7162 -0.6821 -0.1478
vn 0.7237 -0.6305 -0.2805
vn 0.7976 -0.5821 -0.1582
vn 0.7071 -0.6450 -0.2897
vn 0.7510 -0.5668 -0.3386
vn 0.7155 -0.5441 -0.4382
vn 0.7162 -0.5432 -0.4382
vn 0.7237 -0.4376 -0.5336
vn 0.7976 -0.4492 -0.4027
vn 0.7071 -0.4464 -0.5484
vn 0.7510 -0.3546 -0.5570
vn 0.7240 -0.3004 -0.6210
vn 0.7071 -0.3079 -0.6365
vn 0.7510 -0.2166 -0.6237
vn 0.7155 -0.1352 -0.6854
vn 0.7162 -0.1344 -0.6848
vn 0.7976 -0.0852 -0.5972
vt 0.858661 0.395463
vt 0.871482 0.393892
vt 0.871481 0.397065
vt 0.858662 0.393894
vt 0.858662 0.392380
vt 0.871483 0.390941
vt 0.858663 0.390942
vt 0.858664 0.389600
vt 0.871486 0.388370
vt 0.858665 0.388371
vt 0.053070 0.897126
vt 0.040249 0.897129
vt 0.040247 0.895986
vt 0.053066 0.894716
vt 0.040245 0.894719
vt 0.040243 0.893343
vt 0.053064 0.891876
vt 0.040242 0.891879
vt 0.040241 0.890344
vt 0.053063 0.888758
vt 0.040240 0.888762
vt 0.040239 0.887151
vt 0.053063 0.885532
vt 0.040239 0.885536
vt 0.040239 0.883936
vt 0.053064 0.882372
vt 0.040239 0.882375
vt 0.040240 0.880872
vt 0.053066 0.879446
vt 0.040241 0.879449
vt 0.040242 0.878124
vt 0.053070 0.876913
vt 0.040243 0.876917
vt 0.885724 0.053810
vt 0.898550 0.053809
vt 0.898552 0.055029
vt 0.885727 0.056364
vt 0.898554 0.056364
vt 0.898555 0.057795
vt 0.885729 0.059305
vt 0.898556 0.059304
vt 0.898557 0.060870
vt 0.885730 0.062473
vt 0.898557 0.062472
vt 0.898557 0.064088
vt 0.885730 0.065697
vt 0.898557 0.065697
vt 0.898557 0.067276
vt 0.885729 0.068805
vt 0.898556 0.068804
vt 0.898555 0.070262
vt 0.885727 0.071628
vt 0.898553 0.071627
vt 0.898552 0.072884
vt 0.885724 0.074014
vt 0.898550 0.074014
vt 0.294204 0.878531
vt 0.307030 0.878534
vt 0.307032 0.879748
vt 0.294208 0.881075
vt 0.307033 0.881078
vt 0.307034 0.882505
vt 0.294211 0.884009
vt 0.307035 0.884011
vt 0.307035 0.885575
vt 0.294212 0.887173
vt 0.307035 0.887176
vt 0.307035 0.888792
vt 0.294212 0.890399
vt 0.307034 0.890402
vt 0.307033 0.891983
vt 0.294211 0.893511
vt 0.307032 0.893514
vt 0.307031 0.894974
vt 0.294208 0.896342
vt 0.307029 0.896345
vt 0.307027 0.897606
vt 0.294204 0.898739
vt 0.858667 0.407448
vt 0.858666 0.406200
vt 0.871486 0.406199
vt 0.858665 0.404842
vt 0.871483 0.403389
vt 0.858663 0.403391
vt 0.858663 0.401867
vt 0.871482 0.400289
vt 0.858662 0.400290
vt 0.871481 0.398437
vt 0.858662 0.398683
vt 0.858661 0.397067
vt 0.628763 0.186722
vt 0.631223 0.187846
vt 0.626085 0.195842
vt 0.620947 0.187846
vt 0.623407 0.186722
vt 0.626085 0.186337
vt 0.616678 0.194489
vt 0.617440 0.191893
vt 0.618902 0.189618
vt 0.618902 0.202066
vt 0.617440 0.199790
vt 0.616678 0.197194
vt 0.626085 0.205346
vt 0.623407 0.204961
vt 0.620947 0.203837
vt 0.633268 0.202066
vt 0.631223 0.203837
vt 0.628763 0.204961
vt 0.635493 0.194489
vt 0.635493 0.197194
vt 0.634731 0.199790
vt 0.633268 0.189618
vt 0.634731 0.191893
vt 0.168506 0.968155
vt 0.167991 0.965462
vt 0.168506 0.965461
vt 0.167992 0.962949
vt 0.168507 0.962949
vt 0.167994 0.960820
vt 0.168509 0.960820
vt 0.052653 0.975164
vt 0.052138 0.975164
vt 0.052135 0.973025
vt 0.052650 0.973025
vt 0.052133 0.970506
vt 0.052648 0.970506
vt 0.052133 0.967811
vt 0.052648 0.967811
vt 0.052133 0.965159
vt 0.052648 0.965159
vt 0.052135 0.962764
vt 0.052650 0.962764
vt 0.052138 0.960820
vt 0.052653 0.960820
vt 0.164011 0.960820
vt 0.164525 0.960820
vt 0.164528 0.963188
vt 0.164013 0.963188
vt 0.164529 0.965829
vt 0.164014 0.965829
vt 0.164529 0.968528
vt 0.164014 0.968528
vt 0.164528 0.971067
vt 0.164013 0.971067
vt 0.164525 0.973240
vt 0.164011 0.973240
vt 0.051092 0.960820
vt 0.051607 0.960820
vt 0.051610 0.962871
vt 0.051095 0.962871
vt 0.051612 0.965335
vt 0.051097 0.965335
vt 0.051612 0.968015
vt 0.051098 0.968015
vt 0.051612 0.970691
vt 0.051097 0.970691
vt 0.051610 0.973147
vt 0.051095 0.973147
vt 0.051607 0.975185
vt 0.051092 0.975185
vt 0.168509 0.973213
vt 0.167994 0.973213
vt 0.167992 0.970810
vt 0.168507 0.970810
vt 0.167991 0.968155
vt 0.783018 0.535852
vt 0.787003 0.534750
vt 0.787074 0.537454
vt 0.803459 0.529442
vt 0.807659 0.528475
vt 0.804981 0.531678
vt 0.809058 0.531261
vt 0.805811 0.534253
vt 0.809777 0.534294
vt 0.805883 0.536957
vt 0.809777 0.537411
vt 0.805190 0.539572
vt 0.809058 0.540444
vt 0.803788 0.541885
vt 0.783109 0.534294
vt 0.783380 0.532756
vt 0.787696 0.532135
vt 0.784446 0.529827
vt 0.789098 0.529822
vt 0.786159 0.527223
vt 0.791095 0.527997
vt 0.788426 0.525084
vt 0.793525 0.526808
vt 0.794007 0.545040
vt 0.791126 0.548179
vt 0.791518 0.543982
vt 0.788426 0.546620
vt 0.789427 0.542265
vt 0.786159 0.544481
vt 0.787905 0.540029
vt 0.784446 0.541877
vt 0.783380 0.538948
vt 0.807659 0.543229
vt 0.805656 0.545617
vt 0.801791 0.543710
vt 0.803155 0.547478
vt 0.799361 0.544899
vt 0.800293 0.548713
vt 0.796694 0.545355
vt 0.797224 0.549254
vt 0.794112 0.549073
vt 0.791126 0.523525
vt 0.794112 0.522631
vt 0.796192 0.526353
vt 0.797224 0.522450
vt 0.798879 0.526667
vt 0.800293 0.522991
vt 0.801368 0.527725
vt 0.803155 0.524226
vt 0.805656 0.526087
vt 0.810249 0.537466
vt 0.809968 0.539058
vt 0.809505 0.540606
vt 0.808865 0.542090
vt 0.808056 0.543490
vt 0.807091 0.544787
vt 0.805982 0.545963
vt 0.804744 0.547002
vt 0.803393 0.547890
vt 0.801949 0.548615
vt 0.800430 0.549168
vt 0.798857 0.549541
vt 0.797251 0.549729
vt 0.962189 0.496922
vt 0.961722 0.497010
vt 0.961722 0.493851
vt 0.795635 0.549729
vt 0.794029 0.549541
vt 0.792457 0.549168
vt 0.790938 0.548615
vt 0.789493 0.547890
vt 0.788143 0.547002
vt 0.786904 0.545963
vt 0.785795 0.544787
vt 0.784830 0.543490
vt 0.784022 0.542090
vt 0.783381 0.540606
vt 0.782918 0.539058
vt 0.782637 0.537466
vt 0.782543 0.535852
vt 0.782637 0.534238
vt 0.782918 0.532647
vt 0.783381 0.531098
vt 0.784022 0.529614
vt 0.784830 0.528214
vt 0.785795 0.526917
vt 0.786904 0.525742
vt 0.788143 0.524703
vt 0.789493 0.523814
vt 0.790938 0.523089
vt 0.792457 0.522536
vt 0.794029 0.522163
vt 0.795635 0.521976
vt 0.797251 0.521976
vt 0.798857 0.522163
vt 0.800430 0.522536
vt 0.801949 0.523089
vt 0.803393 0.523814
vt 0.804744 0.524703
vt 0.805982 0.525742
vt 0.807091 0.526917
vt 0.808056 0.528214
vt 0.808865 0.529614
vt 0.809505 0.531098
vt 0.809968 0.532647
vt 0.810249 0.534238
vt 0.961722 0.486869
vt 0.962179 0.486713
vt 0.962179 0.489945
vt 0.962053 0.892850
vt 0.962053 0.896057
vt 0.961722 0.894474
vt 0.858187 0.398660
s 1
f 29/1/1 12/2/2 4/3/3
f 29/1/1 30/4/4 12/2/2
f 12/2/2 30/4/4 31/5/5
f 12/2/2 31/5/5 7/6/6
f 31/5/5 32/7/7 7/6/6
f 7/6/6 32/7/7 33/8/8
f 7/6/6 33/8/8 16/9/9
f 33/8/8 34/10/10 16/9/9
f 16/11/9 34/12/10 35/13/11
f 16/11/9 35/13/11 20/14/12
f 35/13/11 36/15/13 20/14/12
f 20/14/12 36/15/13 37/16/14
f 20/14/12 37/16/14 21/17/15
f 37/16/14 38/18/16 21/17/15
f 21/17/15 38/18/16 39/19/17
f 21/17/15 39/19/17 26/20/18
f 39/19/17 40/21/19 26/20/18
f 26/20/18 40/21/19 41/22/20
f 26/20/18 41/22/20 25/23/21
f 41/22/20 42/24/22 25/23/21
f 25/23/21 42/24/22 43/25/23
f 25/23/21 43/25/23 22/26/24
f 43/25/23 44/27/25 22/26/24
f 22/26/24 44/27/25 45/28/26
f 22/26/24 45/28/26 19/29/27
f 45/28/26 46/30/28 19/29/27
f 19/29/27 46/30/28 47/31/29
f 19/29/27 47/31/29 13/32/30
f 47/31/29 48/33/31 13/32/30
f 13/34/30 48/35/31 49/36/32
f 13/34/30 49/36/32 8/37/33
f 49/36/32 50/38/34 8/37/33
f 8/37/33 50/38/34 51/39/35
f 8/37/33 51/39/35 1/40/36
f 51/39/35 52/41/37 1/40/36
f 1/40/36 52/41/37 53/42/38
f 1/40/36 53/42/38 2/43/39
f 53/42/38 54/44/40 2/43/39
f 2/43/39 54/44/40 55/45/41
f 2/43/39 55/45/41 5/46/42
f 55/45/41 56/47/43 5/46/42
f 5/46/42 56/47/43 57/48/44
f 5/46/42 57/48/44 9/49/45
f 57/48/44 58/50/46 9/49/45
f 9/49/45 58/50/46 59/51/47
f 9/49/45 59/51/47 18/52/48
f 59/51/47 60/53/49 18/52/48
f 18/52/48 60/53/49 61/54/50
f 18/52/48 61/54/50 17/55/51
f 61/54/50 62/56/52 17/55/51
f 17/57/51 62/58/52 63/59/53
f 17/57/51 63/59/53 28/60/54
f 63/59/53 64/61/55 28/60/54
f 28/60/54 64/61/55 65/62/56
f 28/60/54 65/62/56 27/63/57
f 65/62/56 66/64/58 27/63/57
f 27/63/57 66/64/58 67/65/59
f 27/63/57 67/65/59 24/66/60
f 67/65/59 68/67/61 24/66/60
f 24/66/60 68/67/61 69/68/62
f 24/66/60 69/68/62 23/69/63
f 69/68/62 70/70/64 23/69/63
f 23/69/63 70/70/64 71/71/65
f 23/69/63 71/71/65 15/72/66
f 71/71/65 72/73/67 15/72/66
f 15/72/66 72/73/67 73/74/68
f 15/72/66 73/74/68 14/75/69
f 73/74/68 74/76/70 14/75/69
f 14/75/69 74/76/70 75/77/71
f 14/75/69 75/77/71 10/78/72
f 75/79/71 76/80/73 10/81/72
f 10/81/72 76/80/73 77/82/74
f 10/81/72 77/82/74 11/83/75
f 77/82/74 78/84/76 11/83/75
f 11/83/75 78/84/76 79/85/77
f 11/83/75 79/85/77 6/86/78
f 6/86/78 79/85/77 80/87/79
f 6/86/78 80/87/79 3/88/80
f 3/88/80 80/87/79 81/89/81
f 3/88/80 81/89/81 4/3/3
f 4/3/3 81/89/81 82/90/82
f 4/3/3 82/90/82 29/1/1
f 83/91/83 84/92/83 85/93/83
f 86/94/83 87/95/83 85/93/83
f 85/93/83 87/95/83 88/96/83
f 85/93/83 88/96/83 83/91/83
f 89/97/83 90/98/83 85/93/83
f 85/93/83 90/98/83 91/99/83
f 85/93/83 91/99/83 86/94/83
f 92/100/83 93/101/83 85/93/83
f 85/93/83 93/101/83 94/102/83
f 85/93/83 94/102/83 89/97/83
f 95/103/83 96/104/83 85/93/83
f 85/93/83 96/104/83 97/105/83
f 85/93/83 97/105/83 92/100/83
f 98/106/83 99/107/83 85/93/83
f 85/93/83 99/107/83 100/108/83
f 85/93/83 100/108/83 95/103/83
f 101/109/83 102/110/83 85/93/83
f 85/93/83 102/110/83 103/111/83
f 85/93/83 103/111/83 98/106/83
f 84/92/83 104/112/83 85/93/83
f 85/93/83 104/112/83 105/113/83
f 85/93/83 105/113/83 101/109/83
f 106/114/84 95/115/85 107/116/85
f 107/116/85 95/115/85 100/117/86
f 107/116/85 100/117/86 108/118/86
f 108/118/86 100/117/86 99/119/87
f 108/118/86 99/119/87 109/120/87
f 109/121/87 99/122/87 98/123/88
f 109/121/87 98/123/88 110/124/88
f 110/124/88 98/123/88 103/125/89
f 110/124/88 103/125/89 111/126/89
f 111/126/89 103/125/89 102/127/90
f 111/126/89 102/127/90 112/128/90
f 112/128/90 102/127/90 101/129/91
f 112/128/90 101/129/91 113/130/91
f 113/130/91 101/129/91 105/131/92
f 113/130/91 105/131/92 114/132/92
f 114/132/92 105/131/92 104/133/93
f 114/132/92 104/133/93 115/134/93
f 115/135/93 104/136/93 84/137/94
f 115/135/93 84/137/94 116/138/94
f 116/138/94 84/137/94 83/139/40
f 116/138/94 83/139/40 117/140/40
f 117/140/40 83/139/40 88/141/95
f 117/140/40 88/141/95 118/142/95
f 118/142/95 88/141/95 87/143/96
f 118/142/95 87/143/96 119/144/96
f 119/144/96 87/143/96 86/145/97
f 119/144/96 86/145/97 120/146/97
f 120/147/97 86/148/97 91/149/98
f 120/147/97 91/149/98 121/150/98
f 121/150/98 91/149/98 90/151/99
f 121/150/98 90/151/99 122/152/99
f 122/152/99 90/151/99 89/153/100
f 122/152/99 89/153/100 123/154/100
f 123/154/100 89/153/100 94/155/101
f 123/154/100 94/155/101 124/156/101
f 124/156/101 94/155/101 93/157/102
f 124/156/101 93/157/102 125/158/102
f 125/158/102 93/157/102 92/159/103
f 125/158/102 92/159/103 126/160/103
f 126/161/103 92/162/103 97/163/104
f 126/161/103 97/163/104 127/164/104
f 127/164/104 97/163/104 96/165/84
f 127/164/104 96/165/84 106/114/84
f 106/114/84 96/165/84 95/115/85
f 128/166/83 117/167/83 118/168/83
f 109/169/83 129/170/83 108/171/83
f 108/171/83 129/170/83 130/172/83
f 108/171/83 130/172/83 107/173/83
f 107/173/83 130/172/83 131/174/83
f 107/173/83 131/174/83 106/175/83
f 106/175/83 131/174/83 132/176/83
f 106/175/83 132/176/83 127/177/83
f 127/177/83 132/176/83 133/178/83
f 127/177/83 133/178/83 126/179/83
f 128/166/83 134/180/83 117/167/83
f 117/167/83 134/180/83 135/181/83
f 117/167/83 135/181/83 116/182/83
f 116/182/83 135/181/83 136/183/83
f 116/182/83 136/183/83 115/184/83
f 115/184/83 136/183/83 137/185/83
f 115/184/83 137/185/83 114/186/83
f 114/186/83 137/185/83 138/187/83
f 114/186/83 138/187/83 113/188/83
f 122/189/83 139/190/83 121/191/83
f 121/191/83 139/190/83 140/192/83
f 121/191/83 140/192/83 120/193/83
f 120/193/83 140/192/83 141/194/83
f 120/193/83 141/194/83 119/195/83
f 119/195/83 141/194/83 142/196/83
f 119/195/83 142/196/83 118/168/83
f 118/168/83 142/196/83 143/197/83
f 118/168/83 143/197/83 128/166/83
f 133/178/83 144/198/83 126/179/83
f 126/179/83 144/198/83 145/199/83
f 126/179/83 145/199/83 125/200/83
f 125/200/83 145/199/83 146/201/83
f 125/200/83 146/201/83 124/202/83
f 124/202/83 146/201/83 147/203/83
f 124/202/83 147/203/83 123/204/83
f 123/204/83 147/203/83 148/205/83
f 123/204/83 148/205/83 122/189/83
f 122/189/83 148/205/83 149/206/83
f 122/189/83 149/206/83 139/190/83
f 138/187/83 150/207/83 113/188/83
f 113/188/83 150/207/83 151/208/83
f 113/188/83 151/208/83 112/209/83
f 112/209/83 151/208/83 152/210/83
f 112/209/83 152/210/83 111/211/83
f 111/211/83 152/210/83 153/212/83
f 111/211/83 153/212/83 110/213/83
f 110/213/83 153/212/83 154/214/83
f 110/213/83 154/214/83 109/169/83
f 109/169/83 154/214/83 155/215/83
f 109/169/83 155/215/83 129/170/83
f 132/176/105 81/216/106 80/217/107
f 132/176/105 80/217/107 133/178/108
f 80/217/107 79/218/109 133/178/108
f 133/178/108 79/218/109 78/219/110
f 133/178/108 78/219/110 144/198/111
f 78/219/110 77/220/112 144/198/111
f 144/198/111 77/220/112 76/221/113
f 144/198/111 76/221/113 145/199/114
f 76/221/113 75/222/115 145/199/114
f 145/199/114 75/222/115 74/223/116
f 145/199/114 74/223/116 146/201/117
f 146/201/117 74/223/116 73/224/118
f 146/201/117 73/224/118 147/203/119
f 147/203/119 73/224/118 72/225/120
f 72/225/120 71/226/121 147/203/119
f 147/203/119 71/226/121 70/227/122
f 147/203/119 70/227/122 148/205/123
f 148/205/123 70/227/122 69/228/124
f 148/229/123 69/230/124 149/231/125
f 149/206/125 69/228/124 68/232/126
f 68/232/126 67/233/127 149/206/125
f 149/206/125 67/233/127 66/234/128
f 149/206/125 66/234/128 139/190/129
f 139/190/129 66/234/128 65/235/130
f 139/190/129 65/235/130 140/192/131
f 65/235/130 64/236/132 140/192/131
f 140/192/131 64/236/132 63/237/133
f 140/192/131 63/237/133 141/194/134
f 141/194/134 63/237/133 62/238/135
f 62/238/135 61/239/136 141/194/134
f 141/194/134 61/239/136 60/240/137
f 141/194/134 60/240/137 142/196/138
f 142/196/138 60/240/137 59/241/139
f 142/196/138 59/241/139 143/197/140
f 143/197/140 59/241/139 58/242/141
f 58/242/141 57/243/142 143/197/140
f 143/197/140 57/243/142 56/244/143
f 143/197/140 56/244/143 128/166/144
f 128/166/144 56/244/143 55/245/145
f 128/166/144 55/245/145 134/180/146
f 134/180/146 55/245/145 54/246/146
f 134/180/146 54/246/146 135/181/147
f 54/246/146 53/247/148 135/181/147
f 135/181/147 53/247/148 52/248/149
f 135/181/147 52/248/149 136/183/150
f 136/183/150 52/248/149 51/249/151
f 136/183/150 51/249/151 137/185/152
f 137/185/152 51/249/151 50/250/153
f 50/250/153 49/251/154 137/185/152
f 137/185/152 49/251/154 48/252/155
f 137/185/152 48/252/155 138/187/156
f 48/252/155 47/253/157 138/187/156
f 138/187/156 47/253/157 46/254/158
f 138/187/156 46/254/158 150/207/159
f 46/254/158 45/255/160 150/207/159
f 150/207/159 45/255/160 44/256/161
f 150/207/159 44/256/161 151/208/162
f 44/256/161 43/257/163 151/208/162
f 151/208/162 43/257/163 42/258/164
f 151/208/162 42/258/164 152/210/165
f 42/258/164 41/259/166 152/210/165
f 152/210/165 41/259/166 40/260/167
f 152/210/165 40/260/167 153/212/168
f 153/212/168 40/260/167 39/261/169
f 153/212/168 39/261/169 154/214/170
f 154/214/170 39/261/169 38/262/171
f 38/262/171 37/263/172 154/214/170
f 154/214/170 37/263/172 36/264/173
f 154/214/170 36/264/173 155/215/174
f 155/215/174 36/264/173 35/265/175
f 155/215/174 35/265/175 129/170/176
f 129/170/176 35/265/175 34/266/177
f 34/266/177 33/267/178 129/170/176
f 129/170/176 33/267/178 32/268/179
f 129/170/176 32/268/179 130/172/180
f 32/268/179 31/269/181 130/172/180
f 130/172/180 31/269/181 30/270/182
f 130/172/180 30/270/182 131/174/183
f 131/174/183 30/270/182 29/271/184
f 131/272/183 29/273/184 132/274/105
f 132/275/105 29/276/184 82/277/185
f 132/278/105 82/90/185 81/89/106
