# Blender 4.5.9 LTS
# www.blender.org
o link2_0_logo
v 0.054687 0.022874 0.025920
v 0.058559 0.017022 0.024936
v 0.043053 0.021175 0.024860
v 0.052066 -0.010643 0.026446
v 0.073546 -0.007514 0.029267
v -0.075456 0.004185 0.016425
v 0.047340 0.021801 0.025231
v 0.044960 0.015034 0.023956
v -0.073693 -0.002024 0.016580
v 0.066453 -0.008542 0.027739
v 0.035775 0.020111 0.024262
v 0.017853 -0.001549 0.022100
v 0.031788 0.019529 0.023913
v 0.010394 0.016400 0.022281
v 0.044577 -0.011736 0.025794
v 0.040601 -0.012325 0.025451
v 0.051220 0.015949 0.024407
v -0.000964 0.014738 0.021422
v 0.033627 0.013376 0.023237
v 0.037622 0.013960 0.023488
v 0.062278 0.011271 0.024545
v 0.046754 0.009000 0.023645
v 0.013927 0.004194 0.021771
v 0.054954 0.010200 0.024121
v 0.035376 0.007334 0.022986
v 0.039369 0.007919 0.023217
v 0.065901 0.005483 0.024965
v 0.048487 0.002936 0.023834
v 0.058623 0.004420 0.024408
v 0.037071 0.001266 0.023187
v 0.041060 0.001849 0.023413
v 0.012199 0.010239 0.021868
v 0.006536 0.003112 0.021354
v 0.020720 0.017910 0.023047
v 0.024622 0.018481 0.023330
v 0.019250 -0.015440 0.023779
v 0.010905 -0.016660 0.023135
v 0.033467 -0.013355 0.024875
v 0.022534 0.011750 0.022542
v 0.004819 0.009160 0.021368
v 0.026445 0.012325 0.022787
v 0.008229 -0.002957 0.021555
v 0.024293 0.005718 0.022357
v 0.028186 0.006280 0.022577
v 0.003023 0.015321 0.021724
v 0.025941 -0.000373 0.022558
v 0.029880 0.000211 0.022781
v 0.000837 0.008577 0.021098
v 0.007904 -0.017099 0.022904
v 0.004257 -0.003539 0.021330
v 0.002556 0.002529 0.021127
v -0.008678 -0.013110 0.021156
v -0.042505 -0.018003 0.019041
v -0.027369 -0.015840 0.019959
v -0.020210 -0.014797 0.020429
v -0.043154 0.008720 0.018544
v -0.041375 0.002541 0.018518
v -0.039532 -0.003578 0.018661
v -0.034403 -0.023258 0.020080
v -0.037886 -0.009676 0.018940
v -0.029434 -0.008470 0.019423
v -0.018166 -0.006821 0.020061
v -0.022198 -0.007411 0.019833
v -0.025706 -0.022006 0.020635
v -0.014544 -0.020377 0.021373
v -0.018572 -0.020968 0.021106
v -0.019834 -0.000748 0.019815
v -0.031103 -0.002398 0.019156
v -0.023865 -0.001339 0.019579
v -0.032700 0.003698 0.019063
v -0.025552 0.004716 0.019502
v -0.031840 0.000268 0.019072
v -0.034425 0.009881 0.019120
v -0.027295 0.010891 0.019594
v -0.016182 -0.014208 0.020696
v -0.044508 -0.010614 0.018563
v -0.050613 0.001351 0.017939
v -0.016583 -0.000272 0.020006
v -0.047859 0.001616 0.018110
v 0.006259 -0.010924 0.022071
v -0.040842 -0.024175 0.019668
v -0.052352 0.007515 0.017939
v -0.049666 0.007777 0.018111
v -0.035994 -0.017080 0.019419
v -0.046175 -0.004518 0.018277
v -0.009301 0.000794 0.020432
v -0.010668 -0.005723 0.020485
v -0.003983 -0.018839 0.022089
v -0.011000 0.006844 0.020367
v -0.012771 0.013011 0.020568
v -0.020028 0.011953 0.020081
v -0.018273 0.005779 0.019935
v -0.051583 -0.025587 0.018966
v -0.059340 -0.026726 0.018465
v -0.055482 -0.012088 0.017930
v -0.062866 -0.013155 0.017504
v -0.064477 -0.007076 0.017236
v -0.057229 -0.006039 0.017646
v -0.053358 -0.019439 0.018405
v -0.061079 -0.020573 0.017959
v -0.065449 -0.003866 0.017111
vn 0.0514 0.0630 -0.9967
vn 0.0523 0.1671 -0.9846
vn 0.0540 0.1873 -0.9808
vn 0.0501 0.1502 -0.9874
vn 0.0611 0.0240 -0.9978
vn 0.0512 0.0917 -0.9945
vn 0.0695 -0.0171 -0.9974
vn 0.0827 -0.1114 -0.9903
vn 0.0593 -0.0149 -0.9981
vn 0.0935 -0.1563 -0.9833
vn 0.0582 0.0593 -0.9965
vn 0.0518 0.0530 -0.9972
vn 0.1674 -0.1849 -0.9684
vn 0.0560 0.0906 -0.9943
vn 0.0547 0.1144 -0.9919
vn 0.0755 -0.0878 -0.9933
vn 0.0591 -0.0168 -0.9981
vn 0.0874 -0.1355 -0.9869
vn 0.0590 -0.0169 -0.9981
vn 0.0597 0.0795 -0.9950
vn 0.0582 0.0258 -0.9980
vn 0.0582 0.0050 -0.9983
vn 0.0589 -0.0167 -0.9981
vn 0.0566 0.0442 -0.9974
vn 0.0782 -0.0881 -0.9930
vn 0.0597 0.0288 -0.9978
vn 0.0612 -0.0259 -0.9978
vn 0.0793 -0.1048 -0.9913
vn 0.0615 -0.0210 -0.9979
vn 0.0782 -0.0927 -0.9926
vn 0.0689 -0.0694 -0.9952
vn 0.0613 -0.0075 -0.9981
vn 0.0605 -0.0147 -0.9981
vn 0.0605 -0.0230 -0.9979
vn 0.0615 -0.0295 -0.9977
vn 0.0617 0.0201 -0.9979
vn 0.0726 -0.0846 -0.9938
vn 0.0693 -0.0574 -0.9959
vn 0.0640 -0.0476 -0.9968
vn 0.0614 0.0048 -0.9981
vn 0.0601 -0.0187 -0.9980
vn 0.0595 -0.0208 -0.9980
vn 0.0611 -0.0285 -0.9977
vn 0.0642 -0.0458 -0.9969
vn 0.0705 -0.0662 -0.9953
vt 0.259869 0.581795
vt 0.264837 0.706635
vt 0.221817 0.706635
vt 0.216609 0.581795
vt 0.227133 0.834029
vt 0.201930 0.834029
vt 0.185082 0.706635
vt 0.142014 0.706635
vt 0.158691 0.834029
vt 0.269906 0.834029
vt 0.682569 0.834029
vt 0.677569 0.706635
vt 0.731615 0.706635
vt 0.736676 0.834029
vt 0.125671 0.581795
vt 0.168572 0.581795
vt 0.109287 0.456638
vt 0.152020 0.456638
vt 0.343240 0.456638
vt 0.392537 0.177596
vt 0.441547 0.177596
vt 0.390795 0.456638
vt 0.254888 0.456638
vt 0.211387 0.456638
vt 0.243783 0.177596
vt 0.199744 0.177596
vt 0.485651 0.834029
vt 0.480513 0.706635
vt 0.549891 0.706635
vt 0.554945 0.834029
vt 0.330353 0.706635
vt 0.288252 0.706635
vt 0.283260 0.581795
vt 0.325354 0.581795
vt 0.072758 0.177596
vt 0.115118 0.177596
vt 0.358352 0.834029
vt 0.353251 0.706635
vt 0.413865 0.706635
vt 0.418960 0.834029
vt 0.335454 0.834029
vt 0.293347 0.834029
vt 0.661789 0.304598
vt 0.656804 0.177596
vt 0.710596 0.177596
vt 0.715642 0.304598
vt 0.278255 0.456638
vt 0.320343 0.456638
vt 0.267096 0.177596
vt 0.309169 0.177596
vt 0.348252 0.581795
vt 0.408872 0.581795
vt 0.457153 0.706635
vt 0.462244 0.834029
vt 0.452165 0.581795
vt 0.544939 0.581795
vt 0.587602 0.581795
vt 0.592504 0.706635
vt 0.447163 0.456638
vt 0.597505 0.834029
vt 0.619432 0.304598
vt 0.614469 0.177596
vt 0.640124 0.834029
vt 0.635145 0.706635
vt 0.630266 0.581795
vt 0.625374 0.456638
vt 0.667756 0.456638
vt 0.672669 0.581795
vt 0.464298 0.304598
vt 0.459175 0.177596
vt 0.528904 0.177596
vt 0.551837 0.304598
vt 0.557843 0.456638
vt 0.590852 0.177596
vt 0.595816 0.304598
vt 0.601758 0.456638
vt 0.726655 0.581795
vt 0.768172 0.581795
vt 0.773178 0.706635
vt 0.674826 0.636756
vt 0.606649 0.581795
vt 0.721682 0.456638
vt 0.763153 0.456638
vt 0.778286 0.834029
vt 0.751965 0.177596
vt 0.757057 0.304598
vt 0.803196 0.834029
vt 0.798088 0.706635
vt 0.936739 0.706635
vt 0.941826 0.834029
vt 0.475477 0.581795
vt 0.470430 0.456638
vt 0.887659 0.581795
vt 0.890278 0.647984
vt 0.843283 0.581795
vt 0.838115 0.456638
vt 0.882713 0.456638
vt 0.831837 0.304598
vt 0.876704 0.304598
vt 0.826593 0.177596
vt 0.871685 0.177596
s 0
f 26/1/1 20/2/1 8/3/1 22/4/1
f 8/3/2 3/5/2 7/6/2 17/7/2
f 2/8/3 17/7/3 7/6/3 1/9/3
f 20/2/4 11/10/4 3/5/4 8/3/4
f 73/11/5 70/12/5 57/13/5 56/14/5
f 21/15/6 24/16/6 17/7/6 2/8/6
f 27/17/7 29/18/7 24/16/7 21/15/7
f 46/19/8 36/20/8 37/21/8 12/22/8
f 31/23/9 26/1/9 22/4/9 28/24/9
f 15/25/10 31/23/10 28/24/10 4/26/10
f 18/27/11 48/28/11 89/29/11 90/30/11
f 41/31/12 19/32/12 25/33/12 44/34/12
f 5/35/13 10/36/13 29/18/13 27/17/13
f 34/37/14 39/38/14 32/39/14 14/40/14
f 35/41/15 13/42/15 19/32/15 41/31/15
f 54/43/16 64/44/16 59/45/16 84/46/16
f 44/34/17 25/33/17 30/47/17 47/48/17
f 47/48/18 30/47/18 16/49/18 38/50/18
f 43/51/19 46/19/19 12/22/19 23/52/19
f 14/40/20 32/39/20 40/53/20 45/54/20
f 32/39/21 23/52/21 33/55/21 40/53/21
f 89/29/22 86/56/22 78/57/22 92/58/22
f 23/52/23 12/22/23 42/59/23 33/55/23
f 90/30/24 89/29/24 92/58/24 91/60/24
f 55/61/25 66/62/25 64/44/25 54/43/25
f 74/63/26 71/64/26 70/12/26 73/11/26
f 69/65/27 63/66/27 61/67/27 68/68/27
f 80/69/28 49/70/28 88/71/28 52/72/28
f 78/57/29 86/56/29 87/73/29
f 52/72/30 88/71/30 65/74/30 75/75/30
f 87/73/31 52/72/31 75/75/31 62/76/31
f 57/13/32 58/77/32 85/78/32 79/79/32
f 72/80/33 69/65/33 68/68/33
f 62/76/34 67/81/34 78/57/34 87/73/34
f 58/77/35 60/82/35 76/83/35 85/78/35
f 56/14/36 57/13/36 79/79/36 83/84/36
f 84/46/37 59/45/37 81/85/37 53/86/37
f 63/66/38 55/61/38 54/43/38 61/67/38
f 60/82/39 84/46/39 53/86/39 76/83/39
f 82/87/40 77/88/40 9/89/40 6/90/40
f 51/91/41 50/92/41 87/73/41 86/56/41
f 97/93/42 101/94/42 98/95/42
f 98/95/43 95/96/43 96/97/43 97/93/43
f 95/96/44 99/98/44 100/99/44 96/97/44
f 99/98/45 93/100/45 94/101/45 100/99/45
