# Blender 4.5.9 LTS
# www.blender.org
o logo
v -0.039153 -0.025211 0.025684
v -0.041552 -0.025359 0.020700
v -0.029785 -0.023404 0.025684
v -0.033476 -0.024273 0.000000
v -0.052057 -0.024607 0.000000
v -0.033147 -0.024289 0.025684
v -0.030486 -0.023611 0.020700
v -0.045536 -0.025307 0.000000
v -0.024261 -0.021442 0.025684
v -0.021362 -0.020044 0.025684
v -0.027640 -0.022625 0.000000
v -0.024619 -0.021582 0.000000
v -0.035494 -0.024630 0.020700
v -0.021981 -0.020377 0.020700
v -0.024907 -0.021695 0.020700
v -0.043952 -0.025379 0.015815
v -0.031172 -0.023814 0.015815
v -0.037788 -0.024981 0.015815
v -0.022587 -0.020704 0.015815
v -0.025541 -0.021943 0.015815
v -0.046386 -0.025330 0.010918
v -0.031866 -0.024007 0.010918
v -0.040092 -0.025322 0.010918
v -0.023204 -0.021005 0.010918
v -0.026188 -0.022163 0.010918
v -0.016291 -0.017191 0.025684
v -0.019469 -0.018940 0.000000
v -0.016898 -0.017556 0.020700
v -0.017505 -0.017882 0.015815
v -0.018113 -0.018210 0.010918
v 0.043683 0.039355 0.025685
v 0.043249 0.038790 0.020700
v -0.010861 -0.013014 0.010918
v -0.007995 -0.010430 0.025684
v -0.001389 -0.004098 0.025684
v -0.008995 -0.011388 0.015815
v -0.008500 -0.010914 0.020700
v -0.004706 -0.007277 0.015815
v -0.014334 -0.015788 0.025684
v -0.010699 -0.012837 0.000000
v -0.005758 -0.008285 0.000000
v -0.014896 -0.016205 0.020700
v -0.004212 -0.006804 0.020700
v -0.005201 -0.007752 0.010918
v -0.015446 -0.016615 0.015815
v -0.003707 -0.006320 0.025684
v -0.016008 -0.017014 0.010918
v -0.001898 -0.004586 0.020700
v -0.004011 -0.006612 0.000000
v -0.002896 -0.005543 0.010918
v -0.002396 -0.005064 0.015815
v 0.005168 0.002186 0.004969
v 0.025498 0.021672 0.004969
v 0.016060 0.012626 0.004969
v 0.011864 0.008605 0.004969
v 0.023479 0.019737 0.025685
v 0.022977 0.019256 0.020700
v 0.022486 0.018785 0.015815
v 0.020895 0.017260 0.000000
v 0.021993 0.018313 0.010918
v 0.016651 0.013193 0.010918
v 0.010113 0.006926 0.010918
v 0.012453 0.009169 0.010918
v 0.015566 0.012153 0.000000
v 0.009033 0.005891 0.000000
v 0.011373 0.008133 0.000000
v 0.010598 0.007391 0.015815
v 0.017138 0.013659 0.015815
v 0.012937 0.009633 0.015815
v 0.017623 0.014124 0.020700
v 0.013421 0.010096 0.020700
v 0.017352 0.013864 0.017966
v 0.018119 0.014599 0.025685
v 0.013914 0.010569 0.025685
v 0.009525 0.006362 0.004969
v 0.026102 0.022251 0.010918
v 0.029562 0.025568 0.020700
v 0.008711 0.005582 0.015815
v 0.027095 0.023202 0.020700
v -0.003504 -0.006125 0.004969
v 0.024993 0.021188 0.000000
v 0.030068 0.026053 0.025685
v 0.027601 0.023687 0.025685
v 0.021395 0.017739 0.004969
v 0.026599 0.022727 0.015815
v 0.004485 0.001531 0.015815
v 0.005763 0.002757 0.010918
v 0.002896 0.000009 0.000000
v 0.004975 0.002002 0.020700
v 0.005476 0.002482 0.025684
v 0.009692 0.006523 0.025685
v 0.009197 0.006048 0.020700
v 0.032386 0.028274 0.000000
v 0.036853 0.032555 0.000000
v 0.033528 0.029368 0.010918
v 0.037946 0.033603 0.010918
v 0.038436 0.034072 0.015815
v 0.034040 0.029859 0.015815
v 0.032906 0.028772 0.004969
v 0.037350 0.033032 0.004969
v 0.038695 0.034321 0.018405
vn 0.3200 -0.9474 0.0005
vn 0.2217 -0.9750 -0.0143
vn 0.1356 -0.9906 -0.0160
vn 0.3298 -0.9440 -0.0010
vn 0.0920 -0.9957 -0.0064
vn 0.0327 -0.9994 0.0140
vn 0.3120 -0.9501 -0.0027
vn 0.2902 -0.9569 -0.0088
vn 0.4854 -0.8743 -0.0018
vn -0.0539 -0.9985 -0.0063
vn 0.4879 -0.8729 0.0012
vn 0.4833 -0.8754 -0.0043
vn 0.4689 -0.8832 -0.0066
vn 0.6920 -0.7219 -0.0000
vn 0.6466 -0.7628 -0.0027
vn 0.6415 -0.7671 0.0008
vn 0.6226 -0.7825 0.0074
vn 0.6857 -0.7279 -0.0093
vn 0.6968 -0.7172 0.0098
vt 0.259869 0.581795
vt 0.264837 0.706635
vt 0.221817 0.706635
vt 0.216609 0.581795
vt 0.227133 0.834029
vt 0.201930 0.834029
vt 0.185082 0.706635
vt 0.142014 0.706635
vt 0.158691 0.834029
vt 0.269906 0.834029
vt 0.125671 0.581795
vt 0.168572 0.581795
vt 0.109287 0.456638
vt 0.152020 0.456638
vt 0.254888 0.456638
vt 0.211387 0.456638
vt 0.243783 0.177596
vt 0.199744 0.177596
vt 0.330353 0.706635
vt 0.288252 0.706635
vt 0.283260 0.581795
vt 0.325354 0.581795
vt 0.072758 0.177596
vt 0.115118 0.177596
vt 0.335454 0.834029
vt 0.293347 0.834029
vt 0.278255 0.456638
vt 0.320343 0.456638
vt 0.267096 0.177596
vt 0.309169 0.177596
vt 0.682569 0.834029
vt 0.677569 0.706635
vt 0.731615 0.706635
vt 0.736676 0.834029
vt 0.343240 0.456638
vt 0.392537 0.177596
vt 0.441547 0.177596
vt 0.390795 0.456638
vt 0.485651 0.834029
vt 0.480513 0.706635
vt 0.549891 0.706635
vt 0.554945 0.834029
vt 0.358352 0.834029
vt 0.353251 0.706635
vt 0.413865 0.706635
vt 0.418960 0.834029
vt 0.661789 0.304598
vt 0.656804 0.177596
vt 0.710596 0.177596
vt 0.715642 0.304598
vt 0.348252 0.581795
vt 0.408872 0.581795
vt 0.457153 0.706635
vt 0.462244 0.834029
vt 0.452165 0.581795
vt 0.544939 0.581795
vt 0.587602 0.581795
vt 0.592504 0.706635
vt 0.447163 0.456638
vt 0.597505 0.834029
vt 0.619432 0.304598
vt 0.614469 0.177596
vt 0.640124 0.834029
vt 0.635145 0.706635
vt 0.630266 0.581795
vt 0.625374 0.456638
vt 0.667756 0.456638
vt 0.672669 0.581795
vt 0.464298 0.304598
vt 0.459175 0.177596
vt 0.528904 0.177596
vt 0.551837 0.304598
vt 0.557843 0.456638
vt 0.590852 0.177596
vt 0.595816 0.304598
vt 0.601758 0.456638
vt 0.726655 0.581795
vt 0.768172 0.581795
vt 0.773178 0.706635
vt 0.674826 0.636756
vt 0.606649 0.581795
vt 0.721682 0.456638
vt 0.763153 0.456638
vt 0.778286 0.834029
vt 0.751965 0.177596
vt 0.757057 0.304598
vt 0.803196 0.834029
vt 0.798088 0.706635
vt 0.936739 0.706635
vt 0.941826 0.834029
vt 0.475477 0.581795
vt 0.470430 0.456638
vt 0.887659 0.581795
vt 0.890278 0.647984
vt 0.843283 0.581795
vt 0.838115 0.456638
vt 0.882713 0.456638
vt 0.831837 0.304598
vt 0.876704 0.304598
vt 0.826593 0.177596
vt 0.871685 0.177596
s 0
f 20/1/1 15/2/1 7/3/1 17/4/1
f 7/3/2 3/5/2 6/6/2 13/7/2
f 2/8/3 13/7/3 6/6/3 1/9/3
f 15/2/4 9/10/4 3/5/4 7/3/4
f 16/11/5 18/12/5 13/7/5 2/8/5
f 21/13/6 23/14/6 18/12/6 16/11/6
f 25/15/7 20/1/7 17/4/7 22/16/7
f 11/17/8 25/15/8 22/16/8 4/18/8
f 28/19/9 14/20/9 19/21/9 29/22/9
f 5/23/10 8/24/10 23/14/10 21/13/10
f 26/25/11 10/26/11 14/20/11 28/19/11
f 29/22/12 19/21/12 24/27/12 30/28/12
f 30/28/13 24/27/13 12/29/13 27/30/13
f 73/31/14 70/32/14 57/33/14 56/34/14
f 47/35/15 40/36/15 41/37/15 33/38/15
f 35/39/14 48/40/14 89/41/14 90/42/14
f 39/43/16 42/44/16 37/45/16 34/46/16
f 54/47/14 64/48/14 59/49/14 84/50/14
f 45/51/17 47/35/17 33/38/17 36/52/17
f 34/46/14 37/45/14 43/53/14 46/54/14
f 37/45/14 36/52/14 38/55/14 43/53/14
f 89/41/14 86/56/14 78/57/14 92/58/14
f 36/52/18 33/38/18 44/59/18 38/55/18
f 90/42/14 89/41/14 92/58/14 91/60/14
f 55/61/14 66/62/14 64/48/14 54/47/14
f 74/63/14 71/64/14 70/32/14 73/31/14
f 69/65/14 63/66/14 61/67/14 68/68/14
f 80/69/14 49/70/14 88/71/14 52/72/14
f 78/57/14 86/56/14 87/73/14
f 52/72/14 88/71/14 65/74/14 75/75/14
f 87/73/14 52/72/14 75/75/14 62/76/14
f 57/33/14 58/77/14 85/78/14 79/79/14
f 72/80/14 69/65/14 68/68/14
f 62/76/14 67/81/14 78/57/14 87/73/14
f 58/77/14 60/82/14 76/83/14 85/78/14
f 56/34/14 57/33/14 79/79/14 83/84/14
f 84/50/14 59/49/14 81/85/14 53/86/14
f 63/66/14 55/61/14 54/47/14 61/67/14
f 60/82/14 84/50/14 53/86/14 76/83/14
f 82/87/19 77/88/19 32/89/19 31/90/19
f 51/91/14 50/92/14 87/73/14 86/56/14
f 97/93/14 101/94/14 98/95/14
f 98/95/14 95/96/14 96/97/14 97/93/14
f 95/96/14 99/98/14 100/99/14 96/97/14
f 99/98/14 93/100/14 94/101/14 100/99/14
