# Blender 4.5.9 LTS
# www.blender.org
o stairs_surface
v 0.944000 -1.496000 -0.560000
v 0.944000 -1.500000 -0.556000
v 0.940000 -1.496000 -0.556000
v 0.944000 -1.500000 -0.524000
v 0.944000 -1.496000 -0.520000
v 0.940000 -1.496000 -0.524000
v 0.944000 1.496000 -0.560000
v 0.940000 1.496000 -0.556000
v 0.944000 1.500000 -0.556000
v 0.944000 1.496000 -0.520000
v 0.944000 1.500000 -0.524000
v 0.940000 1.496000 -0.524000
v 1.336000 -1.496000 -0.560000
v 1.340000 -1.496000 -0.556000
v 1.336000 -1.500000 -0.556000
v 1.336000 -1.496000 -0.520000
v 1.336000 -1.500000 -0.524000
v 1.340000 -1.496000 -0.524000
v 1.336000 1.496000 -0.560000
v 1.336000 1.500000 -0.556000
v 1.340000 1.496000 -0.556000
v 1.336000 1.496000 -0.520000
v 1.340000 1.496000 -0.524000
v 1.336000 1.500000 -0.524000
v 0.564000 -1.496000 -0.380000
v 0.564000 -1.500000 -0.376000
v 0.560000 -1.496000 -0.376000
v 0.564000 -1.500000 -0.344000
v 0.564000 -1.496000 -0.340000
v 0.560000 -1.496000 -0.344000
v 0.564000 1.496000 -0.380000
v 0.560000 1.496000 -0.376000
v 0.564000 1.500000 -0.376000
v 0.564000 1.496000 -0.340000
v 0.564000 1.500000 -0.344000
v 0.560000 1.496000 -0.344000
v 0.956000 -1.496000 -0.380000
v 0.960000 -1.496000 -0.376000
v 0.956000 -1.500000 -0.376000
v 0.956000 -1.496000 -0.340000
v 0.956000 -1.500000 -0.344000
v 0.960000 -1.496000 -0.344000
v 0.956000 1.496000 -0.380000
v 0.956000 1.500000 -0.376000
v 0.960000 1.496000 -0.376000
v 0.956000 1.496000 -0.340000
v 0.960000 1.496000 -0.344000
v 0.956000 1.500000 -0.344000
v 0.184000 -1.496000 -0.200000
v 0.184000 -1.500000 -0.196000
v 0.180000 -1.496000 -0.196000
v 0.184000 -1.500000 -0.164000
v 0.184000 -1.496000 -0.160000
v 0.180000 -1.496000 -0.164000
v 0.184000 1.496000 -0.200000
v 0.180000 1.496000 -0.196000
v 0.184000 1.500000 -0.196000
v 0.184000 1.496000 -0.160000
v 0.184000 1.500000 -0.164000
v 0.180000 1.496000 -0.164000
v 0.576000 -1.496000 -0.200000
v 0.580000 -1.496000 -0.196000
v 0.576000 -1.500000 -0.196000
v 0.576000 -1.496000 -0.160000
v 0.576000 -1.500000 -0.164000
v 0.580000 -1.496000 -0.164000
v 0.576000 1.496000 -0.200000
v 0.576000 1.500000 -0.196000
v 0.580000 1.496000 -0.196000
v 0.576000 1.496000 -0.160000
v 0.580000 1.496000 -0.164000
v 0.576000 1.500000 -0.164000
v -0.196000 -1.496000 -0.020000
v -0.196000 -1.500000 -0.016000
v -0.200001 -1.496000 -0.016000
v -0.196000 -1.500000 0.016000
v -0.196000 -1.496000 0.020000
v -0.200001 -1.496000 0.016000
v -0.196000 1.496000 -0.020000
v -0.200001 1.496000 -0.016000
v -0.196000 1.500000 -0.016000
v -0.196000 1.496000 0.020000
v -0.196000 1.500000 0.016000
v -0.200001 1.496000 0.016000
v 0.196000 -1.496000 -0.020000
v 0.200000 -1.496000 -0.016000
v 0.196000 -1.500000 -0.016000
v 0.196000 -1.496000 0.020000
v 0.196000 -1.500000 0.016000
v 0.200000 -1.496000 0.016000
v 0.196000 1.496000 -0.020000
v 0.196000 1.500000 -0.016000
v 0.200000 1.496000 -0.016000
v 0.196000 1.496000 0.020000
v 0.200000 1.496000 0.016000
v 0.196000 1.500000 0.016000
vn -0.0000 -0.0000 -1.0000
vn -0.0000 -1.0000 -0.0000
vn -1.0000 -0.0000 -0.0000
vn -0.0000 -0.0000 1.0000
vn -0.0000 1.0000 -0.0000
vn 1.0000 -0.0000 -0.0000
vt 0.786259 0.943797
vt 0.786669 0.945675
vt 0.784670 0.945340
vt 0.786563 0.956223
vt 0.786176 0.958158
vt 0.784644 0.956582
vt 1.043633 0.958158
vt 1.042101 0.956582
vt 1.044020 0.956222
vt 1.043716 0.943797
vt 1.044126 0.945675
vt 1.042126 0.945340
vt 0.910685 0.943797
vt 0.912216 0.945373
vt 0.910297 0.945733
vt 0.910601 0.958158
vt 0.910192 0.956280
vt 0.912191 0.956615
vt 1.168058 0.958158
vt 1.167649 0.956280
vt 1.169648 0.956615
vt 1.168142 0.943797
vt 1.169673 0.945373
vt 1.167754 0.945733
vt -0.470099 0.092476
vt 1.470099 0.092477
vt 1.470099 0.094417
vt -0.470099 0.094417
vt 1.470099 0.106719
vt -0.470099 0.106718
vt -0.470099 0.104778
vt 1.470099 0.104778
vt 1.470099 0.247889
vt -0.470099 0.247889
vt -0.470099 0.245949
vt 1.470099 0.245949
vt -0.470099 0.233647
vt 1.470099 0.233647
vt 1.470099 0.235588
vt -0.470099 0.235587
vt -0.470099 0.374818
vt 1.470099 0.374818
vt 1.172444 0.943797
vt 1.172854 0.945675
vt 1.170855 0.945340
vt 1.172749 0.956222
vt 1.172361 0.958158
vt 1.170829 0.956582
vt 0.657447 0.958158
vt 0.655916 0.956582
vt 0.657835 0.956223
vt 0.657531 0.943797
vt 0.657941 0.945675
vt 0.655941 0.945340
vt 1.296870 0.943797
vt 1.298402 0.945373
vt 1.296483 0.945733
vt 1.296787 0.958158
vt 1.296377 0.956280
vt 1.298376 0.956614
vt 0.781873 0.958158
vt 0.781463 0.956280
vt 0.783463 0.956615
vt 0.781956 0.943797
vt 0.783488 0.945373
vt 0.781569 0.945733
vt -0.470099 0.032816
vt 1.470098 0.032816
vt 1.470099 0.034757
vt -0.470099 0.034756
vt 1.470099 0.047058
vt -0.470098 0.047058
vt -0.470099 0.045118
vt 1.470099 0.045118
vt 1.470099 0.188229
vt -0.470098 0.188229
vt -0.470098 0.186289
vt 1.470099 0.186289
vt -0.470098 0.173987
vt 1.470099 0.173987
vt 1.470099 0.175927
vt -0.470098 0.175927
vt -0.470098 0.315157
vt 1.470099 0.315158
vt -0.243568 0.943797
vt -0.243158 0.945675
vt -0.245158 0.945340
vt -0.243264 0.956222
vt -0.243651 0.958158
vt -0.245183 0.956582
vt 0.013805 0.958158
vt 0.012274 0.956582
vt 0.014193 0.956222
vt 0.013889 0.943797
vt 0.014299 0.945675
vt 0.012299 0.945340
vt -0.119142 0.943797
vt -0.117611 0.945373
vt -0.119530 0.945733
vt -0.119226 0.958158
vt -0.119636 0.956280
vt -0.117636 0.956615
vt 0.138231 0.958158
vt 0.137821 0.956280
vt 0.139821 0.956614
vt 0.138314 0.943797
vt 0.139846 0.945373
vt 0.137927 0.945733
vt -0.476299 0.435491
vt 1.463898 0.435491
vt 1.463898 0.437431
vt -0.476299 0.437431
vt 1.463898 0.449733
vt -0.476299 0.449732
vt -0.476299 0.447792
vt 1.463898 0.447792
vt 1.463898 0.590903
vt -0.476299 0.590903
vt -0.476299 0.588963
vt 1.463898 0.588963
vt -0.476299 0.576661
vt 1.463898 0.576662
vt 1.463898 0.578602
vt -0.476299 0.578602
vt -0.476299 0.717832
vt 1.463898 0.717832
vt 0.528802 0.943797
vt 0.529212 0.945675
vt 0.527213 0.945340
vt 0.529107 0.956222
vt 0.528719 0.958158
vt 0.527187 0.956582
vt -0.114923 0.958158
vt -0.116455 0.956582
vt -0.114535 0.956222
vt -0.114839 0.943797
vt -0.114430 0.945675
vt -0.116429 0.945340
vt 0.653228 0.943797
vt 0.654760 0.945373
vt 0.652841 0.945733
vt 0.653145 0.958158
vt 0.652735 0.956280
vt 0.654734 0.956614
vt 0.009503 0.958158
vt 0.009093 0.956280
vt 0.011092 0.956614
vt 0.009586 0.943797
vt 0.011118 0.945373
vt 0.009198 0.945733
vt -0.470099 0.318429
vt 1.470099 0.318429
vt 1.470099 0.320369
vt -0.470099 0.320369
vt 1.470099 0.332671
vt -0.470099 0.332671
vt -0.470099 0.330730
vt 1.470099 0.330731
vt 1.470099 0.473841
vt -0.470098 0.473841
vt -0.470099 0.471901
vt 1.470099 0.471901
vt -0.470099 0.459599
vt 1.470099 0.459600
vt 1.470099 0.461540
vt -0.470099 0.461540
vt -0.470098 0.600770
vt 1.470099 0.600770
s 1
f 1/1/1 2/2/2 3/3/3
f 4/4/2 5/5/4 6/6/3
f 7/7/1 8/8/3 9/9/5
f 10/10/4 11/11/5 12/12/3
f 13/13/1 14/14/6 15/15/2
f 16/16/4 17/17/2 18/18/6
f 19/19/1 20/20/5 21/21/6
f 22/22/4 23/23/6 24/24/5
f 7/25/1 1/26/1 3/27/3 8/28/3
f 2/2/2 4/4/2 6/6/3 3/3/3
f 5/29/4 10/30/4 12/31/3 6/32/3
f 11/11/5 9/9/5 8/8/3 12/12/3
f 19/19/1 7/7/1 9/9/5 20/20/5
f 10/10/4 22/22/4 24/24/5 11/11/5
f 23/23/6 21/21/6 20/20/5 24/24/5
f 13/33/1 19/34/1 21/35/6 14/36/6
f 22/37/4 16/38/4 18/39/6 23/40/6
f 17/17/2 15/15/2 14/14/6 18/18/6
f 1/1/1 13/13/1 15/15/2 2/2/2
f 16/16/4 5/5/4 4/4/2 17/17/2
f 7/41/1 19/34/1 13/33/1 1/42/1
f 3/27/3 6/32/3 12/31/3 8/28/3
f 15/15/2 17/17/2 4/4/2 2/2/2
f 22/37/4 10/30/4 5/29/4 16/38/4
f 9/9/5 11/11/5 24/24/5 20/20/5
f 21/35/6 23/40/6 18/39/6 14/36/6
f 25/43/1 26/44/2 27/45/3
f 28/46/2 29/47/4 30/48/3
f 31/49/1 32/50/3 33/51/5
f 34/52/4 35/53/5 36/54/3
f 37/55/1 38/56/6 39/57/2
f 40/58/4 41/59/2 42/60/6
f 43/61/1 44/62/5 45/63/6
f 46/64/4 47/65/6 48/66/5
f 31/67/1 25/68/1 27/69/3 32/70/3
f 26/44/2 28/46/2 30/48/3 27/45/3
f 29/71/4 34/72/4 36/73/3 30/74/3
f 35/53/5 33/51/5 32/50/3 36/54/3
f 43/61/1 31/49/1 33/51/5 44/62/5
f 34/52/4 46/64/4 48/66/5 35/53/5
f 47/65/6 45/63/6 44/62/5 48/66/5
f 37/75/1 43/76/1 45/77/6 38/78/6
f 46/79/4 40/80/4 42/81/6 47/82/6
f 41/59/2 39/57/2 38/56/6 42/60/6
f 25/43/1 37/55/1 39/57/2 26/44/2
f 40/58/4 29/47/4 28/46/2 41/59/2
f 31/83/1 43/76/1 37/75/1 25/84/1
f 27/69/3 30/74/3 36/73/3 32/70/3
f 39/57/2 41/59/2 28/46/2 26/44/2
f 46/79/4 34/72/4 29/71/4 40/80/4
f 33/51/5 35/53/5 48/66/5 44/62/5
f 45/77/6 47/82/6 42/81/6 38/78/6
f 49/85/1 50/86/2 51/87/3
f 52/88/2 53/89/4 54/90/3
f 55/91/1 56/92/3 57/93/5
f 58/94/4 59/95/5 60/96/3
f 61/97/1 62/98/6 63/99/2
f 64/100/4 65/101/2 66/102/6
f 67/103/1 68/104/5 69/105/6
f 70/106/4 71/107/6 72/108/5
f 55/109/1 49/110/1 51/111/3 56/112/3
f 50/86/2 52/88/2 54/90/3 51/87/3
f 53/113/4 58/114/4 60/115/3 54/116/3
f 59/95/5 57/93/5 56/92/3 60/96/3
f 67/103/1 55/91/1 57/93/5 68/104/5
f 58/94/4 70/106/4 72/108/5 59/95/5
f 71/107/6 69/105/6 68/104/5 72/108/5
f 61/117/1 67/118/1 69/119/6 62/120/6
f 70/121/4 64/122/4 66/123/6 71/124/6
f 65/101/2 63/99/2 62/98/6 66/102/6
f 49/85/1 61/97/1 63/99/2 50/86/2
f 64/100/4 53/89/4 52/88/2 65/101/2
f 55/125/1 67/118/1 61/117/1 49/126/1
f 51/111/3 54/116/3 60/115/3 56/112/3
f 63/99/2 65/101/2 52/88/2 50/86/2
f 70/121/4 58/114/4 53/113/4 64/122/4
f 57/93/5 59/95/5 72/108/5 68/104/5
f 69/119/6 71/124/6 66/123/6 62/120/6
f 73/127/1 74/128/2 75/129/3
f 76/130/2 77/131/4 78/132/3
f 79/133/1 80/134/3 81/135/5
f 82/136/4 83/137/5 84/138/3
f 85/139/1 86/140/6 87/141/2
f 88/142/4 89/143/2 90/144/6
f 91/145/1 92/146/5 93/147/6
f 94/148/4 95/149/6 96/150/5
f 79/151/1 73/152/1 75/153/3 80/154/3
f 74/128/2 76/130/2 78/132/3 75/129/3
f 77/155/4 82/156/4 84/157/3 78/158/3
f 83/137/5 81/135/5 80/134/3 84/138/3
f 91/145/1 79/133/1 81/135/5 92/146/5
f 82/136/4 94/148/4 96/150/5 83/137/5
f 95/149/6 93/147/6 92/146/5 96/150/5
f 85/159/1 91/160/1 93/161/6 86/162/6
f 94/163/4 88/164/4 90/165/6 95/166/6
f 89/143/2 87/141/2 86/140/6 90/144/6
f 73/127/1 85/139/1 87/141/2 74/128/2
f 88/142/4 77/131/4 76/130/2 89/143/2
f 79/167/1 91/160/1 85/159/1 73/168/1
f 75/153/3 78/158/3 84/157/3 80/154/3
f 87/141/2 89/143/2 76/130/2 74/128/2
f 94/163/4 82/156/4 77/155/4 88/164/4
f 81/135/5 83/137/5 96/150/5 92/146/5
f 93/161/6 95/166/6 90/165/6 86/162/6
