# Blender 4.5.9 LTS
# www.blender.org
o CardBoxA_01
v -0.161700 -0.160380 -0.165000
v 0.161700 0.160380 -0.165000
v 0.161700 -0.160380 -0.165000
v -0.161700 0.160380 -0.165000
v -0.161700 0.160380 0.165000
v -0.161700 -0.160380 0.165000
v 0.161700 0.160380 0.165000
v 0.161700 -0.160380 0.165000
v -0.161700 -0.160380 -0.165000
v 0.161700 -0.160380 -0.165000
v -0.161700 -0.165000 -0.160380
v 0.161700 -0.165000 -0.160380
v 0.161700 -0.165000 0.160380
v -0.161700 -0.165000 0.160380
v -0.161700 -0.160380 0.165000
v 0.161700 -0.160380 0.165000
v 0.165000 -0.160380 -0.160380
v 0.165000 -0.160380 0.160380
v 0.161700 0.160380 -0.165000
v 0.165000 0.160380 0.160380
v 0.161700 0.160380 0.165000
v 0.165000 0.160380 -0.160380
v 0.161700 0.165000 -0.160380
v 0.161700 0.165000 0.160380
v -0.161700 0.160380 -0.165000
v -0.161700 0.165000 0.160380
v -0.161700 0.160380 0.165000
v -0.161700 0.165000 -0.160380
v -0.165000 0.160380 -0.160380
v -0.161700 -0.160380 -0.165000
v -0.165000 0.160380 0.160380
v -0.165000 -0.160380 0.160380
v -0.161700 -0.160380 0.165000
v -0.161700 -0.165000 0.160380
v -0.165000 -0.160380 -0.160380
v -0.161700 -0.165000 -0.160380
vn -0.0079 -0.0157 -0.9998
vn 0.0079 0.0157 -0.9998
vn 0.0079 -0.0157 -0.9998
vn -0.0079 0.0157 -0.9998
vn -0.0079 0.0157 0.9998
vn -0.0079 -0.0157 0.9998
vn 0.0079 0.0157 0.9998
vn 0.0079 -0.0157 0.9998
vn 0.0992 -0.0085 -0.9950
vn -0.0079 -0.9999 -0.0136
vn 0.0698 -0.9975 -0.0107
vn 0.1441 -0.9876 -0.0616
vn -0.0079 -0.9998 0.0158
vn 0.1054 -0.0142 0.9943
vn 0.9980 0.0625 0.0131
vn 0.9979 0.0631 -0.0136
vn 0.1054 0.0142 -0.9943
vn 0.9984 -0.0305 -0.0467
vn 0.0992 0.0085 0.9950
vn 0.9984 -0.0318 0.0465
vn 0.0856 0.9963 0.0120
vn 0.0888 0.9960 -0.0088
vn -0.0992 0.0085 -0.9950
vn -0.0644 0.9979 0.0099
vn -0.1054 0.0142 0.9943
vn -0.0698 0.9975 -0.0107
vn -0.9980 -0.0625 0.0131
vn -0.1815 -0.0085 -0.9833
vn -0.9979 -0.0631 -0.0136
vn -0.9984 0.0305 -0.0467
vn -0.1802 -0.0081 0.9836
vn -0.1815 -0.9833 0.0085
vn -0.9984 0.0466 0.0318
vn -0.1802 -0.9836 -0.0081
vt 0.793945 0.796143
vt 0.617676 0.547363
vt 0.793945 0.547363
vt 0.617676 0.796143
vt 0.810547 0.278809
vt 0.987305 0.278809
vt 0.810547 0.527588
vt 0.987305 0.527588
vt 0.212524 0.873047
vt 0.212646 0.622314
vt 0.216064 0.873291
vt 0.216064 0.623779
vt 0.393311 0.623779
vt 0.393066 0.873291
vt 0.396729 0.873047
vt 0.396484 0.622314
vt 0.216064 0.620850
vt 0.393066 0.620850
vt 0.212646 0.443359
vt 0.393066 0.444824
vt 0.396484 0.443359
vt 0.216064 0.444824
vt 0.216064 0.441895
vt 0.393066 0.441895
vt 0.212646 0.191406
vt 0.393066 0.192871
vt 0.396484 0.191406
vt 0.216064 0.192871
vt 0.216064 0.189941
vt 0.212891 0.013184
vt 0.393066 0.189941
vt 0.393066 0.013672
vt 0.396484 0.013184
vt 0.393555 0.010254
vt 0.216187 0.013672
vt 0.215820 0.010254
s 1
f 1/1/1 2/2/2 3/3/3
f 2/2/2 1/1/1 4/4/4
f 5/5/5 6/6/6 7/7/7
f 7/7/7 6/6/6 8/8/8
f 9/9/1 10/10/9 11/11/10
f 12/12/11 11/11/10 10/10/9
f 13/13/12 11/11/10 12/12/11
f 14/14/13 11/11/10 13/13/12
f 13/13/12 15/15/6 14/14/13
f 15/15/6 13/13/12 16/16/14
f 10/10/9 17/17/15 12/12/11
f 13/13/12 12/12/11 18/18/16
f 18/18/16 16/16/14 13/13/12
f 18/18/16 12/12/11 17/17/15
f 10/10/9 19/19/17 17/17/15
f 20/20/18 16/16/14 18/18/16
f 18/18/16 17/17/15 20/20/18
f 16/16/14 20/20/18 21/21/19
f 22/22/20 17/17/15 19/19/17
f 20/20/18 17/17/15 22/22/20
f 19/19/17 23/23/21 22/22/20
f 20/20/18 22/22/20 24/24/22
f 24/24/22 21/21/19 20/20/18
f 24/24/22 22/22/20 23/23/21
f 19/19/17 25/25/23 23/23/21
f 26/26/24 21/21/19 24/24/22
f 24/24/22 23/23/21 26/26/24
f 21/21/19 26/26/24 27/27/25
f 28/28/26 23/23/21 25/25/23
f 26/26/24 23/23/21 28/28/26
f 29/29/27 28/28/26 25/25/23
f 25/25/23 30/30/28 29/29/27
f 26/26/24 28/28/26 31/31/29
f 31/31/29 27/27/25 26/26/24
f 31/31/29 28/28/26 29/29/27
f 32/32/30 27/27/25 31/31/29
f 31/31/29 29/29/27 32/32/30
f 27/27/25 32/32/30 33/33/31
f 34/34/32 33/33/31 32/32/30
f 32/32/30 29/29/27 35/35/33
f 32/32/30 35/35/33 34/34/32
f 35/35/33 29/29/27 30/30/28
f 34/34/32 35/35/33 36/36/34
f 36/36/34 35/35/33 30/30/28
